<svg width="148" height="127" viewBox="0 0 148 127" fill="none" xmlns="http://www.w3.org/2000/svg">
<g opacity="0.35">
<path d="M105.232 0.348557C128.087 0.348557 147.249 19.3385 147.249 42.7099V47.0722L147.247 47.0868C145.775 63.8611 135.846 79.3252 123.671 92.2968C111.491 105.274 97.0264 115.795 86.4149 122.684L86.4042 122.692L86.4032 122.691C82.7051 124.89 78.2587 126.362 73.7987 126.362C69.3386 126.362 64.8915 124.89 61.1933 122.691L61.1815 122.684C50.5701 115.795 36.1061 105.274 23.9257 92.206C11.7496 79.1426 1.82122 63.4973 0.349518 46.3622L0.348541 46.3476V41.9863C0.348541 19.3352 19.5134 0.348715 42.3642 0.348557C54.7589 0.348557 65.7159 5.35597 73.7987 14.6552C81.8816 5.35618 92.8378 0.348559 105.232 0.348557ZM105.232 15.5322C94.4168 15.5322 85.0391 21.9574 80.703 31.246C79.9009 34.3304 76.7969 35.8143 73.7987 35.8144C70.8003 35.8144 67.6945 34.3307 66.8925 31.246C62.5563 21.9577 53.1795 15.5322 42.3642 15.5322C27.9331 15.5323 15.6649 27.6939 15.6649 41.9863V44.1376C17.1194 58.499 26.7318 72.1856 37.9521 83.5751C49.1573 94.9494 61.9152 103.983 69.5849 109.051C72.4004 110.44 75.199 110.439 78.0146 109.049C85.6788 104.346 98.6223 95.4931 109.921 84.207C121.234 72.9065 130.843 59.2213 131.933 44.8642V41.9863C131.933 27.6938 119.664 15.5322 105.232 15.5322Z" fill="white" stroke="white" stroke-width="0.696211"/>
</g>
</svg>
