<svg width="9" height="11" viewBox="0 0 9 11" fill="none" xmlns="http://www.w3.org/2000/svg">
<path fill-rule="evenodd" clip-rule="evenodd" d="M3.06701 5.92269C3.07486 5.92231 3.08271 5.92212 3.09056 5.92212H6.22725C6.2351 5.92212 6.24295 5.92231 6.2508 5.92269C7.34934 5.9772 8.32309 6.64576 8.76896 7.65034C9.08921 8.29104 8.91066 8.92534 8.50177 9.36216C8.10578 9.78512 7.49231 10.0377 6.85472 10.0377H2.4631C1.82574 10.0377 1.21245 9.78505 0.816547 9.36216C0.407706 8.92547 0.228939 8.29123 0.548769 7.65047C0.994669 6.64576 1.96845 5.97727 3.06701 5.92269V5.92269ZM3.10298 6.87187C2.36414 6.9127 1.7106 7.36567 1.41324 8.04392C1.40956 8.05234 1.40563 8.06063 1.40147 8.0688C1.28242 8.3025 1.32687 8.51759 1.50987 8.71304C1.70851 8.92522 2.06143 9.08794 2.4631 9.08794H6.85472C7.25677 9.08794 7.60983 8.92515 7.80839 8.71304C7.99131 8.51771 8.03569 8.30282 7.91647 8.06905C7.91229 8.06082 7.9083 8.0524 7.90456 8.04392C7.60723 7.36567 6.95368 6.9127 6.21484 6.87187H3.10298Z" fill="#5E5E5E"/>
<path fill-rule="evenodd" clip-rule="evenodd" d="M4.6589 1.17326C3.87213 1.17326 3.23429 1.81108 3.23429 2.59788C3.23429 3.38467 3.87213 4.0225 4.6589 4.0225C5.44574 4.0225 6.08352 3.38467 6.08352 2.59788C6.08352 2.22004 5.93346 1.85769 5.66627 1.59052C5.39907 1.32335 5.03671 1.17326 4.6589 1.17326ZM2.28455 2.59788C2.28455 1.28655 3.34758 0.223511 4.6589 0.223511C5.28865 0.223511 5.89256 0.473668 6.33787 0.918947C6.78311 1.36423 7.03327 1.96816 7.03327 2.59788C7.03327 3.90922 5.97025 4.97224 4.6589 4.97224C3.34758 4.97224 2.28455 3.90922 2.28455 2.59788Z" fill="#5E5E5E"/>
</svg>
