<svg width="15" height="16" viewBox="0 0 15 16" fill="none" xmlns="http://www.w3.org/2000/svg">
<path d="M13.125 2.54297H1.875C0.839356 2.54297 0 3.38232 0 4.41797V11.918C0 12.9536 0.839356 13.793 1.875 13.793H13.125C14.1606 13.793 15 12.9536 15 11.918V4.41797C15 3.38232 14.1592 2.54297 13.125 2.54297ZM1.875 3.94922H13.125C13.3835 3.94922 13.5938 4.15951 13.5938 4.41797V5.06719L8.70703 9.11309C8.02764 9.67793 6.96855 9.67764 6.29092 9.11354L1.40625 5.06836V4.41797C1.40625 4.16016 1.6166 3.94922 1.875 3.94922ZM13.125 12.3867H1.875C1.61654 12.3867 1.40625 12.1764 1.40625 11.918V6.89941L5.39355 10.2217C5.98535 10.7109 6.73242 10.9805 7.5 10.9805C8.26758 10.9805 9.01611 10.7113 9.6085 10.2193L13.5938 6.89941V11.918C13.5938 12.1758 13.3828 12.3867 13.125 12.3867Z" fill="#777777"/>
</svg>
