<svg width="14" height="18" viewBox="0 0 14 18" fill="none" xmlns="http://www.w3.org/2000/svg">
<g id="icons">
<path id="Vector" d="M12.1206 0.222656H9.01474C8.76762 0.222656 8.53062 0.320823 8.35589 0.495561C8.18115 0.670299 8.08298 0.907294 8.08298 1.15441C8.08298 1.40153 8.18115 1.63852 8.35589 1.81326C8.53062 1.988 8.76762 2.08617 9.01474 2.08617H9.86884L8.65446 3.30288C8.03263 2.78615 7.30044 2.41912 6.51433 2.2301C5.72823 2.04108 4.90922 2.03512 4.12045 2.21267C3.33168 2.39022 2.59422 2.74654 1.96493 3.25417C1.33564 3.76179 0.831335 4.40715 0.490894 5.14048C0.150454 5.87382 -0.0170267 6.67555 0.00136667 7.48384C0.01976 8.29214 0.223536 9.08542 0.596982 9.80251C0.970428 10.5196 1.50357 11.1414 2.1553 11.6198C2.80703 12.0983 3.55993 12.4207 4.35596 12.5622V13.2672H2.80304C2.55592 13.2672 2.31892 13.3654 2.14419 13.5401C1.96945 13.7149 1.87128 13.9519 1.87128 14.199C1.87128 14.4461 1.96945 14.6831 2.14419 14.8578C2.31892 15.0326 2.55592 15.1307 2.80304 15.1307H4.35596V16.6837C4.35596 16.9308 4.45413 17.1678 4.62887 17.3425C4.8036 17.5172 5.0406 17.6154 5.28772 17.6154C5.53483 17.6154 5.77183 17.5172 5.94657 17.3425C6.1213 17.1678 6.21947 16.9308 6.21947 16.6837V15.1307H7.7724C8.01951 15.1307 8.25651 15.0326 8.43124 14.8578C8.60598 14.6831 8.70415 14.4461 8.70415 14.199C8.70415 13.9519 8.60598 13.7149 8.43124 13.5401C8.25651 13.3654 8.01951 13.2672 7.7724 13.2672H6.21947V12.5622C7.05336 12.4134 7.83916 12.0661 8.5104 11.5494C9.18165 11.0327 9.71858 10.362 10.0758 9.59398C10.433 8.82593 10.6 7.98315 10.5626 7.13692C10.5252 6.29069 10.2846 5.46591 9.86108 4.73235L11.1888 3.40615V4.26026C11.1888 4.50738 11.287 4.74437 11.4617 4.91911C11.6365 5.09385 11.8735 5.19201 12.1206 5.19201C12.3677 5.19201 12.6047 5.09385 12.7794 4.91911C12.9542 4.74437 13.0523 4.50738 13.0523 4.26026V1.15441C13.0523 0.907294 12.9542 0.670299 12.7794 0.495561C12.6047 0.320823 12.3677 0.222656 12.1206 0.222656ZM5.28772 10.7825C4.61201 10.7825 3.95148 10.5822 3.38965 10.2068C2.82782 9.83137 2.38992 9.29779 2.13134 8.67352C1.87276 8.04925 1.8051 7.36232 1.93693 6.69959C2.06875 6.03687 2.39414 5.42812 2.87193 4.95032C3.34973 4.47253 3.95848 4.14714 4.6212 4.01532C5.28393 3.8835 5.97086 3.95115 6.59513 4.20974C7.2194 4.46832 7.75297 4.90621 8.12838 5.46804C8.50378 6.02987 8.70415 6.6904 8.70415 7.36611C8.70312 8.27189 8.34285 9.14027 7.70236 9.78076C7.06188 10.4212 6.1935 10.7815 5.28772 10.7825Z" fill="#555555"/>
</g>
</svg>
