<svg width="18" height="19" viewBox="0 0 18 19" fill="none" xmlns="http://www.w3.org/2000/svg">
<g id="8679014_translate_icon 1" clip-path="url(#clip0_28_671)">
<g id="Group">
<path id="Vector" d="M3.75 11.918V13.418C3.74988 13.7964 3.8928 14.1609 4.15012 14.4384C4.40744 14.7159 4.76013 14.8858 5.1375 14.9142L5.25 14.918H7.5V16.418H5.25C4.45435 16.418 3.69129 16.1019 3.12868 15.5393C2.56607 14.9767 2.25 14.2136 2.25 13.418V11.918H3.75ZM13.5 8.16797L16.8 16.418H15.1838L14.283 14.168H11.2155L10.3162 16.418H8.70075L12 8.16797H13.5ZM12.75 10.3317L11.8148 12.668H13.6838L12.75 10.3317ZM6 2.16797V3.66797H9V8.91797H6V11.168H4.5V8.91797H1.5V3.66797H4.5V2.16797H6ZM12.75 2.91797C13.5456 2.91797 14.3087 3.23404 14.8713 3.79665C15.4339 4.35926 15.75 5.12232 15.75 5.91797V7.41797H14.25V5.91797C14.25 5.52014 14.092 5.13861 13.8107 4.85731C13.5294 4.576 13.1478 4.41797 12.75 4.41797H10.5V2.91797H12.75ZM4.5 5.16797H3V7.41797H4.5V5.16797ZM7.5 5.16797H6V7.41797H7.5V5.16797Z" fill="#555555"/>
</g>
</g>
<defs>
<clipPath id="clip0_28_671">
<rect width="18" height="18" fill="white" transform="translate(0 0.667969)"/>
</clipPath>
</defs>
</svg>
