<svg width="11" height="13" viewBox="0 0 11 13" fill="none" xmlns="http://www.w3.org/2000/svg">
<g id="Group 513960">
<path id="Vector" d="M4.3528 5.02704C4.3528 4.2099 5.00273 3.54749 5.80441 3.54749C6.60609 3.54749 7.25602 4.2099 7.25602 5.02704C7.25602 5.84414 6.60609 6.50659 5.80441 6.50659C5.00273 6.50659 4.3528 5.84414 4.3528 5.02704Z" fill="#A6A6A6"/>
<path id="Vector_2" fill-rule="evenodd" clip-rule="evenodd" d="M5.69871 0.754517C3.63268 0.754517 1.91203 2.36968 1.7423 4.46837C1.65106 5.5966 1.99297 6.71685 2.69604 7.59327L5.01529 10.4842C5.42252 10.9918 6.18394 10.9918 6.59123 10.4842L8.91039 7.59327C9.61348 6.71685 9.95542 5.5966 9.86413 4.46837C9.69445 2.36968 7.97374 0.754517 5.90774 0.754517H5.69871ZM5.80323 2.56286C4.46705 2.56286 3.38387 3.66689 3.38387 5.02878C3.38387 6.39069 4.46705 7.4947 5.80323 7.4947C7.13942 7.4947 8.22258 6.39069 8.22258 5.02878C8.22258 3.66689 7.13942 2.56286 5.80323 2.56286Z" fill="#A6A6A6"/>
<path id="Vector_3" d="M2.79456 9.18952C3.03358 9.31131 3.13046 9.60755 3.01095 9.85118L2.07077 11.7678H9.5372L8.597 9.85118C8.47746 9.60755 8.57436 9.31131 8.81339 9.18952C9.05242 9.06767 9.34307 9.16644 9.46255 9.41008L10.7529 12.0404C10.8279 12.1933 10.8198 12.3748 10.7317 12.5202C10.6435 12.6656 10.4878 12.7541 10.3201 12.7541H1.28784C1.12015 12.7541 0.964404 12.6656 0.876236 12.5202C0.788075 12.3748 0.780055 12.1933 0.855055 12.0404L2.14538 9.41008C2.26489 9.16644 2.55554 9.06767 2.79456 9.18952Z" fill="#A6A6A6"/>
</g>
</svg>
