<svg width="10" height="16" viewBox="0 0 10 16" fill="none" xmlns="http://www.w3.org/2000/svg">
<path d="M7.37589 15.668H2.55319C1.13475 15.668 0 14.5771 0 13.2134V3.12252C0 1.75888 1.13475 0.667969 2.55319 0.667969H7.44681C8.86525 0.667969 10 1.75888 10 3.12252V13.2816C9.92908 14.5771 8.79433 15.668 7.37589 15.668ZM2.55319 2.03161C1.91489 2.03161 1.41844 2.50888 1.41844 3.12252V13.2816C1.41844 13.8271 1.91489 14.3043 2.55319 14.3043H7.44681C8.08511 14.3043 8.58156 13.8271 8.58156 13.2134V3.12252C8.51064 2.50888 8.01418 2.03161 7.37589 2.03161H2.55319Z" fill="#777777"/>
<path d="M5.88644 4.28148H4.04246C3.61693 4.28148 3.33325 4.00876 3.33325 3.59967C3.33325 3.19057 3.61693 2.91785 4.04246 2.91785H5.95736C6.38289 2.91785 6.66658 3.19057 6.66658 3.59967C6.66658 4.00876 6.31197 4.28148 5.88644 4.28148Z" fill="#777777"/>
</svg>
