<svg width="15" height="16" viewBox="0 0 15 16" fill="none" xmlns="http://www.w3.org/2000/svg">
<g id="layer10">
<g id="g1650">
<g id="rect1644">
<path id="Vector" d="M3.21429 15.668H0.535714C0.214286 15.668 0 15.4492 0 15.121V8.00987C0 7.68166 0.214286 7.46286 0.535714 7.46286H3.21429C3.53571 7.46286 3.75 7.68166 3.75 8.00987V15.121C3.75 15.4492 3.53571 15.668 3.21429 15.668ZM1.07143 14.5739H2.67857V8.55687H1.07143V14.5739Z" fill="#555555"/>
</g>
<g id="path1646">
<path id="Vector_2" d="M4.76976 14.9024C4.23404 14.9024 3.64476 14.793 3.0019 14.5195C2.73404 14.4101 2.57333 14.0819 2.73404 13.8084C2.84119 13.5349 3.16261 13.3708 3.43047 13.5349C5.41261 14.3554 6.48404 13.2614 6.96619 12.7144V1.77423C6.91262 1.77423 6.80547 1.77423 6.7519 1.77423C6.59119 1.82893 6.48404 2.04773 6.3769 2.32123C6.26976 2.70414 6.16262 3.41525 6.05547 4.12636C5.73404 6.36908 5.30547 9.10412 3.3769 9.59642C3.10904 9.65112 2.78762 9.48702 2.73404 9.21352C2.68047 8.94002 2.84119 8.61181 3.10904 8.55711C4.34119 8.22891 4.71619 5.76738 4.98404 3.96225C5.09119 3.19644 5.19833 2.48534 5.35904 1.99303C5.57333 1.33662 5.94833 0.899016 6.43047 0.734914C7.1269 0.516111 7.76976 0.899016 7.82333 0.953717C7.93047 1.11782 8.03762 1.28192 8.03762 1.44602V12.9332C8.03762 13.0973 7.98404 13.2614 7.8769 13.3708C7.8769 13.3708 7.82333 13.4255 7.76976 13.4802C6.85904 14.4101 5.84119 14.9024 4.76976 14.9024Z" fill="#555555"/>
</g>
</g>
<g id="g1656">
<g id="rect1652">
<path id="Vector_3" d="M14.4643 15.668H11.7857C11.4643 15.668 11.25 15.4492 11.25 15.121V8.00987C11.25 7.68166 11.4643 7.46286 11.7857 7.46286H14.4643C14.7857 7.46286 15 7.68166 15 8.00987V15.121C15 15.4492 14.7857 15.668 14.4643 15.668ZM12.3214 14.5739H13.9286V8.55687H12.3214V14.5739Z" fill="#555555"/>
</g>
<g id="path1654">
<path id="Vector_4" d="M10.2318 14.9032C9.10682 14.9032 8.14254 14.4108 7.23182 13.4262C7.17825 13.3715 7.17825 13.3715 7.12468 13.3168C7.01754 13.2074 6.96396 13.0433 6.96396 12.8792V1.44679C6.96396 1.28268 7.07111 1.11858 7.17825 1.00918C7.23182 0.954479 7.87468 0.516874 8.57111 0.790377C9.10682 0.954479 9.42825 1.33738 9.64254 1.99379C9.80325 2.4861 9.91039 3.14251 10.0175 3.96302C10.2854 5.76814 10.6604 8.22967 11.8925 8.55787C12.1604 8.61257 12.3747 8.94078 12.2675 9.21428C12.214 9.48779 11.8925 9.70659 11.6247 9.59719C9.69611 9.10488 9.32111 6.31515 8.94611 4.12712C8.83896 3.41601 8.73182 2.7596 8.62468 2.322C8.51754 1.99379 8.41039 1.82969 8.24968 1.77499C8.19611 1.77499 8.08896 1.77499 8.03539 1.77499V12.6604C8.51754 13.1527 9.58896 14.3014 11.5711 13.4809C11.839 13.3715 12.1604 13.4809 12.2675 13.7544C12.3747 14.0279 12.2675 14.3561 11.9997 14.4655C11.3568 14.7938 10.8211 14.9032 10.2318 14.9032Z" fill="#555555"/>
</g>
</g>
</g>
</svg>
