<svg width="15" height="16" viewBox="0 0 15 16" fill="none" xmlns="http://www.w3.org/2000/svg">
<g id="Group">
<path id="Vector" fill-rule="evenodd" clip-rule="evenodd" d="M5.08755 9.18316C5.10008 9.18255 5.11262 9.18225 5.12515 9.18225H10.1343C10.1468 9.18225 10.1593 9.18255 10.1719 9.18316C11.9262 9.27022 13.4812 10.3379 14.1932 11.9421C14.7046 12.9653 14.4195 13.9782 13.7665 14.6758C13.1342 15.3512 12.1545 15.7546 11.1363 15.7546H4.12313C3.10531 15.7546 2.12592 15.3511 1.49369 14.6758C0.8408 13.9784 0.55532 12.9656 1.06607 11.9423C1.77814 10.3379 3.33321 9.27032 5.08755 9.18316ZM5.14498 10.6989C3.9651 10.7642 2.92144 11.4875 2.44658 12.5706C2.44069 12.5841 2.43442 12.5973 2.42778 12.6104C2.23766 12.9836 2.30865 13.327 2.60089 13.6392C2.9181 13.978 3.48169 14.2379 4.12313 14.2379H11.1363C11.7783 14.2379 12.3421 13.9779 12.6592 13.6392C12.9513 13.3273 13.0222 12.9841 12.8318 12.6108C12.8252 12.5976 12.8188 12.5842 12.8128 12.5706C12.338 11.4875 11.2943 10.7642 10.1144 10.6989H5.14498Z" fill="#A6A6A6"/>
<path id="Vector_2" fill-rule="evenodd" clip-rule="evenodd" d="M7.62971 1.59895C6.37319 1.59895 5.35453 2.61759 5.35453 3.87414C5.35453 5.13069 6.37319 6.14933 7.62971 6.14933C8.88632 6.14933 9.9049 5.13069 9.9049 3.87414C9.9049 3.27072 9.66525 2.69202 9.23852 2.26534C8.8118 1.83865 8.23309 1.59895 7.62971 1.59895ZM3.83773 3.87414C3.83773 1.77988 5.53546 0.0821533 7.62971 0.0821533C8.63544 0.0821533 9.59992 0.481667 10.3111 1.1928C11.0222 1.90394 11.4217 2.86845 11.4217 3.87414C11.4217 5.96843 9.724 7.66613 7.62971 7.66613C5.53546 7.66613 3.83773 5.96843 3.83773 3.87414Z" fill="#A6A6A6"/>
</g>
</svg>
