<svg width="13" height="13" viewBox="0 0 13 13" fill="none" xmlns="http://www.w3.org/2000/svg">
<g id="warning">
<path id="Vector" d="M6.52898 8.32174C6.70474 8.32174 6.8733 8.25317 6.99758 8.13109C7.12186 8.00902 7.19167 7.84346 7.19167 7.67082V4.65654C7.19167 4.4839 7.12186 4.31834 6.99758 4.19627C6.8733 4.07419 6.70474 4.00562 6.52898 4.00562C6.35322 4.00562 6.18467 4.07419 6.06039 4.19627C5.93611 4.31834 5.86629 4.4839 5.86629 4.65654V7.66081C5.86494 7.74713 5.88108 7.83285 5.91378 7.91298C5.94647 7.99311 5.99507 8.06606 6.05675 8.12757C6.11842 8.18908 6.19193 8.23792 6.273 8.27126C6.35408 8.30459 6.44109 8.32175 6.52898 8.32174Z" fill="white"/>
<path id="Vector_2" d="M6.50366 10.5496C6.92596 10.5496 7.2683 10.2134 7.2683 9.79855C7.2683 9.38375 6.92596 9.04749 6.50366 9.04749C6.08136 9.04749 5.73901 9.38375 5.73901 9.79855C5.73901 10.2134 6.08136 10.5496 6.50366 10.5496Z" fill="white"/>
<path id="Vector_3" d="M12.8151 10.4348L7.84999 1.45201C7.71854 1.21478 7.5244 1.01675 7.28801 0.87877C7.05162 0.740791 6.78173 0.667969 6.50676 0.667969C6.23178 0.667969 5.9619 0.740791 5.72551 0.87877C5.48912 1.01675 5.29498 1.21478 5.16353 1.45201L0.193339 10.4348C0.0632495 10.6641 -0.00336646 10.923 0.000130947 11.1855C0.00362836 11.448 0.0771169 11.7051 0.213272 11.931C0.349426 12.1569 0.543491 12.3439 0.776122 12.4732C1.00875 12.6025 1.27182 12.6696 1.53911 12.6679H11.4693C11.7344 12.6682 11.995 12.6007 12.2256 12.4722C12.4561 12.3437 12.6487 12.1585 12.7844 11.9348C12.9201 11.7111 12.9943 11.4566 12.9997 11.1963C13.0051 10.9359 12.9414 10.6787 12.8151 10.4498V10.4348ZM11.9077 11.4061C11.8626 11.4809 11.7984 11.5428 11.7216 11.5858C11.6447 11.6288 11.5578 11.6515 11.4693 11.6515H1.53911C1.45051 11.6517 1.36336 11.6293 1.28628 11.5863C1.2092 11.5434 1.14485 11.4815 1.09956 11.4067C1.05427 11.3319 1.02962 11.2468 1.02804 11.1597C1.02645 11.0727 1.04799 10.9868 1.09052 10.9104L6.05562 1.92768C6.0993 1.8482 6.16405 1.78179 6.24303 1.73551C6.322 1.68923 6.41225 1.6648 6.50421 1.6648C6.59617 1.6648 6.68642 1.68923 6.76539 1.73551C6.84437 1.78179 6.90912 1.8482 6.9528 1.92768L11.9179 10.9104C11.9602 10.9868 11.9814 11.0727 11.9797 11.1596C11.9779 11.2465 11.9531 11.3315 11.9077 11.4061Z" fill="white"/>
</g>
</svg>
