<svg width="15" height="16" viewBox="0 0 15 16" fill="none" xmlns="http://www.w3.org/2000/svg">
<g id="profession/defualt">
<path id="profession/defualt_2" fill-rule="evenodd" clip-rule="evenodd" d="M3.71267 3.49436V2.4725C3.71267 1.71579 4.21797 1.07296 4.90102 0.960705L5.87371 0.800855C6.95185 0.623673 8.04818 0.623673 9.12634 0.800855L10.099 0.960705C10.7821 1.07296 11.2874 1.71579 11.2874 2.4725V3.49436L12.654 3.61521C13.7004 3.70776 14.554 4.57094 14.7218 5.70631C15.0927 8.21563 15.0927 10.7739 14.7218 13.2833C14.554 14.4186 13.7004 15.2818 12.654 15.3743L11.1615 15.5063C8.72449 15.7218 6.27555 15.7218 3.83855 15.5063L2.346 15.3743C1.29959 15.2818 0.446008 14.4186 0.278185 13.2833C-0.0927282 10.7739 -0.0927282 8.21563 0.278185 5.70631C0.446008 4.57094 1.29959 3.70776 2.346 3.61521L3.71267 3.49436ZM6.0511 2.09668C7.01165 1.93882 7.98838 1.93882 8.94894 2.09668L9.92161 2.25652C10.0192 2.27256 10.0914 2.3644 10.0914 2.4725V3.40248C8.36521 3.29462 6.63483 3.29462 4.90867 3.40248V2.4725C4.90867 2.3644 4.98086 2.27256 5.07843 2.25652L6.0511 2.09668ZM3.93478 4.78929C6.30776 4.57944 8.69227 4.57944 11.0652 4.78929L12.5578 4.92129C13.0555 4.9653 13.4614 5.37581 13.5412 5.91578C13.5909 6.25203 13.6336 6.58918 13.6692 6.92706C9.78008 9.02515 5.21994 9.02515 1.33085 6.92706C1.36645 6.58918 1.4091 6.25203 1.45881 5.91578C1.53862 5.37581 1.94457 4.9653 2.44223 4.92129L3.93478 4.78929ZM1.2241 8.32133C5.2103 10.3075 9.78973 10.3075 13.7759 8.32133C13.8519 9.90778 13.7737 11.501 13.5412 13.0738C13.4614 13.6137 13.0555 14.0243 12.5578 14.0682L11.0652 14.2002C8.69227 14.4101 6.30776 14.4101 3.93478 14.2002L2.44223 14.0682C1.94457 14.0243 1.53862 13.6137 1.45881 13.0738C1.22633 11.501 1.14809 9.90778 1.2241 8.32133Z" fill="#555555"/>
</g>
</svg>
