<svg width="10" height="10" viewBox="0 0 10 10" fill="none" xmlns="http://www.w3.org/2000/svg">
<path d="M9.35819 2.5729L8.60607 1.06865C8.5737 1.00674 8.5251 0.95479 8.46549 0.918358C8.40587 0.881927 8.33748 0.862383 8.26761 0.861816H1.49849C1.42862 0.862383 1.36023 0.881927 1.30061 0.918358C1.241 0.95479 1.19241 1.00674 1.16003 1.06865L0.407907 2.5729C0.383824 2.62611 0.37102 2.68373 0.3703 2.74213V9.13519C0.3703 9.33467 0.449542 9.52597 0.590593 9.66702C0.731643 9.80807 0.922949 9.88732 1.12243 9.88732H8.64368C8.84315 9.88732 9.03446 9.80807 9.17551 9.66702C9.31656 9.52597 9.3958 9.33467 9.3958 9.13519V2.74213C9.39508 2.68373 9.38228 2.62611 9.35819 2.5729ZM1.72883 1.61394H8.03727L8.41334 2.36607H1.35276L1.72883 1.61394ZM8.64368 9.13519H1.12243V3.11819H8.64368V9.13519ZM6.74456 6.14549C6.81489 6.21599 6.85438 6.31151 6.85438 6.41109C6.85438 6.51067 6.81489 6.60618 6.74456 6.67668L5.15099 8.27495C5.07911 8.34445 4.98304 8.38331 4.88305 8.38331C4.78306 8.38331 4.68699 8.34445 4.61511 8.27495L3.02154 6.67668C2.95672 6.60515 2.9219 6.51142 2.92427 6.41492C2.92665 6.31841 2.96605 6.22652 3.03431 6.15826C3.10257 6.09 3.19446 6.0506 3.29097 6.04823C3.38747 6.04585 3.48119 6.08068 3.55273 6.14549L4.50699 7.09975V4.24638C4.50699 4.14664 4.54661 4.05099 4.61713 3.98046C4.68766 3.90994 4.78331 3.87032 4.88305 3.87032C4.98279 3.87032 5.07844 3.90994 5.14897 3.98046C5.21949 4.05099 5.25911 4.14664 5.25911 4.24638V7.09975L6.21337 6.14549C6.28387 6.07517 6.37939 6.03567 6.47897 6.03567C6.57855 6.03567 6.67406 6.07517 6.74456 6.14549Z" fill="white"/>
</svg>
