<svg width="12" height="12" viewBox="0 0 12 12" fill="none" xmlns="http://www.w3.org/2000/svg">
<path d="M11.1756 2.7696C11.1752 2.40258 11.0703 2.04327 10.873 1.73383C10.6757 1.42439 10.3943 1.17765 10.0618 1.02255C9.72924 0.867448 9.3594 0.810423 8.99563 0.858162C8.63186 0.905901 8.28924 1.05642 8.00797 1.29208C7.7267 1.52773 7.51843 1.83873 7.40761 2.18861C7.29679 2.53848 7.288 2.91272 7.38228 3.26741C7.47657 3.6221 7.67001 3.94254 7.93991 4.19114C8.20982 4.43974 8.545 4.60619 8.90613 4.67096V4.81285C8.90464 5.08334 8.79656 5.34233 8.60536 5.5336C8.41416 5.72487 8.15526 5.83298 7.88487 5.83448H3.79983C3.52943 5.83298 3.27053 5.72487 3.07933 5.5336C2.88813 5.34233 2.78006 5.08334 2.77857 4.81285V4.67096C3.25303 4.58586 3.67846 4.32615 3.97108 3.94296C4.2637 3.55977 4.40231 3.08087 4.35961 2.60056C4.31691 2.12025 4.096 1.67334 3.74037 1.34782C3.38475 1.0223 2.92018 0.841767 2.43815 0.841767C1.95611 0.841767 1.49155 1.0223 1.13592 1.34782C0.780294 1.67334 0.559382 2.12025 0.516682 2.60056C0.473982 3.08087 0.612588 3.55977 0.905208 3.94296C1.19783 4.32615 1.62326 4.58586 2.09773 4.67096V4.81285C2.09773 5.26444 2.27705 5.69753 2.59626 6.01685C2.91546 6.33617 3.3484 6.51556 3.79983 6.51556H5.50193V7.67908C5.02746 7.76417 4.60203 8.02388 4.30941 8.40707C4.01679 8.79026 3.87818 9.26916 3.92088 9.74947C3.96358 10.2298 4.18449 10.6767 4.54012 11.0022C4.89575 11.3277 5.36031 11.5083 5.84235 11.5083C6.32438 11.5083 6.78895 11.3277 7.14457 11.0022C7.5002 10.6767 7.72111 10.2298 7.76381 9.74947C7.80651 9.26916 7.6679 8.79026 7.37528 8.40707C7.08266 8.02388 6.65723 7.76417 6.18277 7.67908V6.51556H7.88487C8.33583 6.51406 8.7679 6.33419 9.08678 6.01519C9.40566 5.6962 9.58547 5.26398 9.58697 4.81285V4.67096C10.0323 4.58996 10.4351 4.35536 10.7254 4.00796C11.0156 3.66056 11.1749 3.22236 11.1756 2.7696ZM1.18994 2.7696C1.18994 2.52264 1.26314 2.28122 1.4003 2.07588C1.53745 1.87054 1.7324 1.7105 1.96048 1.61599C2.18856 1.52148 2.43953 1.49676 2.68166 1.54494C2.92379 1.59312 3.1462 1.71204 3.32076 1.88667C3.49533 2.06129 3.61421 2.28378 3.66237 2.526C3.71053 2.76821 3.68581 3.01928 3.59134 3.24744C3.49686 3.4756 3.33688 3.67061 3.13161 3.80782C2.92635 3.94502 2.68502 4.01825 2.43815 4.01825C2.10756 4.01676 1.79094 3.88472 1.55718 3.65088C1.32342 3.41703 1.19143 3.1003 1.18994 2.7696ZM7.09055 9.58044C7.09055 9.8274 7.01735 10.0688 6.88019 10.2742C6.74304 10.4795 6.54809 10.6395 6.32001 10.734C6.09193 10.8285 5.84096 10.8533 5.59883 10.8051C5.3567 10.7569 5.13429 10.638 4.95973 10.4634C4.78517 10.2887 4.66629 10.0663 4.61812 9.82404C4.56996 9.58182 4.59468 9.33076 4.68915 9.1026C4.78363 8.87444 4.94361 8.67942 5.14888 8.54222C5.35415 8.40501 5.59547 8.33178 5.84235 8.33178C6.17293 8.33327 6.48955 8.46531 6.72331 8.69915C6.95707 8.933 7.08906 9.24973 7.09055 9.58044ZM9.24655 4.01825C8.99967 4.01825 8.75835 3.94502 8.55308 3.80782C8.34781 3.67061 8.18783 3.4756 8.09335 3.24744C7.99888 3.01928 7.97416 2.76821 8.02232 2.526C8.07049 2.28378 8.18937 2.06129 8.36393 1.88667C8.5385 1.71204 8.76091 1.59312 9.00303 1.54494C9.24516 1.49676 9.49614 1.52148 9.72422 1.61599C9.9523 1.7105 10.1472 1.87054 10.2844 2.07588C10.4215 2.28122 10.4948 2.52264 10.4948 2.7696C10.4933 3.1003 10.3613 3.41703 10.1275 3.65088C9.89375 3.88472 9.57713 4.01676 9.24655 4.01825Z" fill="#BDBDBD"/>
</svg>
