<?xml version="1.0" encoding="UTF-8"?>
<svg xmlns="http://www.w3.org/2000/svg" xmlns:xlink="http://www.w3.org/1999/xlink" width="15px" height="16px" viewBox="0 0 15 15" version="1.1">
<g id="surface1">
<path style=" stroke:none;fill-rule:nonzero;fill:rgb(74.117647%,74.117647%,74.117647%);fill-opacity:1;" d="M 2.566406 11.746094 C 1.925781 11.746094 1.3125 11.480469 0.859375 11.003906 C 0.40625 10.527344 0.152344 9.878906 0.152344 9.207031 L 0.152344 2.566406 C 0.152344 1.890625 0.40625 1.246094 0.859375 0.769531 C 1.3125 0.292969 1.925781 0.0234375 2.566406 0.0234375 L 12.585938 0.0234375 C 12.902344 0.0234375 13.21875 0.0898438 13.511719 0.21875 C 13.800781 0.347656 14.070312 0.53125 14.292969 0.769531 C 14.515625 1.003906 14.695312 1.285156 14.816406 1.59375 C 14.9375 1.902344 15 2.230469 15 2.566406 L 15 9.207031 C 15 9.539062 14.9375 9.871094 14.816406 10.179688 C 14.695312 10.488281 14.515625 10.765625 14.292969 11.003906 C 14.070312 11.238281 13.800781 11.425781 13.511719 11.554688 C 13.21875 11.679688 12.902344 11.746094 12.585938 11.746094 L 8.328125 11.746094 L 4.605469 14.675781 C 4.46875 14.785156 4.304688 14.851562 4.132812 14.867188 C 3.960938 14.882812 3.789062 14.851562 3.636719 14.769531 C 3.480469 14.6875 3.351562 14.5625 3.261719 14.410156 C 3.171875 14.253906 3.121094 14.078125 3.121094 13.894531 L 3.121094 11.746094 Z M 7.957031 10.574219 L 12.585938 10.574219 C 12.929688 10.574219 13.261719 10.429688 13.503906 10.175781 C 13.75 9.917969 13.886719 9.570312 13.886719 9.207031 L 13.886719 2.566406 C 13.886719 2.203125 13.75 1.855469 13.503906 1.597656 C 13.261719 1.339844 12.929688 1.199219 12.585938 1.199219 L 2.566406 1.199219 C 2.21875 1.199219 1.890625 1.339844 1.644531 1.597656 C 1.402344 1.855469 1.265625 2.203125 1.265625 2.566406 L 1.265625 9.207031 C 1.265625 9.960938 1.847656 10.574219 2.566406 10.574219 L 4.234375 10.574219 L 4.234375 13.503906 Z M 7.957031 10.574219 "/>
</g>
</svg>
