<svg width="13" height="13" viewBox="0 0 13 13" fill="none" xmlns="http://www.w3.org/2000/svg">
<g clip-path="url(#clip0_9_225)">
<path d="M8.37969 7.12489V3.02239H3.25157V7.12489C3.25157 7.3969 3.35962 7.65777 3.55197 7.85012C3.74431 8.04246 4.00518 8.15052 4.27719 8.15052H7.35407C7.62608 8.15052 7.88695 8.04246 8.07929 7.85012C8.27164 7.65777 8.37969 7.3969 8.37969 7.12489ZM2.73875 1.99677H10.4309C10.703 1.99677 10.9638 2.10482 11.1562 2.29716C11.3485 2.48951 11.4566 2.75038 11.4566 3.02239V4.56083C11.4566 4.83284 11.3485 5.09371 11.1562 5.28605C10.9638 5.4784 10.703 5.58645 10.4309 5.58645H9.40532V7.12489C9.40532 7.66892 9.1892 8.19066 8.80452 8.57534C8.41984 8.96003 7.89809 9.17614 7.35407 9.17614H4.27719C3.73317 9.17614 3.21142 8.96003 2.82674 8.57534C2.44206 8.19066 2.22594 7.66892 2.22594 7.12489V2.50958C2.22594 2.37357 2.27997 2.24314 2.37614 2.14696C2.47231 2.05079 2.60275 1.99677 2.73875 1.99677ZM9.40532 3.02239V4.56083H10.4309V3.02239H9.40532ZM1.20032 10.2018H10.4309V11.2274H1.20032V10.2018Z" fill="#BBBABC"/>
</g>
<defs>
<clipPath id="clip0_9_225">
<rect width="12.3075" height="12.3075" fill="white" transform="translate(0.0735474 0.610321)"/>
</clipPath>
</defs>
</svg>
