<svg width="42" height="40" viewBox="0 0 42 40" fill="none" xmlns="http://www.w3.org/2000/svg">
<path d="M10.8852 34.9578C10.8852 33.8812 10.4575 32.8487 9.69622 32.0874C8.93495 31.3262 7.90244 30.8985 6.82585 30.8985C5.74925 30.8985 4.71674 31.3262 3.95547 32.0874C3.1942 32.8487 2.76653 33.8812 2.76653 34.9578C2.76653 36.0344 3.1942 37.0669 3.95547 37.8282C4.71674 38.5895 5.74925 39.0171 6.82585 39.0171C7.90244 39.0171 8.93495 38.5895 9.69622 37.8282C10.4575 37.0669 10.8852 36.0344 10.8852 34.9578Z" fill="black"/>
<g filter="url(#filter0_i_10_842)">
<path d="M10.8852 34.9586C10.8852 33.882 10.4575 32.8495 9.69622 32.0883C8.93495 31.327 7.90244 30.8993 6.82585 30.8993C5.74925 30.8993 4.71674 31.327 3.95547 32.0883C3.1942 32.8495 2.76653 33.882 2.76653 34.9586C2.76653 36.0352 3.1942 37.0677 3.95547 37.829C4.71674 38.5903 5.74925 39.018 6.82585 39.018C7.90244 39.018 8.93495 38.5903 9.69622 37.829C10.4575 37.0677 10.8852 36.0352 10.8852 34.9586ZM10.8852 34.9586H12.9148H10.8852ZM31.1818 30.8993C31.9846 30.8993 32.7695 31.1374 33.437 31.5834C34.1046 32.0295 34.6248 32.6635 34.9321 33.4052C35.2393 34.1469 35.3197 34.9631 35.1631 35.7506C35.0065 36.538 34.6198 37.2613 34.0521 37.829C33.4844 38.3967 32.7611 38.7833 31.9737 38.94C31.1863 39.0966 30.3701 39.0162 29.6283 38.709C28.8866 38.4017 28.2526 37.8814 27.8066 37.2139C27.3605 36.5463 27.1224 35.7615 27.1224 34.9586M31.1818 30.8993C30.1052 30.8993 29.0727 31.327 28.3114 32.0883C27.5501 32.8495 27.1224 33.882 27.1224 34.9586M31.1818 30.8993V28.8697V30.8993ZM27.1224 34.9586H25.0928H27.1224Z" fill="url(#paint0_linear_10_842)"/>
</g>
<g filter="url(#filter1_i_10_842)">
<path d="M6.82499 24.8137C7.94594 24.8137 8.85465 23.905 8.85465 22.7841C8.85465 21.6631 7.94594 20.7544 6.82499 20.7544C5.70404 20.7544 4.79533 21.6631 4.79533 22.7841C4.79533 23.905 5.70404 24.8137 6.82499 24.8137Z" fill="url(#paint1_linear_10_842)"/>
</g>
<g filter="url(#filter2_i_10_842)">
<path d="M19.0012 36.9901C20.1221 36.9901 21.0308 36.0814 21.0308 34.9604C21.0308 33.8395 20.1221 32.9308 19.0012 32.9308C17.8802 32.9308 16.9715 33.8395 16.9715 34.9604C16.9715 36.0814 17.8802 36.9901 19.0012 36.9901Z" fill="url(#paint2_linear_10_842)"/>
</g>
<g filter="url(#filter3_i_10_842)">
<path fill-rule="evenodd" clip-rule="evenodd" d="M32.5262 24.3015L29.8674 24.3299C29.866 24.3273 29.8639 24.3252 29.8613 24.3238L29.8599 24.3231C29.8581 24.3223 29.8565 24.3211 29.8551 24.3197L29.8369 24.3015L29.7578 24.2345L29.4797 23.989C28.0925 22.7453 26.7886 21.4116 25.5767 19.9966C24.5111 18.7443 23.4009 17.2708 22.5504 15.7161C21.7122 14.1877 21.0323 12.4138 21.0323 10.6033C21.0323 7.46346 22.1242 4.86956 24.0565 3.07128C25.9664 1.2933 28.5217 0.455048 31.1806 0.455048C33.8394 0.455048 36.3948 1.2933 38.3047 3.07128C40.2369 4.86956 41.3289 7.46346 41.3289 10.6033C41.3289 12.4138 40.6489 14.1877 39.8107 15.7181C38.9582 17.2708 37.852 18.7443 36.7865 19.9966C35.4931 21.5055 34.0952 22.9216 32.6034 24.2345L32.5262 24.3015L32.5051 24.3207C32.5043 24.3214 32.5034 24.3221 32.5024 24.3226L32.4965 24.3255C32.496 24.3257 32.4958 24.3262 32.4958 24.3267V24.3274C32.4958 24.3277 32.4955 24.3279 32.4952 24.3279C32.4947 24.3279 32.4945 24.3273 32.4949 24.327L32.5262 24.3015ZM32.5262 24.3015L32.4917 24.3299C32.1252 24.6401 31.6607 24.8103 31.1806 24.8103C30.7004 24.8103 30.2339 24.6401 29.8674 24.3299L32.5262 24.3015ZM31.1806 12.633C31.7189 12.633 32.2351 12.4192 32.6157 12.0385C32.9964 11.6579 33.2102 11.1416 33.2102 10.6033C33.2102 10.065 32.9964 9.5488 32.6157 9.16816C32.2351 8.78753 31.7189 8.57369 31.1806 8.57369C30.6423 8.57369 30.126 8.78753 29.7454 9.16816C29.3647 9.5488 29.1509 10.065 29.1509 10.6033C29.1509 11.1416 29.3647 11.6579 29.7454 12.0385C30.126 12.4192 30.6423 12.633 31.1806 12.633Z" fill="url(#paint3_linear_10_842)"/>
</g>
<rect x="10.0949" y="33.5876" width="3.25892" height="2.71577" fill="url(#paint4_linear_10_842)"/>
<rect x="5.21053" y="31.4148" width="3.25892" height="2.71577" transform="rotate(-90 5.21053 31.4148)" fill="#F4F8FB"/>
<rect x="24.7646" y="33.5876" width="3.25892" height="2.71577" fill="url(#paint5_linear_10_842)"/>
<rect x="0.383469" y="8.25488" width="12.9992" height="3.46644" fill="#69C1BC"/>
<rect x="8.61588" y="3.48868" width="12.9992" height="3.46644" transform="rotate(90 8.61588 3.48868)" fill="#69C1BC"/>
<defs>
<filter id="filter0_i_10_842" x="2.76653" y="28.0492" width="32.4746" height="10.9688" filterUnits="userSpaceOnUse" color-interpolation-filters="sRGB">
<feFlood flood-opacity="0" result="BackgroundImageFix"/>
<feBlend mode="normal" in="SourceGraphic" in2="BackgroundImageFix" result="shape"/>
<feColorMatrix in="SourceAlpha" type="matrix" values="0 0 0 0 0 0 0 0 0 0 0 0 0 0 0 0 0 0 127 0" result="hardAlpha"/>
<feOffset dy="-0.8205"/>
<feGaussianBlur stdDeviation="0.41025"/>
<feComposite in2="hardAlpha" operator="arithmetic" k2="-1" k3="1"/>
<feColorMatrix type="matrix" values="0 0 0 0 0.807843 0 0 0 0 0.827451 0 0 0 0 0.882353 0 0 0 1 0"/>
<feBlend mode="normal" in2="shape" result="effect1_innerShadow_10_842"/>
</filter>
<filter id="filter1_i_10_842" x="4.79533" y="19.9339" width="4.05933" height="4.87983" filterUnits="userSpaceOnUse" color-interpolation-filters="sRGB">
<feFlood flood-opacity="0" result="BackgroundImageFix"/>
<feBlend mode="normal" in="SourceGraphic" in2="BackgroundImageFix" result="shape"/>
<feColorMatrix in="SourceAlpha" type="matrix" values="0 0 0 0 0 0 0 0 0 0 0 0 0 0 0 0 0 0 127 0" result="hardAlpha"/>
<feOffset dy="-0.8205"/>
<feGaussianBlur stdDeviation="0.41025"/>
<feComposite in2="hardAlpha" operator="arithmetic" k2="-1" k3="1"/>
<feColorMatrix type="matrix" values="0 0 0 0 0.807843 0 0 0 0 0.827451 0 0 0 0 0.882353 0 0 0 1 0"/>
<feBlend mode="normal" in2="shape" result="effect1_innerShadow_10_842"/>
</filter>
<filter id="filter2_i_10_842" x="16.9715" y="32.1103" width="4.05933" height="4.87983" filterUnits="userSpaceOnUse" color-interpolation-filters="sRGB">
<feFlood flood-opacity="0" result="BackgroundImageFix"/>
<feBlend mode="normal" in="SourceGraphic" in2="BackgroundImageFix" result="shape"/>
<feColorMatrix in="SourceAlpha" type="matrix" values="0 0 0 0 0 0 0 0 0 0 0 0 0 0 0 0 0 0 127 0" result="hardAlpha"/>
<feOffset dy="-0.8205"/>
<feGaussianBlur stdDeviation="0.41025"/>
<feComposite in2="hardAlpha" operator="arithmetic" k2="-1" k3="1"/>
<feColorMatrix type="matrix" values="0 0 0 0 0.807843 0 0 0 0 0.827451 0 0 0 0 0.882353 0 0 0 1 0"/>
<feBlend mode="normal" in2="shape" result="effect1_innerShadow_10_842"/>
</filter>
<filter id="filter3_i_10_842" x="21.0323" y="-1.18595" width="20.2966" height="25.9962" filterUnits="userSpaceOnUse" color-interpolation-filters="sRGB">
<feFlood flood-opacity="0" result="BackgroundImageFix"/>
<feBlend mode="normal" in="SourceGraphic" in2="BackgroundImageFix" result="shape"/>
<feColorMatrix in="SourceAlpha" type="matrix" values="0 0 0 0 0 0 0 0 0 0 0 0 0 0 0 0 0 0 127 0" result="hardAlpha"/>
<feOffset dy="-1.641"/>
<feGaussianBlur stdDeviation="0.8205"/>
<feComposite in2="hardAlpha" operator="arithmetic" k2="-1" k3="1"/>
<feColorMatrix type="matrix" values="0 0 0 0 0.807843 0 0 0 0 0.827451 0 0 0 0 0.882353 0 0 0 1 0"/>
<feBlend mode="normal" in2="shape" result="effect1_innerShadow_10_842"/>
</filter>
<linearGradient id="paint0_linear_10_842" x1="19.0038" y1="28.8697" x2="19.0038" y2="39.018" gradientUnits="userSpaceOnUse">
<stop stop-color="#FAFEFE"/>
<stop offset="1" stop-color="#E1E5F4"/>
</linearGradient>
<linearGradient id="paint1_linear_10_842" x1="6.82499" y1="20.7544" x2="6.82499" y2="24.8137" gradientUnits="userSpaceOnUse">
<stop stop-color="#FAFEFE"/>
<stop offset="1" stop-color="#E1E5F4"/>
</linearGradient>
<linearGradient id="paint2_linear_10_842" x1="19.0012" y1="32.9308" x2="19.0012" y2="36.9901" gradientUnits="userSpaceOnUse">
<stop stop-color="#FAFEFE"/>
<stop offset="1" stop-color="#E1E5F4"/>
</linearGradient>
<linearGradient id="paint3_linear_10_842" x1="31.1806" y1="0.455048" x2="31.1806" y2="24.8103" gradientUnits="userSpaceOnUse">
<stop stop-color="#FAFEFE"/>
<stop offset="1" stop-color="#E1E5F4"/>
</linearGradient>
<linearGradient id="paint4_linear_10_842" x1="11.7244" y1="33.5876" x2="11.7244" y2="36.3033" gradientUnits="userSpaceOnUse">
<stop stop-color="#FAFEFE"/>
<stop offset="1" stop-color="#E1E5F4"/>
</linearGradient>
<linearGradient id="paint5_linear_10_842" x1="26.394" y1="33.5876" x2="26.394" y2="36.3033" gradientUnits="userSpaceOnUse">
<stop stop-color="#FAFEFE"/>
<stop offset="1" stop-color="#E1E5F4"/>
</linearGradient>
</defs>
</svg>
