<svg width="2" height="9" viewBox="0 0 2 9" fill="none" xmlns="http://www.w3.org/2000/svg">
<path d="M1.00733 0.0249023C0.464026 0.0249023 0.0195007 0.469427 0.0195007 1.01274C0.0195007 1.55604 0.464026 2.00057 1.00733 2.00057C1.55064 2.00057 1.99517 1.55604 1.99517 1.01274C1.99517 0.469427 1.55064 0.0249023 1.00733 0.0249023ZM1.00733 6.93974C0.464026 6.93974 0.0195007 7.38426 0.0195007 7.92757C0.0195007 8.47088 0.464026 8.9154 1.00733 8.9154C1.55064 8.9154 1.99517 8.47088 1.99517 7.92757C1.99517 7.38426 1.55064 6.93974 1.00733 6.93974ZM1.00733 3.48232C0.464026 3.48232 0.0195007 3.92684 0.0195007 4.47015C0.0195007 5.01346 0.464026 5.45799 1.00733 5.45799C1.55064 5.45799 1.99517 5.01346 1.99517 4.47015C1.99517 3.92684 1.55064 3.48232 1.00733 3.48232Z" fill="white"/>
</svg>
