<svg width="17" height="11" viewBox="0 0 17 11" fill="none" xmlns="http://www.w3.org/2000/svg">
<path d="M16.1684 6.08371L16.1684 6.08366C16.1954 6.0261 16.2094 5.96391 16.2094 5.90109C16.2094 5.83827 16.1954 5.77608 16.1684 5.71852L16.1684 5.71847C16.1469 5.67248 15.5994 4.52178 14.3813 3.36784C12.7593 1.83177 10.7109 1.01973 8.45564 1.01973C6.20035 1.01973 4.15201 1.83177 2.52995 3.36784C1.31191 4.52178 0.764374 5.67248 0.742864 5.71847L0.742841 5.71852C0.715829 5.77608 0.701914 5.83827 0.701914 5.90109C0.701914 5.96391 0.715829 6.0261 0.742841 6.08366L0.74286 6.08365L0.743383 6.08487C0.761812 6.12767 1.31169 7.28082 2.52996 8.43496C4.15201 9.97165 6.20035 10.7837 8.45564 10.7837C10.7109 10.7837 12.7593 9.97165 14.3813 8.43496C15.5994 7.28103 16.1469 6.12971 16.1684 6.08371ZM3.23555 3.97957L3.2356 3.97952C4.6892 2.6148 6.44594 1.92228 8.45564 1.92228C12.6638 1.92228 14.7148 5.04971 15.1851 5.88152L15.1966 5.90191L15.1849 5.9222C14.7814 6.6219 14.273 7.26243 13.6757 7.82388L13.6757 7.82389C12.2221 9.18861 10.4653 9.88113 8.45564 9.88113C6.44594 9.88113 4.6892 9.18861 3.2356 7.82389L3.23555 7.82385C2.6393 7.26227 2.13202 6.62173 1.72958 5.92216L1.71781 5.9017L1.72958 5.88124C2.13213 5.18175 2.63939 4.54123 3.23555 3.97957ZM6.74537 8.32304C7.25142 8.64337 7.84659 8.81447 8.4556 8.81448C9.27208 8.81368 10.0545 8.50603 10.6312 7.95968C11.2078 7.4134 11.5317 6.67321 11.5325 5.90166C11.5325 5.32609 11.3524 4.76326 11.0146 4.28431C10.6767 3.80532 10.1963 3.43167 9.63382 3.21094C9.07132 2.99021 8.45224 2.93243 7.85496 3.04498C7.25769 3.15753 6.70934 3.4353 6.27916 3.84284C5.84901 4.25035 5.55634 4.76929 5.4378 5.33388C5.31926 5.89845 5.38007 6.48368 5.61266 7.01564C5.84526 7.54764 6.23933 8.00271 6.74537 8.32304ZM7.27889 4.22971C7.62739 4.00911 8.03689 3.89148 8.45564 3.89148C9.0171 3.89148 9.55599 4.10276 9.95365 4.47949C10.3514 4.85629 10.5753 5.36782 10.5753 5.90171C10.5753 6.2998 10.4506 6.68876 10.2175 7.01938C9.98429 7.34997 9.65312 7.60732 9.26607 7.7592C8.87903 7.91108 8.45327 7.95079 8.04253 7.87339C7.63178 7.79598 7.25419 7.60488 6.95763 7.32392C6.66104 7.04295 6.45879 6.68468 6.37683 6.29431C6.29486 5.90391 6.33695 5.49929 6.49767 5.13169C6.65838 4.76413 6.93037 4.45033 7.27889 4.22971Z" fill="#FE3C72" stroke="#27242C" stroke-width="0.08205"/>
</svg>
