<svg width="7" height="8" viewBox="0 0 7 8" fill="none" xmlns="http://www.w3.org/2000/svg">
<path d="M3.35848 0.55954C3.7937 0.55954 4.21109 0.73243 4.51884 1.04018C4.82659 1.34792 4.99948 1.76532 4.99948 2.20054C4.99948 2.63576 4.82659 3.05315 4.51884 3.3609C4.21109 3.66865 3.7937 3.84154 3.35848 3.84154C2.92326 3.84154 2.50586 3.66865 2.19811 3.3609C1.89037 3.05315 1.71748 2.63576 1.71748 2.20054C1.71748 1.76532 1.89037 1.34792 2.19811 1.04018C2.50586 0.73243 2.92326 0.55954 3.35848 0.55954ZM3.35848 4.66204C5.17178 4.66204 6.64048 5.39639 6.64048 6.30304V7.12354H0.0764771V6.30304C0.0764771 5.39639 1.54517 4.66204 3.35848 4.66204Z" fill="#BDBDBD"/>
</svg>
