<svg width="11" height="10" viewBox="0 0 11 10" fill="none" xmlns="http://www.w3.org/2000/svg">
<path d="M7.60002 0.274536C9.09563 0.274536 10.3077 1.4942 10.3077 3.20173C10.3077 6.61678 6.61542 8.56824 5.38467 9.30004C4.15392 8.56824 0.46167 6.61678 0.46167 3.20173C0.46167 1.4942 1.69242 0.274536 3.16932 0.274536C4.085 0.274536 4.89237 0.762401 5.38467 1.25027C5.87697 0.762401 6.68434 0.274536 7.60002 0.274536ZM5.84448 7.88718C6.27819 7.61593 6.66957 7.34614 7.03584 7.05732C8.50339 5.90108 9.32307 4.63751 9.32307 3.20173C9.32307 2.05036 8.5664 1.25027 7.60002 1.25027C7.0703 1.25027 6.49727 1.52835 6.08078 1.94011L5.38467 2.62995L4.68856 1.94011C4.27207 1.52835 3.69903 1.25027 3.16932 1.25027C2.21426 1.25027 1.44627 2.05817 1.44627 3.20173C1.44627 4.638 2.26644 5.90108 3.733 7.05732C4.09977 7.34614 4.49115 7.61593 4.92486 7.88669C5.07206 7.9789 5.21778 8.0672 5.38467 8.16575C5.55156 8.0672 5.69728 7.9789 5.84448 7.88718Z" fill="white"/>
</svg>
