<?xml version="1.0" encoding="UTF-8"?>
<svg xmlns="http://www.w3.org/2000/svg" xmlns:xlink="http://www.w3.org/1999/xlink" width="11px" height="13px" viewBox="0 0 14 16" version="1.1">
<g id="surface1">
<path style=" stroke:none;fill-rule:nonzero;fill:rgb(99.607843%,23.529412%,44.705882%);fill-opacity:1;" d="M 0.898438 12.6875 L 13.992188 12.6875 L 13.992188 13.972656 L 0.898438 13.972656 Z M 2.207031 7.558594 L 3.515625 7.558594 L 3.515625 12.046875 L 2.207031 12.046875 Z M 5.480469 7.558594 L 6.792969 7.558594 L 6.792969 12.046875 L 5.480469 12.046875 Z M 8.101562 7.558594 L 9.410156 7.558594 L 9.410156 12.046875 L 8.101562 12.046875 Z M 11.375 7.558594 L 12.683594 7.558594 L 12.683594 12.046875 L 11.375 12.046875 Z M 0.898438 4.351562 L 7.445312 1.144531 L 13.992188 4.351562 L 13.992188 6.914062 L 0.898438 6.914062 Z M 2.207031 5.144531 L 2.207031 5.632812 L 12.683594 5.632812 L 12.683594 5.144531 L 7.445312 2.578125 Z M 7.445312 4.992188 C 7.273438 4.992188 7.105469 4.921875 6.984375 4.804688 C 6.859375 4.683594 6.792969 4.519531 6.792969 4.351562 C 6.792969 4.179688 6.859375 4.015625 6.984375 3.894531 C 7.105469 3.777344 7.273438 3.707031 7.445312 3.707031 C 7.621094 3.707031 7.785156 3.777344 7.910156 3.894531 C 8.03125 4.015625 8.101562 4.179688 8.101562 4.351562 C 8.101562 4.519531 8.03125 4.683594 7.910156 4.804688 C 7.785156 4.921875 7.621094 4.992188 7.445312 4.992188 Z M 7.445312 4.992188 "/>
</g>
</svg>
