<svg fill="#bdbdbd" width="14px" height="16px" viewBox="0 0 8 6" xmlns="http://www.w3.org/2000/svg">
<path d="M5.94026 2.74555C6.05111 2.93793 6.2335 3.0787 6.44769 3.1372C6.66188 3.1957 6.8905 3.16719 7.08376 3.05787C7.10649 3.26094 7.06531 3.46604 6.96597 3.6446C6.86663 3.82316 6.71408 3.96629 6.52955 4.05405L6.52927 5.83231H4.56497V5.27108C4.56501 5.12949 4.51154 4.99311 4.41526 4.88929C4.31899 4.78547 4.18702 4.72187 4.04583 4.71125L4.00374 4.70985C3.86215 4.70981 3.72577 4.76328 3.62195 4.85956C3.51813 4.95583 3.45453 5.08779 3.44391 5.22899L3.44251 5.27108V5.83231H1.47821V4.05434C1.29333 3.9667 1.14043 3.82351 1.04087 3.64476C0.94131 3.46602 0.900058 3.26064 0.922876 3.05731C1.11612 3.16685 1.34483 3.19555 1.55914 3.13715C1.77346 3.07875 1.95599 2.93798 2.06694 2.74555H5.94026ZM5.66778 3.30678H2.33942L2.31809 3.32895C2.19714 3.44681 2.05572 3.54221 1.9011 3.61012L1.87416 3.62107L2.03944 3.69964L2.03916 5.27108L2.88156 5.2708V5.25059L2.88437 5.18802C2.92618 4.6223 3.38386 4.17809 3.96586 4.15031L4.02422 4.1489L4.0868 4.15171C4.35959 4.17194 4.61561 4.2911 4.80674 4.48678C4.99788 4.68246 5.11098 4.9412 5.12479 5.2144L5.12592 5.2708L5.96804 5.27108L5.96832 3.69964L6.13304 3.62107L6.10638 3.60984C5.95161 3.54207 5.81035 3.44691 5.68939 3.32895L5.66778 3.30678ZM5.41691 0.78125C5.43699 0.920463 5.48672 1.05374 5.56276 1.17207C5.6388 1.29039 5.73937 1.391 5.85766 1.4671C5.97595 1.54319 6.10921 1.59299 6.24841 1.61313C6.38761 1.63326 6.52952 1.62326 6.66452 1.58381C6.6405 1.81632 6.53433 2.03264 6.36511 2.19389C6.19589 2.35514 5.9747 2.45075 5.7413 2.46353L5.68743 2.46494H2.32005C2.07703 2.46497 1.84263 2.37492 1.66216 2.21217C1.48168 2.04942 1.36795 1.82554 1.34296 1.58381C1.47796 1.62326 1.61986 1.63326 1.75907 1.61313C1.89827 1.59299 2.03153 1.54319 2.14982 1.4671C2.26811 1.391 2.36868 1.29039 2.44472 1.17207C2.52076 1.05374 2.57049 0.920463 2.59057 0.78125H5.41691ZM5.01395 1.34248H2.99325C2.89215 1.54044 2.74953 1.71426 2.57513 1.85207L2.50554 1.90371H5.50166L5.49829 1.90146C5.3178 1.77386 5.16671 1.6091 5.0552 1.41824L5.01395 1.34248Z" />
</svg>
