<svg width="14" height="17" viewBox="0 0 14 17" fill="none" xmlns="http://www.w3.org/2000/svg">
<path d="M0.776232 12.048H2.30147C3.09459 12.048 3.8267 11.743 4.37579 11.1939L10.6598 4.9099C11.5749 3.99476 11.5749 2.46952 10.6598 1.55438C10.2327 1.0663 9.6226 0.822266 9.01251 0.822266C8.40241 0.822266 7.79232 1.0663 7.30424 1.49337L1.02027 7.83835C0.471185 8.38744 0.166138 9.18056 0.166138 9.97368V11.4989C0.166138 11.804 0.471185 12.048 0.776232 12.048ZM1.38633 9.91267C1.38633 9.4246 1.56936 8.99753 1.8744 8.69248L6.87718 3.68971L7.73131 4.48283C7.85333 4.60485 8.03636 4.66586 8.15838 4.66586C8.3414 4.66586 8.46342 4.60485 8.58544 4.48283C8.82948 4.23879 8.82948 3.87274 8.58544 3.6287L7.73131 2.77457L8.15838 2.3475C8.40241 2.16447 8.70746 2.04245 9.01251 2.04245C9.31755 2.04245 9.6226 2.16447 9.80563 2.40851C10.2327 2.83558 10.2327 3.6287 9.80563 4.05577L3.52166 10.3397C3.21661 10.6448 2.72853 10.8278 2.30147 10.8278H1.38633V9.91267Z" fill="white"/>
<path d="M1.17942 14.2615C1.18509 14.3841 1.40737 14.4814 1.47804 14.5316C1.95419 14.8696 2.45962 15.3273 3.02823 15.5026C4.27507 15.8868 5.8508 15.2423 6.85067 14.5227C7.71004 13.9043 8.44635 13.3094 9.45421 12.9496C10.4828 12.5824 11.6654 12.8867 12.6988 13.1076" stroke="white" stroke-width="1.641" stroke-linecap="round"/>
</svg>
