<svg width="1em" height="1em" viewBox="0 0 10 10" fill="none" xmlns="http://www.w3.org/2000/svg">
    <path
        d="M1.93895 4.18713C1.38666 4.18713 0.938946 3.73942 0.938946 3.18713V1.18713C0.938946 0.634849 1.38666 0.187134 1.93895 0.187134H3.93895C4.49123 0.187134 4.93895 0.634849 4.93895 1.18713V3.18713C4.93895 3.73942 4.49123 4.18713 3.93895 4.18713H1.93895ZM1.93895 9.18713C1.38666 9.18713 0.938946 8.73942 0.938946 8.18713V6.18713C0.938946 5.63485 1.38666 5.18713 1.93895 5.18713H3.93895C4.49123 5.18713 4.93895 5.63485 4.93895 6.18713V8.18713C4.93895 8.73942 4.49123 9.18713 3.93895 9.18713H1.93895ZM6.93895 4.18713C6.38666 4.18713 5.93895 3.73942 5.93895 3.18713V1.18713C5.93895 0.634849 6.38666 0.187134 6.93895 0.187134H8.93895C9.49123 0.187134 9.93895 0.634849 9.93895 1.18713V3.18713C9.93895 3.73942 9.49123 4.18713 8.93895 4.18713H6.93895ZM6.93895 9.18713C6.38666 9.18713 5.93895 8.73942 5.93895 8.18713V6.18713C5.93895 5.63485 6.38666 5.18713 6.93895 5.18713H8.93895C9.49123 5.18713 9.93895 5.63485 9.93895 6.18713V8.18713C9.93895 8.73942 9.49123 9.18713 8.93895 9.18713H6.93895Z"
        fill="#D9D9D9"
    />
</svg>
