<svg width="41" height="42" viewBox="0 0 41 42" fill="none" xmlns="http://www.w3.org/2000/svg">
<g transform="scale(0.5, 0.5)" style="transform-origin: 50% 50%">
<g filter="url(#filter0_ddf_2_37)">
<rect x="0.683105" width="39.3846" height="37.9305" rx="18.9653" fill="url(#paint0_linear_2_37)" fill-opacity="0.81" shape-rendering="geometricPrecision"/>
</g>
<g filter="url(#filter1_ddf_2_37)">
<rect x="0.683105" y="1.51724" width="39.3846" height="37.9305" rx="18.7515" fill="url(#paint1_linear_2_37)" fill-opacity="0.81" shape-rendering="geometricPrecision"/>
</g>
<path d="M24.038 12.2667C22.5773 12.2667 21.2859 12.8565 20.3333 13.9523C19.3808 12.8565 18.0893 12.2667 16.6287 12.2667C13.9357 12.2667 11.6769 14.5043 11.6769 17.1739V17.1749V17.1759V17.1769V17.1779V17.1789V17.1799V17.1809V17.1819V17.1829V17.1839V17.1849V17.1859V17.1869V17.1879V17.1889V17.1899V17.1909V17.1919V17.1929V17.1939V17.1949V17.1959V17.1969V17.1979V17.1989V17.1999V17.2009V17.2019V17.2029V17.2039V17.2049V17.2059V17.2069V17.2079V17.2089V17.2099V17.2109V17.2119V17.2129V17.2139V17.2149V17.2159V17.2169V17.2179V17.2189V17.2199V17.2209V17.2219V17.2229V17.2239V17.2249V17.2259V17.2269V17.2279V17.2289V17.2299V17.2309V17.2319V17.2329V17.2339V17.2349V17.2359V17.2369V17.2379V17.2389V17.2399V17.2409V17.2419V17.2429V17.2439V17.2449V17.2459V17.2469V17.2479V17.2489V17.2499V17.2509V17.2519V17.2529V17.2539V17.2549V17.2559V17.2569V17.2579V17.2589V17.2599V17.2609V17.2619V17.2629V17.2639V17.2649V17.2659V17.2669V17.2679V17.2689V17.2699V17.2709V17.2719V17.2729V17.2739V17.2749V17.2759V17.2769V17.2779V17.2789V17.2799V17.2809V17.2819V17.2829V17.2839V17.2849V17.2859V17.2869V17.2879V17.2889V17.2899V17.2909V17.2919V17.2929V17.2939V17.2949V17.2959V17.2969V17.2979V17.2989V17.2999V17.3009V17.3019V17.3029V17.3039V17.3049V17.3059V17.3069V17.3079V17.3089V17.3099V17.3109V17.3119V17.3129V17.3139V17.3149V17.3159V17.3169V17.3179V17.3189V17.3199V17.3209V17.3219V17.3229V17.3239V17.3249V17.3259V17.3269V17.3279V17.3289V17.3299V17.3309V17.3319V17.3329V17.3339V17.3349V17.3359V17.3369V17.3379V17.3389V17.3399V17.3409V17.3419V17.3429V17.344V17.345V17.346V17.347V17.348V17.349V17.35V17.351V17.352V17.353V17.354V17.355V17.356V17.357V17.358V17.359V17.36V17.361V17.362V17.363V17.364V17.365V17.366V17.367V17.368V17.369V17.37V17.371V17.372V17.373V17.374V17.375V17.376V17.377V17.378V17.379V17.38V17.381V17.382V17.383V17.384V17.385V17.386V17.387V17.388V17.389V17.39V17.391V17.392V17.393V17.394V17.395V17.396V17.397V17.398V17.399V17.4V17.401V17.402V17.403V17.404V17.405V17.406V17.407V17.408V17.409V17.41V17.411V17.412V17.413V17.414V17.415V17.416V17.417V17.418V17.419V17.42V17.421V17.422V17.423V17.424V17.425V17.426V17.427V17.428V17.429V17.43V17.431V17.432V17.433V17.434V17.435V17.436V17.437V17.438V17.439V17.44V17.441V17.442V17.443V17.444V17.445V17.446V17.447V17.448V17.449V17.45V17.451V17.452V17.453V17.454V17.455V17.456V17.457V17.458V17.459V17.46V17.461V17.462V17.463V17.464V17.465V17.466V17.467V17.468V17.469V17.47V17.471V17.472V17.473V17.474V17.475V17.476V17.477V17.478V17.479V17.48V17.481V17.482V17.483V17.484V17.485V17.486V17.487V17.488V17.489V17.49V17.491V17.492V17.493V17.494V17.495V17.496V17.497V17.498V17.499V17.5V17.501V17.502V17.503V17.504V17.505V17.506V17.507V17.508V17.509V17.51V17.511V17.512V17.513V17.514V17.515V17.516V17.517V17.518V17.519V17.52V17.521V17.522V17.523V17.524V17.525V17.526V17.527V17.528V17.529V17.53V17.531V17.532V17.533V17.534V17.535V17.536V17.537V17.538V17.539V17.5401V17.5411V17.5421V17.5431V17.5441V17.5451V17.5461V17.5471V17.5481V17.5491V17.5501V17.5511V17.5521V17.5531V17.5541V17.5551V17.5561V17.5571V17.5581V17.5591V17.5601V17.5611V17.5621V17.5631V17.5641V17.5651V17.5661V17.5671V17.5681V17.5691V17.5701V17.5711V17.5721V17.5731V17.5741V17.5751V17.5761V17.5771V17.5781V17.5791V17.5801V17.5811V17.5821V17.5831V17.5841V17.5851V17.5861V17.5871V17.5881V17.5891V17.5901V17.5911V17.5921V17.5931V17.5941V17.5951V17.5961V17.5971V17.5981V17.5991V17.6001V17.6011V17.6021V17.6031V17.6041V17.6051V17.6061V17.6071V17.6081V17.6091V17.6101V17.6111V17.6121V17.6131V17.6141V17.6151V17.6161V17.6171V17.6181V17.6191V17.6201V17.6211V17.6221V17.6231V17.6241V17.6251V17.6261V17.6271V17.6281V17.6291V17.6301V17.6311V17.6321V17.6331V17.6341V17.6351V17.6361V17.6371V17.6381V17.6391V17.6401V17.6411V17.6421V17.6431V17.6441V17.6451V17.6461V17.6471V17.6481V17.6491V17.6501V17.6511V17.6521V17.6531V17.6541V17.6551V17.6561V17.6571V17.6581V17.6591V17.6601V17.6611V17.6621V17.6631V17.6641V17.6651V17.6661V17.6671V17.6681V17.6691V17.6701V17.6711V17.6721V17.6731V17.6741V17.6751V17.6761V17.6771V17.6781V17.6791V17.6801V17.6811V17.6821V17.6831V17.6841V17.6851V17.6861H11.6768L11.6771 17.6897C11.8505 19.7091 13.0206 21.5529 14.4556 23.0924C15.8912 24.6326 17.5958 25.8726 18.8464 26.6845L18.8464 26.6845L18.8478 26.6854C19.2836 26.9445 19.8077 27.118 20.3333 27.118C20.859 27.118 21.3831 26.9445 21.8189 26.6854L21.8189 26.6854L21.8203 26.6845C23.0709 25.8726 24.7755 24.6326 26.2109 23.1032C27.6458 21.5745 28.8161 19.752 28.9896 17.775L28.9898 17.7751V17.7715V17.7705V17.7695V17.7685V17.7675V17.7665V17.7655V17.7645V17.7635V17.7625V17.7615V17.7605V17.7595V17.7585V17.7575V17.7565V17.7555V17.7544V17.7534V17.7524V17.7514V17.7504V17.7494V17.7484V17.7474V17.7464V17.7454V17.7444V17.7434V17.7424V17.7414V17.7404V17.7394V17.7384V17.7374V17.7364V17.7354V17.7344V17.7334V17.7324V17.7314V17.7304V17.7294V17.7284V17.7274V17.7264V17.7254V17.7244V17.7234V17.7224V17.7214V17.7204V17.7194V17.7184V17.7174V17.7164V17.7154V17.7144V17.7134V17.7124V17.7114V17.7104V17.7094V17.7084V17.7074V17.7064V17.7054V17.7044V17.7034V17.7024V17.7014V17.7004V17.6994V17.6984V17.6974V17.6964V17.6954V17.6944V17.6934V17.6924V17.6914V17.6904V17.6894V17.6884V17.6874V17.6864V17.6854V17.6844V17.6834V17.6824V17.6814V17.6804V17.6794V17.6784V17.6774V17.6764V17.6754V17.6744V17.6734V17.6724V17.6714V17.6704V17.6694V17.6684V17.6674V17.6664V17.6654V17.6644V17.6634V17.6624V17.6614V17.6604V17.6594V17.6584V17.6574V17.6564V17.6554V17.6544V17.6534V17.6524V17.6514V17.6504V17.6494V17.6484V17.6474V17.6464V17.6454V17.6444V17.6434V17.6424V17.6414V17.6404V17.6394V17.6384V17.6374V17.6364V17.6354V17.6344V17.6334V17.6324V17.6314V17.6304V17.6294V17.6284V17.6274V17.6264V17.6254V17.6244V17.6234V17.6224V17.6214V17.6204V17.6194V17.6184V17.6174V17.6164V17.6154V17.6144V17.6134V17.6124V17.6114V17.6104V17.6094V17.6084V17.6074V17.6064V17.6054V17.6044V17.6034V17.6024V17.6014V17.6004V17.5994V17.5984V17.5974V17.5964V17.5954V17.5944V17.5934V17.5924V17.5914V17.5904V17.5894V17.5884V17.5874V17.5864V17.5854V17.5844V17.5834V17.5824V17.5814V17.5804V17.5794V17.5784V17.5774V17.5764V17.5754V17.5744V17.5734V17.5724V17.5714V17.5704V17.5694V17.5684V17.5674V17.5664V17.5654V17.5644V17.5634V17.5624V17.5614V17.5604V17.5594V17.5584V17.5574V17.5564V17.5554V17.5544V17.5534V17.5524V17.5514V17.5504V17.5494V17.5484V17.5474V17.5464V17.5454V17.5444V17.5434V17.5424V17.5414V17.5404V17.5394V17.5384V17.5374V17.5364V17.5354V17.5344V17.5334V17.5324V17.5314V17.5304V17.5294V17.5284V17.5274V17.5264V17.5254V17.5244V17.5234V17.5224V17.5214V17.5204V17.5194V17.5184V17.5174V17.5164V17.5154V17.5144V17.5134V17.5124V17.5114V17.5104V17.5094V17.5084V17.5074V17.5064V17.5054V17.5044V17.5034V17.5024V17.5014V17.5004V17.4994V17.4984V17.4973V17.4963V17.4953V17.4943V17.4933V17.4923V17.4913V17.4903V17.4893V17.4883V17.4873V17.4863V17.4853V17.4843V17.4833V17.4823V17.4813V17.4803V17.4793V17.4783V17.4773V17.4763V17.4753V17.4743V17.4733V17.4723V17.4713V17.4703V17.4693V17.4683V17.4673V17.4663V17.4653V17.4643V17.4633V17.4623V17.4613V17.4603V17.4593V17.4583V17.4573V17.4563V17.4553V17.4543V17.4533V17.4523V17.4513V17.4503V17.4493V17.4483V17.4473V17.4463V17.4453V17.4443V17.4433V17.4423V17.4413V17.4403V17.4393V17.4383V17.4373V17.4363V17.4353V17.4343V17.4333V17.4323V17.4313V17.4303V17.4293V17.4283V17.4273V17.4263V17.4253V17.4243V17.4233V17.4223V17.4213V17.4203V17.4193V17.4183V17.4173V17.4163V17.4153V17.4143V17.4133V17.4123V17.4113V17.4103V17.4093V17.4083V17.4073V17.4063V17.4053V17.4043V17.4033V17.4023V17.4013V17.4003V17.3993V17.3983V17.3973V17.3963V17.3953V17.3943V17.3933V17.3923V17.3913V17.3903V17.3893V17.3883V17.3873V17.3863V17.3853V17.3843V17.3833V17.3823V17.3813V17.3803V17.3793V17.3783V17.3773V17.3763V17.3753V17.3743V17.3733V17.3723V17.3713V17.3703V17.3693V17.3683V17.3673V17.3663V17.3653V17.3643V17.3633V17.3623V17.3613V17.3603V17.3593V17.3583V17.3573V17.3563V17.3553V17.3543V17.3533V17.3523V17.3513V17.3503V17.3493V17.3483V17.3473V17.3463V17.3453V17.3443V17.3433V17.3423V17.3413V17.3403V17.3393V17.3383V17.3373V17.3363V17.3353V17.3343V17.3333V17.3323V17.3313V17.3303V17.3293V17.3283V17.3273V17.3263V17.3253V17.3243V17.3233V17.3223V17.3213V17.3203V17.3193V17.3183V17.3173V17.3163V17.3153V17.3143V17.3133V17.3123V17.3113V17.3103V17.3093V17.3083V17.3073V17.3063V17.3053V17.3043V17.3033V17.3023V17.3013V17.3003V17.2993V17.2983V17.2973V17.2963V17.2953V17.2943V17.2933V17.2923V17.2913V17.2903V17.2893V17.2883V17.2873V17.2863V17.2853V17.2843V17.2833V17.2823V17.2813V17.2803V17.2792V17.2782V17.2772V17.2762V17.2752V17.2742V17.2732V17.2722V17.2712V17.2702V17.2692V17.2682V17.2672V17.2662V17.2652V17.2642V17.2632V17.2622V17.2612V17.2602V17.2592C28.9898 14.5048 26.7315 12.2667 24.038 12.2667ZM27.1846 17.5133V17.5138C27.056 19.2056 25.9236 20.8181 24.5905 22.1497C23.259 23.4798 21.7337 24.5232 20.8304 25.0775C20.4986 25.2413 20.1687 25.2414 19.8369 25.0778C18.933 24.4805 17.4294 23.4159 16.1087 22.0753C14.7865 20.7331 13.6536 19.1203 13.4821 17.4279V17.4278V17.4277V17.4275V17.4274V17.4273V17.4271V17.427V17.4268V17.4267V17.4265V17.4264V17.4262V17.426V17.4259V17.4257V17.4255V17.4253V17.4252V17.425V17.4248V17.4246V17.4244V17.4242V17.424V17.4238V17.4236V17.4234V17.4231V17.4229V17.4227V17.4225V17.4223V17.422V17.4218V17.4215V17.4213V17.4211V17.4208V17.4206V17.4203V17.4201V17.4198V17.4195V17.4193V17.419V17.4187V17.4185V17.4182V17.4179V17.4176V17.4173V17.417V17.4167V17.4164V17.4162V17.4159V17.4155V17.4152V17.4149V17.4146V17.4143V17.414V17.4137V17.4133V17.413V17.4127V17.4124V17.412V17.4117V17.4113V17.411V17.4106V17.4103V17.4099V17.4096V17.4092V17.4089V17.4085V17.4082V17.4078V17.4074V17.407V17.4067V17.4063V17.4059V17.4055V17.4051V17.4048V17.4044V17.404V17.4036V17.4032V17.4028V17.4024V17.402V17.4016V17.4012V17.4007V17.4003V17.3999V17.3995V17.3991V17.3986V17.3982V17.3978V17.3974V17.3969V17.3965V17.396V17.3956V17.3952V17.3947V17.3943V17.3938V17.3934V17.3929V17.3925V17.392V17.3915V17.3911V17.3906V17.3901V17.3897V17.3892V17.3887V17.3883V17.3878V17.3873V17.3868V17.3863V17.3858V17.3854V17.3849V17.3844V17.3839V17.3834V17.3829V17.3824V17.3819V17.3814V17.3809V17.3804V17.3799V17.3793V17.3788V17.3783V17.3778V17.3773V17.3768V17.3762V17.3757V17.3752V17.3747V17.3741V17.3736V17.3731V17.3725V17.372V17.3715V17.3709V17.3704V17.3698V17.3693V17.3687V17.3682V17.3676V17.3671V17.3665V17.366V17.3654V17.3649V17.3643V17.3637V17.3632V17.3626V17.3621V17.3615V17.3609V17.3603V17.3598V17.3592V17.3586V17.358V17.3575V17.3569V17.3563V17.3557V17.3551V17.3546V17.354V17.3534V17.3528V17.3522V17.3516V17.351V17.3504V17.3498V17.3492V17.3486V17.348V17.3474V17.3468V17.3462V17.3456V17.345V17.3444V17.3438V17.3432V17.3426V17.342V17.3414V17.3408V17.3401V17.3395V17.3389V17.3383V17.3377V17.3371V17.3364V17.3358V17.3352V17.3346V17.3339V17.3333V17.3327V17.3321V17.3314V17.3308V17.3302V17.3295V17.3289V17.3283V17.3276V17.327V17.3264V17.3257V17.3251V17.3245V17.3238V17.3232V17.3225V17.3219V17.3213V17.3206V17.32V17.3193V17.3187V17.318V17.3174V17.3167V17.3161V17.3154V17.3148V17.3141V17.3135V17.3128V17.3122V17.3115V17.3109V17.3102V17.3096V17.3089V17.3083V17.3076V17.307V17.3063V17.3056V17.305V17.3043V17.3037V17.303V17.3024V17.3017V17.301V17.3004V17.2997V17.2991V17.2984V17.2977V17.2971V17.2964V17.2957V17.2951V17.2944V17.2938V17.2931V17.2924V17.2918V17.2911V17.2904V17.2898V17.2891V17.2884V17.2878V17.2871V17.2864V17.2858V17.2851V17.2844V17.2838V17.2831V17.2824V17.2818V17.2811V17.2804V17.2798V17.2791V17.2784V17.2778V17.2771V17.2764V17.2758V17.2751V17.2744V17.2738V17.2731V17.2724V17.2718V17.2711V17.2704V17.2698V17.2691V17.2684V17.2678V17.2671V17.2664V17.2658V17.2651V17.2644V17.2638V17.2631V17.2625V17.2618V17.2611V17.2605V17.2598V17.2591V17.2585V17.2578V17.2572V17.2565V17.2558V17.2552V17.2545V17.2539V17.2532V17.2525V17.2519V17.2512V17.2506V17.2499V17.2492V17.2486V17.2479V17.2473V17.2466V17.246V17.2453V17.2447V17.244V17.2434V17.2427V17.2421V17.2414V17.2408V17.2401V17.2395V17.2388V17.2382V17.2375V17.2369V17.2362V17.2356V17.235V17.2343V17.2337V17.233V17.2324V17.2318V17.2311V17.2305V17.2298V17.2292V17.2286V17.2279V17.2273V17.2267V17.226V17.2254V17.2248V17.2242V17.2235V17.2229V17.2223V17.2217V17.221V17.2204V17.2198V17.2192V17.2185V17.2179V17.2173V17.2167V17.2161V17.2155V17.2149V17.2142V17.2136V17.213V17.2124V17.2118V17.2112V17.2106V17.21V17.2094V17.2088V17.2082V17.2076V17.207V17.2064V17.2058V17.2052V17.2046V17.204V17.2034V17.2028V17.2023V17.2017V17.2011V17.2005V17.1999V17.1993V17.1988V17.1982V17.1976V17.197V17.1965V17.1959V17.1953V17.1948V17.1942V17.1936V17.1931V17.1925V17.1919V17.1914V17.1908V17.1903V17.1897V17.1892V17.1886V17.1881V17.1875V17.187V17.1864V17.1859V17.1853V17.1848V17.1843V17.1837V17.1832V17.1827V17.1821V17.1816V17.1811V17.1805V17.18V17.1795V17.179V17.1785V17.1779V17.1774V17.1769V17.1764V17.1759V17.1754V17.1749V17.1744V17.1739C13.4821 15.4895 14.928 14.0562 16.6287 14.0562C17.903 14.0562 19.0079 14.813 19.5192 15.9072C19.6133 16.2714 19.9797 16.4466 20.3333 16.4466C20.687 16.4466 21.0534 16.2714 21.1475 15.9072C21.6587 14.813 22.7637 14.0562 24.038 14.0562C25.7387 14.0562 27.1846 15.4895 27.1846 17.1739V17.1744V17.1749V17.1754V17.1759V17.1764V17.1769V17.1774V17.1779V17.1785V17.179V17.1795V17.18V17.1805V17.1811V17.1816V17.1821V17.1827V17.1832V17.1837V17.1843V17.1848V17.1853V17.1859V17.1864V17.187V17.1875V17.1881V17.1886V17.1892V17.1897V17.1903V17.1908V17.1914V17.192V17.1925V17.1931V17.1937V17.1942V17.1948V17.1954V17.1959V17.1965V17.1971V17.1977V17.1982V17.1988V17.1994V17.2V17.2006V17.2012V17.2018V17.2023V17.2029V17.2035V17.2041V17.2047V17.2053V17.2059V17.2065V17.2071V17.2077V17.2083V17.2089V17.2096V17.2102V17.2108V17.2114V17.212V17.2126V17.2132V17.2139V17.2145V17.2151V17.2157V17.2163V17.217V17.2176V17.2182V17.2189V17.2195V17.2201V17.2208V17.2214V17.222V17.2227V17.2233V17.2239V17.2246V17.2252V17.2259V17.2265V17.2272V17.2278V17.2285V17.2291V17.2298V17.2304V17.2311V17.2317V17.2324V17.2331V17.2337V17.2344V17.235V17.2357V17.2364V17.237V17.2377V17.2384V17.239V17.2397V17.2404V17.241V17.2417V17.2424V17.2431V17.2437V17.2444V17.2451V17.2458V17.2464V17.2471V17.2478V17.2485V17.2492V17.2499V17.2506V17.2512V17.2519V17.2526V17.2533V17.254V17.2547V17.2554V17.2561V17.2568V17.2575V17.2582V17.2589V17.2596V17.2603V17.261V17.2617V17.2624V17.2631V17.2638V17.2645V17.2652V17.2659V17.2666V17.2673V17.268V17.2687V17.2694V17.2701V17.2709V17.2716V17.2723V17.273V17.2737V17.2744V17.2751V17.2759V17.2766V17.2773V17.278V17.2787V17.2795V17.2802V17.2809V17.2816V17.2823V17.2831V17.2838V17.2845V17.2852V17.286V17.2867V17.2874V17.2881V17.2889V17.2896V17.2903V17.2911V17.2918V17.2925V17.2933V17.294V17.2947V17.2955V17.2962V17.2969V17.2977V17.2984V17.2991V17.2999V17.3006V17.3013V17.3021V17.3028V17.3036V17.3043V17.305V17.3058V17.3065V17.3073V17.308V17.3087V17.3095V17.3102V17.311V17.3117V17.3124V17.3132V17.3139V17.3147V17.3154V17.3162V17.3169V17.3177V17.3184V17.3192V17.3199V17.3206V17.3214V17.3221V17.3229V17.3236V17.3244V17.3251V17.3259V17.3266V17.3274V17.3281V17.3289V17.3296V17.3304V17.3311V17.3319V17.3326V17.3334V17.3341V17.3349V17.3356V17.3364V17.3371V17.3379V17.3386V17.3394V17.3401V17.3409V17.3416V17.3424V17.3431V17.3439V17.3446V17.3454V17.3461V17.3469V17.3476V17.3484V17.3491V17.3499V17.3506V17.3514V17.3521V17.3529V17.3536V17.3544V17.3551V17.3559V17.3566V17.3574V17.3581V17.3589V17.3596V17.3604V17.3611V17.3619V17.3626V17.3634V17.3641V17.3648V17.3656V17.3663V17.3671V17.3678V17.3686V17.3693V17.3701V17.3708V17.3716V17.3723V17.3731V17.3738V17.3745V17.3753V17.376V17.3768V17.3775V17.3783V17.379V17.3797V17.3805V17.3812V17.382V17.3827V17.3835V17.3842V17.3849V17.3857V17.3864V17.3871V17.3879V17.3886V17.3894V17.3901V17.3908V17.3916V17.3923V17.393V17.3938V17.3945V17.3952V17.396V17.3967V17.3974V17.3982V17.3989V17.3996V17.4004V17.4011V17.4018V17.4025V17.4033V17.404V17.4047V17.4054V17.4062V17.4069V17.4076V17.4083V17.4091V17.4098V17.4105V17.4112V17.4119V17.4127V17.4134V17.4141V17.4148V17.4155V17.4162V17.4169V17.4177V17.4184V17.4191V17.4198V17.4205V17.4212V17.4219V17.4226V17.4233V17.424V17.4248V17.4255V17.4262V17.4269V17.4276V17.4283V17.429V17.4297V17.4304V17.4311V17.4318V17.4325V17.4331V17.4338V17.4345V17.4352V17.4359V17.4366V17.4373V17.438V17.4387V17.4394V17.44V17.4407V17.4414V17.4421V17.4428V17.4435V17.4441V17.4448V17.4455V17.4462V17.4468V17.4475V17.4482V17.4489V17.4495V17.4502V17.4509V17.4515V17.4522V17.4529V17.4535V17.4542V17.4549V17.4555V17.4562V17.4568V17.4575V17.4581V17.4588V17.4595V17.4601V17.4608V17.4614V17.4621V17.4627V17.4633V17.464V17.4646V17.4653V17.4659V17.4666V17.4672V17.4678V17.4685V17.4691V17.4697V17.4704V17.471V17.4716V17.4723V17.4729V17.4735V17.4741V17.4747V17.4754V17.476V17.4766V17.4772V17.4778V17.4785V17.4791V17.4797V17.4803V17.4809V17.4815V17.4821V17.4827V17.4833V17.4839V17.4845V17.4851V17.4857V17.4863V17.4869V17.4875V17.4881V17.4886V17.4892V17.4898V17.4904V17.491V17.4916V17.4921V17.4927V17.4933V17.4939V17.4944V17.495V17.4956V17.4961V17.4967V17.4973V17.4978V17.4984V17.4989V17.4995V17.5001V17.5006V17.5012V17.5017V17.5023V17.5028V17.5033V17.5039V17.5044V17.505V17.5055V17.506V17.5066V17.5071V17.5076V17.5082V17.5087V17.5092V17.5097V17.5103V17.5108V17.5113V17.5118V17.5123V17.5128V17.5133Z" fill="white" stroke="white" stroke-width="0.0820513"/>
</g>
<defs>
<filter id="filter0_ddf_2_37" x="-15.2854" y="-15.9685" width="71.3217" height="69.8676" filterUnits="userSpaceOnUse" color-interpolation-filters="sRGB">
<feFlood flood-opacity="0" result="BackgroundImageFix"/>
<feColorMatrix in="SourceAlpha" type="matrix" values="0 0 0 0 0 0 0 0 0 0 0 0 0 0 0 0 0 0 127 0" result="hardAlpha"/>
<feMorphology radius="0.820513" operator="dilate" in="SourceAlpha" result="effect1_dropShadow_2_37"/>
<feOffset dy="2.55497"/>
<feGaussianBlur stdDeviation="1.27748"/>
<feComposite in2="hardAlpha" operator="out"/>
<feColorMatrix type="matrix" values="0 0 0 0 0 0 0 0 0 0 0 0 0 0 0 0 0 0 0.43 0"/>
<feBlend mode="normal" in2="BackgroundImageFix" result="effect1_dropShadow_2_37"/>
<feColorMatrix in="SourceAlpha" type="matrix" values="0 0 0 0 0 0 0 0 0 0 0 0 0 0 0 0 0 0 127 0" result="hardAlpha"/>
<feMorphology radius="5.32285" operator="dilate" in="SourceAlpha" result="effect2_dropShadow_2_37"/>
<feOffset/>
<feGaussianBlur stdDeviation="5.32285"/>
<feComposite in2="hardAlpha" operator="out"/>
<feColorMatrix type="matrix" values="0 0 0 0 0.258738 0 0 0 0 0.258738 0 0 0 0 0.258738 0 0 0 0.61 0"/>
<feBlend mode="normal" in2="effect1_dropShadow_2_37" result="effect2_dropShadow_2_37"/>
<feBlend mode="normal" in="SourceGraphic" in2="effect2_dropShadow_2_37" result="shape"/>
<feGaussianBlur stdDeviation="0.266142" result="effect3_foregroundBlur_2_37"/>
</filter>
<filter id="filter1_ddf_2_37" x="-11.4851" y="-11.3088" width="78.1915" height="76.7374" filterUnits="userSpaceOnUse" color-interpolation-filters="sRGB">
<feFlood flood-opacity="0" result="BackgroundImageFix"/>
<feColorMatrix in="SourceAlpha" type="matrix" values="0 0 0 0 0 0 0 0 0 0 0 0 0 0 0 0 0 0 127 0" result="hardAlpha"/>
<feMorphology radius="1.64436" operator="dilate" in="SourceAlpha" result="effect1_dropShadow_2_37"/>
<feOffset dx="7.23518" dy="6.57743"/>
<feGaussianBlur stdDeviation="8.87953"/>
<feComposite in2="hardAlpha" operator="out"/>
<feColorMatrix type="matrix" values="0 0 0 0 0.070249 0 0 0 0 0.0696554 0 0 0 0 0.0712385 0 0 0 0.65 0"/>
<feBlend mode="normal" in2="BackgroundImageFix" result="effect1_dropShadow_2_37"/>
<feColorMatrix in="SourceAlpha" type="matrix" values="0 0 0 0 0 0 0 0 0 0 0 0 0 0 0 0 0 0 127 0" result="hardAlpha"/>
<feOffset/>
<feGaussianBlur stdDeviation="1.22426"/>
<feComposite in2="hardAlpha" operator="out"/>
<feColorMatrix type="matrix" values="0 0 0 0 0 0 0 0 0 0 0 0 0 0 0 0 0 0 0.3 0"/>
<feBlend mode="normal" in2="effect1_dropShadow_2_37" result="effect2_dropShadow_2_37"/>
<feBlend mode="normal" in="SourceGraphic" in2="effect2_dropShadow_2_37" result="shape"/>
<feGaussianBlur stdDeviation="0.266142" result="effect3_foregroundBlur_2_37"/>
</filter>
<linearGradient id="paint0_linear_2_37" x1="19.5549" y1="-17.3848" x2="24.6984" y2="42.4193" gradientUnits="userSpaceOnUse">
<stop offset="0.456411" stop-color="#FF85A7"/>
<stop offset="0.893" stop-color="#840025"/>
<stop offset="0.953901" stop-color="#8F0028"/>
</linearGradient>
<linearGradient id="paint1_linear_2_37" x1="19.5549" y1="-15.8676" x2="24.6984" y2="43.9365" gradientUnits="userSpaceOnUse">
<stop offset="0.0765292" stop-color="#E94673"/>
<stop offset="0.417307" stop-color="#9F173D"/>
<stop offset="0.953901" stop-color="#620821"/>
</linearGradient>
<clipPath id="clip0_2_37">
<rect width="39.3846" height="41.0256" fill="white" transform="translate(0.683105)"/>
</clipPath>
</defs>
</svg>
