<svg width="15" height="16" viewBox="0 0 15 16" fill="none" xmlns="http://www.w3.org/2000/svg">
<g id="Group">
<path id="Vector" d="M14.4499 9.02103V5.61598C14.4499 5.28939 14.2716 5.02466 14.0515 5.02466H7.22494C7.00493 5.02466 6.82659 5.28939 6.82659 5.61598C6.82659 5.94257 7.00493 6.2073 7.22494 6.2073H12.1164L7.22494 9.32899L1.40695 5.61598L7.22494 1.90298L9.83643 3.56959C10.0386 3.69856 10.2728 3.55992 10.3597 3.25988C10.4466 2.95988 10.3532 2.61206 10.1511 2.48309L7.38227 0.716043C7.28182 0.651944 7.16804 0.651944 7.06759 0.716043L0.241021 5.07273C0.0947869 5.16607 0 5.37969 0 5.61598C0 5.85227 0.0947869 6.06592 0.241021 6.15923L7.06761 10.5159C7.11782 10.5479 7.1714 10.5639 7.22494 10.5639C7.27848 10.5639 7.33206 10.5479 7.38227 10.5159L11.1395 8.11802L11.1396 12.2098C8.94706 15.221 5.50276 15.221 3.31031 12.2098L3.31033 11.166C3.31033 10.8395 3.13199 10.5747 2.91198 10.5747C2.692 10.5747 2.51364 10.8395 2.51364 11.166L2.51362 12.4631C2.51362 12.622 2.5567 12.7742 2.63314 12.8854C3.86647 14.6798 5.49718 15.668 7.22492 15.668C8.95268 15.668 10.5834 14.6798 11.8167 12.8855C11.8932 12.7743 11.9363 12.6221 11.9363 12.4631L11.9362 7.6096L13.6532 6.51382V9.021C13.3287 9.24487 13.103 9.73313 13.103 10.2984C13.103 10.8785 13.3946 12.4046 14.0515 12.4046C14.7084 12.4046 15 10.8785 15 10.2984C15 9.73316 14.7744 9.24493 14.4499 9.02103ZM14.0515 11.0621C13.9742 10.8364 13.8997 10.4877 13.8997 10.2984C13.8997 10.1741 13.9678 10.073 14.0515 10.073C14.1352 10.073 14.2033 10.1741 14.2033 10.2984C14.2033 10.4877 14.1289 10.8364 14.0515 11.0621Z" fill="#555555"/>
</g>
</svg>
