<svg width="20" height="21" viewBox="0 0 20 21" fill="none" xmlns="http://www.w3.org/2000/svg">
<g id="6318060_measure_scale_balance_ruler_icon 1" clip-path="url(#clip0_28_609)">
<g id="Group">
<path id="Vector" d="M4.92662 19.7368L0.730138 15.5403C0.536825 15.3465 0.441031 15.0712 0.463757 14.7747C0.486483 14.4782 0.625858 14.1848 0.851352 13.9587L13.2903 1.51981C13.5163 1.29415 13.8098 1.15461 14.1064 1.1318C14.403 1.10899 14.6785 1.20478 14.8723 1.39816L19.0688 5.59464C19.2621 5.78846 19.3579 6.06392 19.3351 6.36051C19.3123 6.65711 19.1728 6.95062 18.9471 7.17666L6.50821 19.6156C6.28214 19.8411 5.9887 19.9804 5.69221 20.0032C5.39571 20.0259 5.12038 19.9301 4.92662 19.7368ZM14.0343 2.23616L1.56968 14.677L5.76463 18.8988L18.2288 6.45833C18.2307 6.45655 18.2322 6.45444 18.2333 6.45216C18.2345 6.44988 18.2352 6.44746 18.2353 6.44505C18.2355 6.44265 18.2352 6.44032 18.2344 6.43819C18.2336 6.43605 18.2324 6.43416 18.2308 6.43265L14.0343 2.23616Z" fill="#4F4E4F"/>
<path id="Vector_2" d="M14.1308 5.52995L12.0656 3.46475C11.9703 3.36949 11.9231 3.23399 11.9344 3.08805C11.9456 2.94212 12.0143 2.79771 12.1254 2.68658C12.2366 2.57545 12.381 2.50673 12.5269 2.49551C12.6728 2.48429 12.8083 2.53149 12.9036 2.62674L14.9688 4.69194C15.0641 4.7872 15.1113 4.9227 15.1 5.06864C15.0888 5.21457 15.0201 5.35898 14.909 5.47011C14.7978 5.58124 14.6534 5.64996 14.5075 5.66118C14.3616 5.6724 14.2261 5.6252 14.1308 5.52995Z" fill="#4F4E4F"/>
<path id="Vector_3" d="M10.894 7.37274L9.52482 6.0036C9.42957 5.90834 9.38237 5.77284 9.39359 5.6269C9.40481 5.48097 9.47353 5.33655 9.58466 5.22543C9.69579 5.1143 9.8402 5.04558 9.98614 5.03436C10.1321 5.02314 10.2676 5.07034 10.3628 5.16559L11.732 6.53473C11.8272 6.62999 11.8744 6.7655 11.8632 6.91144C11.852 7.05737 11.7833 7.20178 11.6721 7.3129C11.561 7.42403 11.4166 7.49276 11.2707 7.50398C11.1247 7.5152 10.9892 7.46799 10.894 7.37274Z" fill="#4F4E4F"/>
<path id="Vector_4" d="M9.10272 10.5576L7.03752 8.4924C6.94226 8.39715 6.89506 8.26165 6.90629 8.11571C6.91751 7.96978 6.98623 7.82536 7.09736 7.71424C7.20848 7.60311 7.3529 7.53439 7.49883 7.52317C7.64477 7.51194 7.78027 7.55914 7.87552 7.6544L9.94072 9.7196C10.036 9.81486 10.0832 9.95036 10.072 10.0963C10.0607 10.2422 9.99201 10.3866 9.88089 10.4978C9.76976 10.6089 9.62535 10.6776 9.47941 10.6888C9.33348 10.7001 9.19798 10.6529 9.10272 10.5576Z" fill="#4F4E4F"/>
<path id="Vector_5" d="M5.9445 12.3222L4.57536 10.9531C4.48011 10.8578 4.43291 10.7223 4.44413 10.5764C4.45535 10.4304 4.52407 10.286 4.6352 10.1749C4.74632 10.0638 4.89074 9.99503 5.03667 9.98381C5.18261 9.97259 5.31811 10.0198 5.41336 10.115L6.78251 11.4842C6.87776 11.5794 6.92497 11.715 6.91375 11.8609C6.90253 12.0068 6.8338 12.1512 6.72267 12.2624C6.61155 12.3735 6.46714 12.4422 6.32121 12.4534C6.17527 12.4647 6.03976 12.4174 5.9445 12.3222Z" fill="#4F4E4F"/>
<path id="Vector_6" d="M4.07464 15.5866L2.00944 13.5214C1.91419 13.4261 1.86699 13.2906 1.87821 13.1447C1.88943 12.9988 1.95815 12.8543 2.06928 12.7432C2.18041 12.6321 2.32482 12.5634 2.47075 12.5521C2.61669 12.5409 2.75219 12.5881 2.84745 12.6834L4.91265 14.7486C5.0079 14.8438 5.0551 14.9793 5.04388 15.1253C5.03266 15.2712 4.96394 15.4156 4.85281 15.5268C4.74168 15.6379 4.59727 15.7066 4.45134 15.7178C4.3054 15.729 4.1699 15.6818 4.07464 15.5866Z" fill="#4F4E4F"/>
</g>
</g>
<defs>
<clipPath id="clip0_28_609">
<rect width="8" height="20" fill="white" transform="translate(14.1421 0.667969) rotate(45)"/>
</clipPath>
</defs>
</svg>
