<svg width="16" height="18" viewBox="0 0 11 13" fill="none" xmlns="http://www.w3.org/2000/svg">
<path d="M8.52889 4.49742H8.29198V3.6616C8.3512 1.98996 6.98895 0.616821 5.33055 0.616821C3.67216 0.616821 2.30991 1.98996 2.30991 3.6616V4.55712H2.13222C0.947654 4.55712 0 5.51234 0 6.70637V10.4676C0 11.6616 0.947654 12.6168 2.13222 12.6168H8.58812C9.77268 12.6168 10.7203 11.6616 10.7203 10.4676V6.70637C10.6611 5.45264 9.71346 4.49742 8.52889 4.49742ZM3.49447 3.6616C3.49447 2.64667 4.32367 1.81085 5.33055 1.81085C6.33744 1.81085 7.16664 2.64667 7.16664 3.6616V4.55712H3.49447V3.6616ZM9.595 10.4079C9.595 10.9452 9.06194 11.3631 8.52889 11.3631H2.13222C1.59917 11.3631 1.18457 10.9452 1.18457 10.4079V6.64667C1.18457 6.10935 1.59917 5.69144 2.13222 5.69144H2.96142H7.81815H8.64735C9.1804 5.69144 9.595 6.10935 9.595 6.64667V10.4079Z" fill="#828282"/>
<path d="M5.33057 8.43782C4.97519 8.43782 4.73828 8.67663 4.73828 9.03484V9.99006C4.73828 10.3483 4.97519 10.5871 5.33057 10.5871C5.68594 10.5871 5.92285 10.3483 5.92285 9.99006V9.03484C5.92285 8.67663 5.68594 8.43782 5.33057 8.43782Z" fill="white"/>
</svg>
