<svg width="17" height="18" viewBox="0 0 17 18" fill="none" xmlns="http://www.w3.org/2000/svg">
<g id="3937337_enlarge_glass_magnifier_magnifying_search_icon 1">
<g id="Group">
<g id="Group_2">
<path id="Vector" d="M7.01303 13.3073C3.80508 13.3073 1.19531 10.6975 1.19531 7.48959C1.19531 4.28164 3.80508 1.67188 7.01303 1.67188C10.221 1.67188 12.8308 4.28164 12.8308 7.48959C12.8308 10.6975 10.221 13.3073 7.01303 13.3073ZM7.01303 3.14078C4.61497 3.14078 2.66422 5.0918 2.66422 7.48959C2.66422 9.88739 4.61523 11.8384 7.01303 11.8384C9.41083 11.8384 11.3618 9.88739 11.3618 7.48959C11.3618 5.0918 9.41109 3.14078 7.01303 3.14078Z" fill="#515151"/>
</g>
<g id="Group_3">
<path id="Vector_2" d="M9.65811 8.22364C9.2525 8.22364 8.92366 7.8948 8.92366 7.48919C8.92366 6.84345 8.60092 6.2458 8.06038 5.89066C7.74933 5.68639 7.38728 5.57828 7.01302 5.57828C6.60741 5.57828 6.27856 5.24944 6.27856 4.84383C6.27856 4.43822 6.60741 4.10938 7.01302 4.10938C7.67469 4.10938 8.31564 4.30089 8.86681 4.66294C9.82227 5.29061 10.3926 6.347 10.3926 7.48892C10.3926 7.8948 10.0637 8.22364 9.65811 8.22364Z" fill="#515151"/>
</g>
<g id="Group_4">
<path id="Vector_3" d="M13.5517 16.29C12.9498 16.29 12.384 16.0557 11.9584 15.6302L8.84425 12.516C8.67903 12.3507 8.60227 12.1165 8.6376 11.8854C8.67292 11.6543 8.81636 11.4537 9.02355 11.3456C9.81378 10.9331 10.4502 10.2983 10.8641 9.51015C10.9727 9.30349 11.173 9.16059 11.4038 9.12553C11.6346 9.09046 11.8684 9.16723 12.0336 9.33218L15.1449 12.4432C15.5704 12.8687 15.8047 13.4345 15.8047 14.0364C15.8047 14.6383 15.5704 15.2041 15.1449 15.6296C14.7193 16.0557 14.1533 16.29 13.5517 16.29ZM10.5299 12.1244L12.997 14.5913C13.1453 14.7395 13.3421 14.8211 13.5517 14.8211C13.7612 14.8211 13.9581 14.7395 14.1063 14.5913C14.412 14.2856 14.412 13.7878 14.1063 13.482L11.6408 11.0165C11.3223 11.4349 10.9493 11.807 10.5299 12.1244Z" fill="#515151"/>
</g>
</g>
</g>
</svg>
