<svg width="16" height="16" viewBox="0 0 16 16" fill="none" xmlns="http://www.w3.org/2000/svg">
<g id="Group">
<path id="Vector" d="M0.80397 11.1047C0.80397 9.08964 0.80397 8.0814 1.43029 7.45579C2.0559 6.82947 3.06414 6.82947 5.07919 6.82947H10.7795C12.7945 6.82947 13.8028 6.82947 14.4284 7.45579C15.0547 8.0814 15.0547 9.08964 15.0547 11.1047C15.0547 13.1197 15.0547 14.128 14.4284 14.7536C13.8028 15.3799 12.7945 15.3799 10.7795 15.3799H5.07919C3.06414 15.3799 2.0559 15.3799 1.43029 14.7536C0.80397 14.128 0.80397 13.1197 0.80397 11.1047Z" stroke="#A6A6A6" stroke-width="1.06881"/>
<path id="Vector_2" d="M3.65412 6.82945V5.40437C3.65412 4.27051 4.10455 3.18309 4.90631 2.38133C5.70807 1.57957 6.79549 1.12915 7.92935 1.12915C9.06321 1.12915 10.1506 1.57957 10.9524 2.38133C11.7541 3.18309 12.2046 4.27051 12.2046 5.40437V6.82945" stroke="#A6A6A6" stroke-width="1.06881" stroke-linecap="round"/>
<path id="Vector_3" d="M5.07919 11.1046H5.08561M7.92293 11.1046H7.92934M10.7731 11.1046H10.7795" stroke="#A6A6A6" stroke-width="1.42507" stroke-linecap="round" stroke-linejoin="round"/>
</g>
</svg>
