<svg width="12" height="13" viewBox="0 0 12 13" fill="none" xmlns="http://www.w3.org/2000/svg">
<g id="search icon">
<path id="Vector" d="M11.0371 12.6673L7.21649 8.84673C6.87264 9.12181 6.47722 9.33957 6.03023 9.50003C5.58323 9.66049 5.10758 9.74073 4.60327 9.74073C3.35397 9.74073 2.29677 9.30794 1.43166 8.44237C0.566544 7.5768 0.133759 6.5196 0.133301 5.27075C0.133301 4.02145 0.566086 2.96425 1.43166 2.09914C2.29723 1.23402 3.35443 0.80124 4.60327 0.800781C5.85257 0.800781 6.90978 1.23357 7.77489 2.09914C8.64 2.96471 9.07279 4.02191 9.07325 5.27075C9.07325 5.77506 8.99301 6.25071 8.83255 6.69771C8.67209 7.1447 8.45433 7.54012 8.17925 7.88397L11.9998 11.7045L11.0371 12.6673ZM4.60327 8.36535C5.46288 8.36535 6.19367 8.06437 6.79562 7.46242C7.39758 6.86046 7.69833 6.12991 7.69787 5.27075C7.69787 4.41114 7.39689 3.68036 6.79493 3.0784C6.19298 2.47645 5.46242 2.1757 4.60327 2.17616C3.74366 2.17616 3.01288 2.47714 2.41092 3.07909C1.80897 3.68105 1.50822 4.4116 1.50868 5.27075C1.50868 6.13036 1.80965 6.86115 2.41161 7.4631C3.01357 8.06506 3.74412 8.36581 4.60327 8.36535Z" fill="white"/>
</g>
</svg>
