<svg width="10" height="14" viewBox="0 0 10 14" fill="none" xmlns="http://www.w3.org/2000/svg">
<path fill-rule="evenodd" clip-rule="evenodd" d="M1.12377 4.2416C1.151 3.99654 1.35813 3.81116 1.60469 3.81116H8.39589C8.64241 3.81116 8.84957 3.99654 8.87679 4.2416L9.00589 5.40375C9.23995 7.51038 9.23995 9.63651 9.00589 11.7432L8.99318 11.8576C8.90028 12.6938 8.25215 13.3606 7.41892 13.4773C5.81434 13.7019 4.18621 13.7019 2.58162 13.4773C1.74837 13.3606 1.10028 12.6938 1.00736 11.8576L0.99465 11.7432C0.760572 9.63651 0.760572 7.51038 0.99465 5.40375L1.12377 4.2416ZM2.03777 4.7789L1.95647 5.51062C1.73029 7.54625 1.73029 9.60071 1.95647 11.6363L1.96918 11.7507C2.01325 12.1473 2.32061 12.4635 2.71579 12.5189C4.23137 12.731 5.76918 12.731 7.28473 12.5189C7.67995 12.4635 7.98731 12.1473 8.03137 11.7507L8.04408 11.6363C8.27028 9.60071 8.27028 7.54625 8.04408 5.51062L7.96279 4.7789H2.03777Z" fill="white"/>
<path fill-rule="evenodd" clip-rule="evenodd" d="M1.12377 4.2416C1.151 3.99654 1.35813 3.81116 1.60469 3.81116H8.39589C8.64241 3.81116 8.84957 3.99654 8.87679 4.2416L9.00589 5.40375C9.23995 7.51038 9.23995 9.63651 9.00589 11.7432L8.99318 11.8576C8.90028 12.6938 8.25215 13.3606 7.41892 13.4773C5.81434 13.7019 4.18621 13.7019 2.58162 13.4773C1.74837 13.3606 1.10028 12.6938 1.00736 11.8576L0.99465 11.7432C0.760572 9.63651 0.760572 7.51038 0.99465 5.40375L1.12377 4.2416ZM2.03777 4.7789L1.95647 5.51062C1.73029 7.54625 1.73029 9.60071 1.95647 11.6363L1.96918 11.7507C2.01325 12.1473 2.32061 12.4635 2.71579 12.5189C4.23137 12.731 5.76918 12.731 7.28473 12.5189C7.67995 12.4635 7.98731 12.1473 8.03137 11.7507L8.04408 11.6363C8.27028 9.60071 8.27028 7.54625 8.04408 5.51062L7.96279 4.7789H2.03777Z" fill="white"/>
<path d="M3.70968 0.585938C3.44245 0.585938 3.22581 0.802576 3.22581 1.06981V1.55368H0.483871C0.216639 1.55368 0 1.77032 0 2.03755C0 2.30478 0.216639 2.52142 0.483871 2.52142H9.51613C9.78335 2.52142 10 2.30478 10 2.03755C10 1.77032 9.78335 1.55368 9.51613 1.55368H6.77419V1.06981C6.77419 0.802576 6.55755 0.585938 6.29032 0.585938H3.70968Z" fill="white"/>
<path d="M3.70968 0.585938C3.44245 0.585938 3.22581 0.802576 3.22581 1.06981V1.55368H0.483871C0.216639 1.55368 0 1.77032 0 2.03755C0 2.30478 0.216639 2.52142 0.483871 2.52142H9.51613C9.78335 2.52142 10 2.30478 10 2.03755C10 1.77032 9.78335 1.55368 9.51613 1.55368H6.77419V1.06981C6.77419 0.802576 6.55755 0.585938 6.29032 0.585938H3.70968Z" fill="white"/>
</svg>
