<svg width="15" height="16" viewBox="0 0 15 16" fill="none" xmlns="http://www.w3.org/2000/svg">
<g id="2638295_alcohol_drink_glass_wine_icon 1" clip-path="url(#clip0_28_627)">
<path id="Vector" d="M11.5 8.23047C12.5625 7.10547 13.125 5.66797 13.125 4.23047C13.125 2.98047 12.75 1.73047 11.875 0.730469C11.75 0.542969 11.5625 0.480469 11.375 0.480469H3.625C3.4375 0.480469 3.25 0.542969 3.125 0.730469C2.25 1.73047 1.875 2.98047 1.875 4.23047C1.875 5.66797 2.4375 7.10547 3.5 8.23047C4.4375 9.16797 5.625 9.73047 6.875 9.85547V14.2305H4.375V15.4805H10.625V14.2305H8.125V9.79297C9.375 9.66797 10.5625 9.16797 11.5 8.23047ZM4.4375 7.29297C2.875 5.79297 2.6875 3.60547 3.9375 1.73047H11.125C12.3125 3.60547 12.125 5.79297 10.625 7.29297C8.875 9.04297 6.125 9.04297 4.4375 7.29297ZM5.625 4.23047H4.375C4.375 4.85547 4.6875 5.85547 5.3125 6.41797C5.875 7.04297 6.6875 7.35547 7.5 7.35547V6.10547C7 6.10547 6.5 5.91797 6.1875 5.54297C5.8125 5.23047 5.625 4.85547 5.625 4.23047Z" fill="#555555"/>
</g>
<defs>
<clipPath id="clip0_28_627">
<rect width="15" height="15" fill="white" transform="translate(0 0.480469)"/>
</clipPath>
</defs>
</svg>
