<svg width="14" height="15" viewBox="0 0 14 15" fill="none" xmlns="http://www.w3.org/2000/svg">
<g id="/ OUTLINE">
<path id="Vector" d="M9.07147 5.51851L6.89151 3.9199C6.68614 3.76931 6.44747 3.68282 6.20094 3.66972C5.95441 3.65662 5.70927 3.71736 5.49166 3.84548C5.27405 3.97359 5.09213 4.16427 4.9653 4.39718C4.83847 4.63009 4.77148 4.8965 4.77148 5.168V8.3652C4.77133 8.63677 4.83822 8.90328 4.96502 9.13629C5.09182 9.3693 5.27377 9.56005 5.49144 9.68819C5.7091 9.81633 5.95432 9.87704 6.2009 9.86384C6.44749 9.85064 6.68619 9.76403 6.89151 9.61325L9.07147 8.01469C9.25826 7.87771 9.41142 7.69212 9.51735 7.4744C9.62329 7.25667 9.67871 7.01354 9.67871 6.7666C9.67871 6.51965 9.62329 6.27652 9.51735 6.0588C9.41142 5.84107 9.25826 5.65548 9.07147 5.51851ZM6.13512 8.3652L6.13154 5.16566C6.13279 5.16633 6.13399 5.16711 6.13512 5.168L8.31507 6.7666L6.13512 8.3652Z" fill="#555555"/>
<path id="Vector_2" d="M0 12.568C0.000578963 13.1247 0.201901 13.6585 0.559799 14.0522C0.917698 14.4459 1.40295 14.6673 1.90909 14.668H12.0909C12.5971 14.6673 13.0823 14.4459 13.4402 14.0522C13.7981 13.6585 13.9994 13.1247 14 12.568V10.468H12.7273V2.76797C12.7267 2.21121 12.5254 1.67743 12.1675 1.28374C11.8096 0.89005 11.3243 0.668598 10.8182 0.667969H3.18182C2.67567 0.668598 2.19042 0.89005 1.83252 1.28374C1.47462 1.67743 1.2733 2.21121 1.27273 2.76797V10.468H0V12.568ZM2.54545 2.76797C2.54565 2.58238 2.61275 2.40446 2.73205 2.27323C2.85135 2.142 3.0131 2.06818 3.18182 2.06797H10.8182C10.9869 2.06818 11.1486 2.142 11.2679 2.27323C11.3872 2.40446 11.4544 2.58238 11.4545 2.76797V10.468H2.54545V2.76797ZM1.27273 11.868H12.7273V12.568C12.7271 12.7536 12.66 12.9315 12.5407 13.0627C12.4214 13.1939 12.2596 13.2678 12.0909 13.268H1.90909C1.74038 13.2678 1.57863 13.1939 1.45933 13.0627C1.34003 12.9315 1.27292 12.7536 1.27273 12.568V11.868Z" fill="#555555"/>
</g>
</svg>
