<svg width="28" height="28" viewBox="0 0 28 28" fill="none" xmlns="http://www.w3.org/2000/svg">
<g id="6588525_baby_bottle_drink_kids_milk_icon 1" clip-path="url(#clip0_28_654)">
<path id="Vector" d="M10.6785 21.4629L8.51379 20.2131C7.32318 19.5257 6.91147 17.9892 7.59886 16.7986L9.47358 13.5515C10.161 12.3608 11.6975 11.9491 12.8881 12.6365L15.0529 13.8863C16.2435 14.5737 16.6552 16.1103 15.9678 17.3009L14.0931 20.548C13.4057 21.7386 11.8691 22.1503 10.6785 21.4629Z" stroke="#515151" stroke-width="1.33313" stroke-miterlimit="10" stroke-linecap="round" stroke-linejoin="round"/>
<path id="Vector_2" d="M15.5946 14.1976L12.3474 12.3228C11.7521 11.9791 11.5463 11.2109 11.89 10.6156C12.2337 10.0203 13.002 9.81441 13.5973 10.1581L16.8444 12.0328C17.4397 12.3765 17.6455 13.1448 17.3018 13.7401C16.9581 14.3354 16.1899 14.5413 15.5946 14.1976Z" stroke="#515151" stroke-width="1.33313" stroke-miterlimit="10" stroke-linecap="round" stroke-linejoin="round"/>
<path id="Vector_3" d="M17.8648 9.01377C18.2085 8.41847 18.0027 7.6502 17.4074 7.3065C16.8121 6.9628 16.0438 7.16866 15.7001 7.76396C15.2939 8.4675 14.7795 9.10855 14.1568 9.6871L13.5966 10.1574L14.1378 10.4699L16.3026 11.7197L16.8437 12.0321L16.971 11.3119C17.1607 10.4833 17.4586 9.71731 17.8648 9.01377Z" stroke="#515151" stroke-width="1.33313" stroke-miterlimit="10" stroke-linecap="round" stroke-linejoin="round"/>
<path id="Vector_4" d="M11.6392 14.7988L12.7215 15.4237" stroke="#515151" stroke-width="1.33313" stroke-miterlimit="10" stroke-linecap="round" stroke-linejoin="round"/>
<path id="Vector_5" d="M10.7004 16.4238L11.2416 16.7363" stroke="#515151" stroke-width="1.33313" stroke-miterlimit="10" stroke-linecap="round" stroke-linejoin="round"/>
<path id="Vector_6" d="M9.76355 18.049L10.8459 18.6739" stroke="#515151" stroke-width="1.33313" stroke-miterlimit="10" stroke-linecap="round" stroke-linejoin="round"/>
</g>
<defs>
<clipPath id="clip0_28_654">
<rect width="19.997" height="19.997" fill="white" transform="translate(9.99854 0.144531) rotate(30)"/>
</clipPath>
</defs>
</svg>
