<svg width="15" height="16" viewBox="0 0 15 16" fill="none" xmlns="http://www.w3.org/2000/svg">
<path id="Vector" d="M6.61494 0.767825C7.13743 0.384683 7.86368 0.384683 8.38617 0.767825L14.5886 5.30925C15.3786 5.88756 14.9549 7.09445 13.9624 7.09924H1.03749C0.0462495 7.09445 -0.378747 5.88756 0.412496 5.30925L6.61494 0.767825ZM7.49993 5.00394C7.74857 5.00394 7.98702 4.90933 8.16284 4.74092C8.33865 4.57252 8.43742 4.34411 8.43742 4.10595C8.43742 3.86779 8.33865 3.63938 8.16284 3.47097C7.98702 3.30257 7.74857 3.20796 7.49993 3.20796C7.25129 3.20796 7.01284 3.30257 6.83702 3.47097C6.66121 3.63938 6.56244 3.86779 6.56244 4.10595C6.56244 4.34411 6.66121 4.57252 6.83702 4.74092C7.01284 4.90933 7.25129 5.00394 7.49993 5.00394ZM1.87498 8.29656V11.8885H3.74997V8.29656H1.87498ZM4.99995 8.29656V11.8885H6.87494V8.29656H4.99995ZM8.12493 8.29656V11.8885H9.99991V8.29656H8.12493ZM11.2499 8.29656V11.8885H13.1249V8.29656H11.2499ZM0 14.5825C0 13.7563 0.699994 13.0858 1.56249 13.0858H13.4374C14.2999 13.0858 14.9999 13.7563 14.9999 14.5825V14.8818C14.9999 15.0406 14.934 15.1929 14.8168 15.3051C14.6996 15.4174 14.5406 15.4805 14.3749 15.4805H0.624994C0.459235 15.4805 0.300266 15.4174 0.183057 15.3051C0.0658475 15.1929 0 15.0406 0 14.8818V14.5825Z" fill="#555555"/>
</svg>
