<svg width="20" height="21" viewBox="0 0 20 21" fill="none" xmlns="http://www.w3.org/2000/svg">
<g id="9081549_smoking_icon 1" clip-path="url(#clip0_28_633)">
<path id="Vector" d="M16.6667 11.3145H3.33333C2.8731 11.3145 2.5 11.6875 2.5 12.1478V13.8145C2.5 14.2747 2.8731 14.6478 3.33333 14.6478H16.6667C17.1269 14.6478 17.5 14.2747 17.5 13.8145V12.1478C17.5 11.6875 17.1269 11.3145 16.6667 11.3145Z" stroke="#444245" stroke-width="2" stroke-linecap="round" stroke-linejoin="round"/>
<path id="Vector_2" d="M6.66675 11.3145V14.6478" stroke="#515151" stroke-width="2" stroke-linecap="round" stroke-linejoin="round"/>
<path id="Vector_3" d="M13.3333 4.64648V5.06315C13.3333 5.50518 13.5088 5.9291 13.8214 6.24166C14.134 6.55422 14.5579 6.72982 14.9999 6.72982C15.4419 6.72982 15.8659 6.90541 16.1784 7.21797C16.491 7.53053 16.6666 7.95446 16.6666 8.39648V8.81315" stroke="#515151" stroke-width="2" stroke-linecap="round" stroke-linejoin="round"/>
</g>
<defs>
<clipPath id="clip0_28_633">
<rect width="20" height="20" fill="white" transform="translate(0 0.480469)"/>
</clipPath>
</defs>
</svg>
