<svg width="328" height="281" viewBox="0 0 328 281" fill="none" xmlns="http://www.w3.org/2000/svg">
<path d="M233.472 1.24762C206.082 1.24762 181.864 12.3092 164 32.8575C146.137 12.3092 121.919 1.24762 94.5278 1.24762C44.0248 1.24762 1.66723 43.2104 1.66723 93.2717V93.2905V93.3093V93.328V93.3468V93.3655V93.3843V93.4031V93.4218V93.4406V93.4594V93.4781V93.4969V93.5156V93.5344V93.5532V93.5719V93.5907V93.6094V93.6282V93.647V93.6657V93.6845V93.7032V93.722V93.7408V93.7595V93.7783V93.7971V93.8158V93.8346V93.8533V93.8721V93.8909V93.9096V93.9284V93.9471V93.9659V93.9847V94.0034V94.0222V94.0409V94.0597V94.0785V94.0972V94.116V94.1348V94.1535V94.1723V94.191V94.2098V94.2286V94.2473V94.2661V94.2848V94.3036V94.3224V94.3411V94.3599V94.3786V94.3974V94.4162V94.4349V94.4537V94.4725V94.4912V94.51V94.5287V94.5475V94.5663V94.585V94.6038V94.6225V94.6413V94.6601V94.6788V94.6976V94.7163V94.7351V94.7539V94.7726V94.7914V94.8102V94.8289V94.8477V94.8664V94.8852V94.904V94.9227V94.9415V94.9602V94.979V94.9978V95.0165V95.0353V95.054V95.0728V95.0916V95.1103V95.1291V95.1479V95.1666V95.1854V95.2041V95.2229V95.2417V95.2604V95.2792V95.2979V95.3167V95.3355V95.3542V95.373V95.3917V95.4105V95.4293V95.448V95.4668V95.4856V95.5043V95.5231V95.5418V95.5606V95.5794V95.5981V95.6169V95.6356V95.6544V95.6732V95.6919V95.7107V95.7295V95.7482V95.767V95.7857V95.8045V95.8233V95.842V95.8608V95.8795V95.8983V95.9171V95.9358V95.9546V95.9734V95.9921V96.0109V96.0296V96.0484V96.0672V96.0859V96.1047V96.1234V96.1422V96.161V96.1797V96.1985V96.2173V96.236V96.2548V96.2735V96.2923V96.3111V96.3298V96.3486V96.3673V96.3861V96.4049V96.4236V96.4424V96.4612V96.4799V96.4987V96.5174V96.5362V96.555V96.5737V96.5925V96.6112V96.63V96.6488V96.6675V96.6863V96.7051V96.7238V96.7426V96.7613V96.7801V96.7989V96.8176V96.8364V96.8551V96.8739V96.8927V96.9114V96.9302V96.949V96.9677V96.9865V97.0052V97.024V97.0428V97.0615V97.0803V97.0991V97.1178V97.1366V97.1553V97.1741V97.1929V97.2116V97.2304V97.2491V97.2679V97.2867V97.3054V97.3242V97.343V97.3617V97.3805V97.3992V97.418V97.4368V97.4555V97.4743V97.493V97.5118V97.5306V97.5493V97.5681V97.5869V97.6056V97.6244V97.6431V97.6619V97.6807V97.6994V97.7182V97.737V97.7557V97.7745V97.7932V97.812V97.8308V97.8495V97.8683V97.8871V97.9058V97.9246V97.9433V97.9621V97.9809V97.9996V98.0184V98.0371V98.0559V98.0747V98.0934V98.1122V98.131V98.1497V98.1685V98.1872V98.206V98.2248V98.2435V98.2623V98.2811V98.2998V98.3186V98.3373V98.3561V98.3749V98.3936V98.4124V98.4312V98.4499V98.4687V98.4874V98.5062V98.525V98.5437V98.5625V98.5813V98.6V98.6188V98.6375V98.6563V98.6751V98.6938V98.7126V98.7314V98.7501V98.7689V98.7877V98.8064V98.8252V98.8439V98.8627V98.8815V98.9002V98.919V98.9378V98.9565V98.9753V98.994V99.0128V99.0316V99.0503V99.0691V99.0879V99.1066V99.1254V99.1441V99.1629V99.1817V99.2004V99.2192V99.238V99.2567V99.2755V99.2942V99.313V99.3318V99.3505V99.3693V99.3881V99.4068V99.4256V99.4443V99.4631V99.4819V99.5006V99.5194V99.5382V99.5569V99.5757V99.5945V99.6132V99.632V99.6507V99.6695V99.6883V99.707V99.7258V99.7446V99.7633V99.7821V99.8008V99.8196V99.8384V99.8571V99.8759V99.8947V99.9134V99.9322V99.951V99.9697V99.9885V100.007V100.026V100.045V100.064V100.082V100.101V100.12V100.139V100.157V100.176V100.195V100.214V100.232V100.251V100.27V100.289V100.307V100.326V100.345V100.364V100.383V100.401V100.42V100.439V100.458V100.476V100.495V100.514V100.533V100.551V100.57V100.589V100.608V100.626V100.645V100.664V100.683V100.701V100.72V100.739V100.758V100.777V100.795V100.814V100.833V100.852V100.87V100.889V100.908V100.927V100.945V100.964V100.983V101.002V101.02V101.039V101.058V101.077V101.096V101.114V101.133V101.152V101.171V101.189V101.208V101.227V101.246V101.264V101.283V101.302V101.321V101.339V101.358V101.377V101.396V101.415V101.433V101.452V101.471V101.49V101.508V101.527V101.546V101.565V101.583V101.602V101.621V101.64V101.658V101.677V101.696V101.715V101.734V101.752V101.771V101.79V101.809V101.827V101.846V101.865V101.884V101.902V101.921V101.94V101.959V101.977V101.996V102.015V102.034V102.053V102.071V102.09V102.109V102.128V102.146V102.165V102.184V102.203V102.221V102.24V102.259V102.278V102.296V102.315V102.334V102.353V102.372V102.39V102.409V102.428V102.447V102.465V102.484V102.503V102.522V102.54V102.559V102.578V102.597V102.616V102.634V102.653V102.672V102.691V102.709V102.728V102.747V102.766V102.784V102.803V102.822V102.841V102.859V102.878V102.911L1.67006 102.944C4.92267 140.814 26.8657 175.391 53.7761 204.262C80.6963 233.144 112.663 256.398 136.115 271.624L136.128 271.632L136.141 271.64C144.315 276.5 154.143 279.752 164 279.752C173.857 279.752 183.686 276.5 191.859 271.64L191.872 271.632L191.885 271.624C215.337 256.398 247.303 233.145 274.222 204.464C301.13 175.795 323.077 141.619 326.33 104.545L326.333 104.512V104.478V104.459V104.441V104.422V104.403V104.384V104.366V104.347V104.328V104.309V104.291V104.272V104.253V104.234V104.215V104.197V104.178V104.159V104.14V104.122V104.103V104.084V104.065V104.047V104.028V104.009V103.99V103.972V103.953V103.934V103.915V103.897V103.878V103.859V103.84V103.822V103.803V103.784V103.765V103.747V103.728V103.709V103.69V103.671V103.653V103.634V103.615V103.596V103.578V103.559V103.54V103.521V103.503V103.484V103.465V103.446V103.428V103.409V103.39V103.371V103.353V103.334V103.315V103.296V103.278V103.259V103.24V103.221V103.203V103.184V103.165V103.146V103.127V103.109V103.09V103.071V103.052V103.034V103.015V102.996V102.977V102.959V102.94V102.921V102.902V102.884V102.865V102.846V102.827V102.809V102.79V102.771V102.752V102.734V102.715V102.696V102.677V102.658V102.64V102.621V102.602V102.583V102.565V102.546V102.527V102.508V102.49V102.471V102.452V102.433V102.415V102.396V102.377V102.358V102.34V102.321V102.302V102.283V102.265V102.246V102.227V102.208V102.189V102.171V102.152V102.133V102.114V102.096V102.077V102.058V102.039V102.021V102.002V101.983V101.964V101.946V101.927V101.908V101.889V101.871V101.852V101.833V101.814V101.796V101.777V101.758V101.739V101.72V101.702V101.683V101.664V101.645V101.627V101.608V101.589V101.57V101.552V101.533V101.514V101.495V101.477V101.458V101.439V101.42V101.402V101.383V101.364V101.345V101.326V101.308V101.289V101.27V101.251V101.233V101.214V101.195V101.176V101.158V101.139V101.12V101.101V101.083V101.064V101.045V101.026V101.008V100.989V100.97V100.951V100.933V100.914V100.895V100.876V100.857V100.839V100.82V100.801V100.782V100.764V100.745V100.726V100.707V100.689V100.67V100.651V100.632V100.614V100.595V100.576V100.557V100.539V100.52V100.501V100.482V100.464V100.445V100.426V100.407V100.388V100.37V100.351V100.332V100.313V100.295V100.276V100.257V100.238V100.22V100.201V100.182V100.163V100.145V100.126V100.107V100.088V100.07V100.051V100.032V100.013V99.9945V99.9757V99.957V99.9382V99.9194V99.9007V99.8819V99.8632V99.8444V99.8256V99.8069V99.7881V99.7693V99.7506V99.7318V99.7131V99.6943V99.6755V99.6568V99.638V99.6193V99.6005V99.5817V99.563V99.5442V99.5254V99.5067V99.4879V99.4692V99.4504V99.4316V99.4129V99.3941V99.3754V99.3566V99.3378V99.3191V99.3003V99.2815V99.2628V99.244V99.2253V99.2065V99.1877V99.169V99.1502V99.1315V99.1127V99.0939V99.0752V99.0564V99.0377V99.0189V99.0001V98.9814V98.9626V98.9438V98.9251V98.9063V98.8876V98.8688V98.85V98.8313V98.8125V98.7938V98.775V98.7562V98.7375V98.7187V98.6999V98.6812V98.6624V98.6437V98.6249V98.6061V98.5874V98.5686V98.5499V98.5311V98.5123V98.4936V98.4748V98.456V98.4373V98.4185V98.3998V98.381V98.3622V98.3435V98.3247V98.306V98.2872V98.2684V98.2497V98.2309V98.2121V98.1934V98.1746V98.1559V98.1371V98.1183V98.0996V98.0808V98.062V98.0433V98.0245V98.0058V97.987V97.9682V97.9495V97.9307V97.912V97.8932V97.8744V97.8557V97.8369V97.8182V97.7994V97.7806V97.7619V97.7431V97.7243V97.7056V97.6868V97.6681V97.6493V97.6305V97.6118V97.593V97.5742V97.5555V97.5367V97.518V97.4992V97.4804V97.4617V97.4429V97.4242V97.4054V97.3866V97.3679V97.3491V97.3303V97.3116V97.2928V97.2741V97.2553V97.2365V97.2178V97.199V97.1803V97.1615V97.1427V97.124V97.1052V97.0864V97.0677V97.0489V97.0302V97.0114V96.9926V96.9739V96.9551V96.9364V96.9176V96.8988V96.8801V96.8613V96.8425V96.8238V96.805V96.7863V96.7675V96.7487V96.73V96.7112V96.6925V96.6737V96.6549V96.6362V96.6174V96.5986V96.5799V96.5611V96.5424V96.5236V96.5048V96.4861V96.4673V96.4486V96.4298V96.411V96.3923V96.3735V96.3547V96.336V96.3172V96.2985V96.2797V96.2609V96.2422V96.2234V96.2047V96.1859V96.1671V96.1484V96.1296V96.1108V96.0921V96.0733V96.0546V96.0358V96.017V95.9983V95.9795V95.9608V95.942V95.9232V95.9045V95.8857V95.867V95.8482V95.8294V95.8107V95.7919V95.7731V95.7544V95.7356V95.7169V95.6981V95.6793V95.6606V95.6418V95.6231V95.6043V95.5855V95.5668V95.548V95.5292V95.5105V95.4917V95.473V95.4542V95.4354V95.4167V95.3979V95.3792V95.3604V95.3416V95.3229V95.3041V95.2853V95.2666V95.2478V95.2291V95.2103V95.1915V95.1728V95.154V95.1353V95.1165V95.0977V95.079V95.0602V95.0415V95.0227V95.0039V94.9852V94.9664V94.9476V94.9289V94.9101V94.8914V94.8726C326.333 43.219 283.984 1.24762 233.472 1.24762ZM292.482 99.6377V99.6464C290.069 131.372 268.833 161.612 243.834 186.584C218.864 211.526 190.26 231.094 173.321 241.487C167.099 244.56 160.913 244.561 154.69 241.493C137.74 230.293 109.542 210.327 84.7762 185.188C59.9805 160.018 38.7361 129.773 35.5186 98.0357V98.0335V98.0312V98.0287V98.0261V98.0236V98.0209V98.0182V98.0154V98.0125V98.0096V98.0066V98.0036V98.0005V97.9973V97.994V97.9907V97.9874V97.9839V97.9805V97.9769V97.9733V97.9696V97.9659V97.9621V97.9582V97.9543V97.9503V97.9463V97.9422V97.938V97.9338V97.9295V97.9252V97.9208V97.9163V97.9118V97.9072V97.9026V97.8979V97.8932V97.8883V97.8835V97.8786V97.8736V97.8685V97.8635V97.8583V97.8531V97.8478V97.8425V97.8372V97.8317V97.8262V97.8207V97.8151V97.8095V97.8038V97.798V97.7922V97.7864V97.7804V97.7745V97.7685V97.7624V97.7563V97.7501V97.7439V97.7376V97.7312V97.7249V97.7184V97.7119V97.7054V97.6988V97.6922V97.6855V97.6787V97.672V97.6651V97.6582V97.6513V97.6443V97.6373V97.6302V97.6231V97.6159V97.6087V97.6014V97.5941V97.5867V97.5793V97.5718V97.5643V97.5568V97.5492V97.5415V97.5339V97.5261V97.5183V97.5105V97.5026V97.4947V97.4868V97.4788V97.4707V97.4626V97.4545V97.4463V97.4381V97.4298V97.4215V97.4132V97.4048V97.3964V97.3879V97.3794V97.3708V97.3622V97.3536V97.3449V97.3362V97.3274V97.3186V97.3098V97.3009V97.292V97.283V97.274V97.265V97.2559V97.2468V97.2376V97.2285V97.2192V97.21V97.2007V97.1913V97.182V97.1725V97.1631V97.1536V97.1441V97.1345V97.125V97.1153V97.1057V97.096V97.0862V97.0765V97.0667V97.0568V97.047V97.0371V97.0271V97.0172V97.0072V96.9971V96.9871V96.977V96.9669V96.9567V96.9465V96.9363V96.926V96.9157V96.9054V96.8951V96.8847V96.8743V96.8638V96.8534V96.8429V96.8324V96.8218V96.8112V96.8006V96.79V96.7793V96.7686V96.7579V96.7471V96.7363V96.7255V96.7147V96.7038V96.6929V96.682V96.6711V96.6601V96.6491V96.6381V96.6271V96.616V96.6049V96.5938V96.5826V96.5715V96.5603V96.5491V96.5378V96.5266V96.5153V96.504V96.4927V96.4813V96.47V96.4586V96.4471V96.4357V96.4242V96.4128V96.4013V96.3897V96.3782V96.3666V96.3551V96.3435V96.3318V96.3202V96.3085V96.2969V96.2852V96.2734V96.2617V96.25V96.2382V96.2264V96.2146V96.2028V96.1909V96.1791V96.1672V96.1553V96.1434V96.1315V96.1195V96.1076V96.0956V96.0836V96.0716V96.0596V96.0476V96.0356V96.0235V96.0114V95.9993V95.9873V95.9751V95.963V95.9509V95.9387V95.9266V95.9144V95.9022V95.89V95.8778V95.8656V95.8534V95.8411V95.8289V95.8166V95.8043V95.7921V95.7798V95.7675V95.7551V95.7428V95.7305V95.7182V95.7058V95.6935V95.6811V95.6687V95.6564V95.644V95.6316V95.6192V95.6068V95.5944V95.582V95.5695V95.5571V95.5447V95.5322V95.5198V95.5073V95.4949V95.4824V95.4699V95.4575V95.445V95.4325V95.42V95.4076V95.3951V95.3826V95.3701V95.3576V95.3451V95.3326V95.3201V95.3076V95.2951V95.2826V95.2701V95.2576V95.2451V95.2326V95.2201V95.2076V95.195V95.1825V95.17V95.1575V95.145V95.1325V95.12V95.1075V95.095V95.0825V95.07V95.0576V95.0451V95.0326V95.0201V95.0076V94.9952V94.9827V94.9702V94.9578V94.9453V94.9329V94.9204V94.908V94.8955V94.8831V94.8707V94.8583V94.8459V94.8335V94.8211V94.8087V94.7963V94.7839V94.7716V94.7592V94.7468V94.7345V94.7222V94.7099V94.6975V94.6852V94.6729V94.6606V94.6484V94.6361V94.6238V94.6116V94.5993V94.5871V94.5749V94.5627V94.5505V94.5383V94.5262V94.514V94.5019V94.4897V94.4776V94.4655V94.4534V94.4413V94.4293V94.4172V94.4052V94.3932V94.3812V94.3692V94.3572V94.3452V94.3333V94.3213V94.3094V94.2975V94.2856V94.2738V94.2619V94.2501V94.2383V94.2265V94.2147V94.2029V94.1912V94.1794V94.1677V94.156V94.1444V94.1327V94.1211V94.1095V94.0979V94.0863V94.0747V94.0632V94.0517V94.0402V94.0287V94.0173V94.0058V93.9944V93.9831V93.9717V93.9603V93.949V93.9377V93.9265V93.9152V93.904V93.8928V93.8816V93.8704V93.8593V93.8482V93.8371V93.8261V93.815V93.804V93.793V93.7821V93.7711V93.7602V93.7494V93.7385V93.7277V93.7169V93.7061V93.6954V93.6847V93.674V93.6633V93.6527V93.6421V93.6315V93.6209V93.6104V93.5999V93.5895V93.5791V93.5687V93.5583V93.548V93.5377V93.5274V93.5171V93.5069V93.4967V93.4866V93.4765V93.4664V93.4563V93.4463V93.4363V93.4264V93.4164V93.4065V93.3967V93.3869V93.3771V93.3673V93.3576V93.3479V93.3383V93.3287V93.3191V93.3095V93.3V93.2906V93.2811V93.2717C35.5186 61.684 62.6334 34.8055 94.5278 34.8055C118.424 34.8055 139.145 48.9982 148.732 69.5174C150.497 76.3473 157.368 79.6323 164 79.6323C170.633 79.6323 177.503 76.3472 179.268 69.5174C188.855 48.9982 209.576 34.8055 233.472 34.8055C265.367 34.8055 292.482 61.684 292.482 93.2717V93.2811V93.2906V93.3V93.3095V93.3191V93.3287V93.3383V93.3479V93.3576V93.3673V93.3771V93.3869V93.3967V93.4066V93.4165V93.4264V93.4364V93.4464V93.4564V93.4665V93.4766V93.4867V93.4969V93.5071V93.5173V93.5276V93.5379V93.5482V93.5586V93.569V93.5794V93.5899V93.6004V93.6109V93.6215V93.632V93.6427V93.6533V93.664V93.6747V93.6855V93.6963V93.7071V93.7179V93.7288V93.7397V93.7506V93.7616V93.7725V93.7836V93.7946V93.8057V93.8168V93.8279V93.8391V93.8503V93.8615V93.8728V93.884V93.8953V93.9067V93.918V93.9294V93.9409V93.9523V93.9638V93.9753V93.9868V93.9984V94.0099V94.0215V94.0332V94.0448V94.0565V94.0682V94.08V94.0917V94.1035V94.1153V94.1272V94.1391V94.1509V94.1629V94.1748V94.1868V94.1988V94.2108V94.2228V94.2349V94.247V94.2591V94.2712V94.2834V94.2955V94.3077V94.32V94.3322V94.3445V94.3568V94.3691V94.3814V94.3938V94.4062V94.4186V94.431V94.4435V94.4559V94.4684V94.481V94.4935V94.5061V94.5186V94.5312V94.5438V94.5565V94.5691V94.5818V94.5945V94.6072V94.62V94.6327V94.6455V94.6583V94.6711V94.6839V94.6968V94.7097V94.7225V94.7355V94.7484V94.7613V94.7743V94.7873V94.8003V94.8133V94.8263V94.8394V94.8524V94.8655V94.8786V94.8917V94.9049V94.918V94.9312V94.9443V94.9575V94.9708V94.984V94.9972V95.0105V95.0238V95.037V95.0504V95.0637V95.077V95.0903V95.1037V95.1171V95.1305V95.1439V95.1573V95.1707V95.1842V95.1976V95.2111V95.2246V95.2381V95.2516V95.2651V95.2787V95.2922V95.3058V95.3193V95.3329V95.3465V95.3601V95.3737V95.3874V95.401V95.4147V95.4283V95.442V95.4557V95.4694V95.4831V95.4968V95.5105V95.5243V95.538V95.5518V95.5655V95.5793V95.5931V95.6069V95.6207V95.6345V95.6483V95.6621V95.6759V95.6898V95.7036V95.7175V95.7314V95.7452V95.7591V95.773V95.7869V95.8008V95.8147V95.8286V95.8426V95.8565V95.8704V95.8844V95.8983V95.9123V95.9262V95.9402V95.9542V95.9681V95.9821V95.9961V96.0101V96.0241V96.0381V96.0521V96.0661V96.0801V96.0941V96.1081V96.1222V96.1362V96.1502V96.1643V96.1783V96.1923V96.2064V96.2204V96.2345V96.2485V96.2626V96.2766V96.2907V96.3048V96.3188V96.3329V96.3469V96.361V96.3751V96.3891V96.4032V96.4173V96.4314V96.4454V96.4595V96.4736V96.4876V96.5017V96.5158V96.5298V96.5439V96.558V96.5721V96.5861V96.6002V96.6143V96.6283V96.6424V96.6564V96.6705V96.6845V96.6986V96.7127V96.7267V96.7407V96.7548V96.7688V96.7829V96.7969V96.8109V96.825V96.839V96.853V96.867V96.881V96.895V96.909V96.923V96.937V96.951V96.965V96.979V96.993V97.007V97.0209V97.0349V97.0488V97.0628V97.0767V97.0907V97.1046V97.1185V97.1324V97.1463V97.1602V97.1741V97.188V97.2019V97.2158V97.2296V97.2435V97.2573V97.2712V97.285V97.2988V97.3127V97.3265V97.3403V97.3541V97.3678V97.3816V97.3954V97.4091V97.4229V97.4366V97.4503V97.4641V97.4778V97.4915V97.5051V97.5188V97.5325V97.5461V97.5598V97.5734V97.587V97.6006V97.6142V97.6278V97.6414V97.6549V97.6685V97.682V97.6955V97.7091V97.7225V97.736V97.7495V97.763V97.7764V97.7898V97.8033V97.8167V97.8301V97.8434V97.8568V97.8701V97.8835V97.8968V97.9101V97.9234V97.9367V97.9499V97.9632V97.9764V97.9896V98.0028V98.016V98.0292V98.0423V98.0554V98.0686V98.0816V98.0947V98.1078V98.1208V98.1339V98.1469V98.1599V98.1729V98.1858V98.1988V98.2117V98.2246V98.2375V98.2504V98.2632V98.2761V98.2889V98.3017V98.3144V98.3272V98.3399V98.3527V98.3654V98.378V98.3907V98.4033V98.4159V98.4285V98.4411V98.4537V98.4662V98.4787V98.4912V98.5037V98.5161V98.5286V98.541V98.5534V98.5657V98.5781V98.5904V98.6027V98.615V98.6272V98.6394V98.6516V98.6638V98.676V98.6881V98.7002V98.7123V98.7244V98.7364V98.7484V98.7604V98.7724V98.7843V98.7962V98.8081V98.82V98.8318V98.8437V98.8554V98.8672V98.879V98.8907V98.9024V98.914V98.9256V98.9373V98.9488V98.9604V98.9719V98.9834V98.9949V99.0063V99.0178V99.0292V99.0405V99.0518V99.0632V99.0744V99.0857V99.0969V99.1081V99.1193V99.1304V99.1415V99.1526V99.1636V99.1747V99.1857V99.1966V99.2075V99.2184V99.2293V99.2402V99.251V99.2617V99.2725V99.2832V99.2939V99.3045V99.3152V99.3258V99.3363V99.3468V99.3573V99.3678V99.3782V99.3886V99.399V99.4093V99.4196V99.4299V99.4401V99.4503V99.4605V99.4707V99.4808V99.4908V99.5009V99.5109V99.5208V99.5308V99.5407V99.5505V99.5603V99.5701V99.5799V99.5896V99.5993V99.609V99.6186V99.6282V99.6377Z" fill="white" stroke="white" stroke-width="1.5387"/>
</svg>
