<svg width="26" height="24" viewBox="0 0 60 24" fill="none" xmlns="http://www.w3.org/2000/svg">
<g style="transform: scale(3); transform-origin: center center">
<path d="M22.8074 12.7283C22.8074 12.3284 23.1316 12.0042 23.5315 12.0042H27.876C28.2759 12.0042 28.6001 12.3284 28.6001 12.7283C28.6001 13.1282 28.2759 13.4524 27.876 13.4524H23.5315C23.1316 13.4524 22.8074 13.1282 22.8074 12.7283Z" fill="#666666"/>
<path d="M28.464 10.2005L28.102 11.6487L27.7399 10.2005L26.2917 9.83845L27.7399 9.4764L28.102 8.02822L28.464 9.4764L29.9122 9.83845L28.464 10.2005Z" fill="#666666"/>
<path d="M22.8074 6.93555C22.8074 6.53564 23.1316 6.21146 23.5315 6.21146H25.7037H27.876C28.2759 6.21146 28.6001 6.53564 28.6001 6.93555C28.6001 7.33545 28.2759 7.65964 27.876 7.65964H23.5315C23.1316 7.65964 22.8074 7.33545 22.8074 6.93555Z" fill="#666666"/>
<path d="M25.3714 9.10782H21.0268C20.6269 9.10782 20.3027 9.43201 20.3027 9.83191C20.3027 10.2318 20.6269 10.556 21.0268 10.556H25.3714C25.7713 10.556 26.0955 10.2318 26.0955 9.83191C26.0955 9.43201 25.7713 9.10782 25.3714 9.10782Z" fill="#666666"/>
<path d="M39.6451 20.944C39.9435 20.6455 39.9435 20.1617 39.6451 19.8633L35.4404 15.6586C35.0885 15.3067 35.0546 14.7526 35.3121 14.3268C36.1043 13.0169 36.565 11.4756 36.565 9.83191C36.565 5.05291 32.6549 1.14282 27.8759 1.14282C25.7781 1.14282 23.7919 1.86833 22.2113 3.27036C21.8401 3.59963 21.8583 4.1701 22.2132 4.51697C22.5926 4.88791 23.206 4.85435 23.6306 4.53608C24.9606 3.53911 26.7835 3.20841 27.8759 3.20841C31.5536 3.20841 34.3781 6.53132 34.3781 9.83191C34.3781 13.8144 31.8584 16.8323 27.8759 16.8323C25.9549 16.8323 24.1473 16.2843 22.8033 15.0059C22.5101 14.7269 22.0485 14.6844 21.7426 14.9495C21.4482 15.2046 21.4076 15.65 21.6787 15.9299C23.2645 17.5671 25.5106 18.521 27.8759 18.521C29.7715 18.521 31.3784 18.1313 32.506 17.3837C32.924 17.1066 33.4824 17.0602 33.8806 17.3651L38.6402 21.0103C38.9444 21.2433 39.3741 21.2149 39.6451 20.944Z" fill="#666666"/>
<path d="M21.0927 7.48565L20.412 8.98452L19.7459 7.48565L18.2397 6.81224L19.7459 6.13884L20.412 4.63997L21.0927 6.13884L22.5843 6.81224L21.0927 7.48565Z" fill="#666666"/>
<path d="M21.6587 12.9485L21.4561 13.7587L21.2536 12.9485L20.4435 12.746L21.2536 12.5435L21.4561 11.7334L21.6587 12.5435L22.4688 12.746L21.6587 12.9485Z" fill="#666666"/>
</g>
</svg>
