<svg  width="20" height="20" viewBox="0 0 20 20" fill="none" xmlns="http://www.w3.org/2000/svg">
<path fill-rule="evenodd" clip-rule="evenodd" d="M21.768 0.239746C23.7084 0.239746 25.285 1.7397 25.285 3.59965C25.285 4.69454 24.7387 5.68547 23.9058 6.31543C25.2838 6.86153 26.4794 7.99351 27.0801 9.41983C27.3226 10.0198 27.262 10.7398 26.8981 11.2798C26.4737 11.8798 25.8673 12.2397 25.1396 12.2397L18.3116 12.2394C17.5839 12.2394 16.9775 11.8794 16.553 11.2794C16.1892 10.7395 16.1286 10.0195 16.3711 9.4195C16.9775 7.97954 18.1903 6.83957 19.585 6.29959C18.7967 5.69961 18.3116 4.73963 18.3116 3.65965C18.3116 1.7997 19.8882 0.239746 21.768 0.239746ZM19.5243 3.65965C19.5243 2.45968 20.5552 1.43971 21.768 1.43971C22.9808 1.43971 24.0116 2.45968 24.0116 3.65965C24.0116 4.85963 22.9808 5.8796 21.768 5.8796C20.5552 5.8796 19.5243 4.85963 19.5243 3.65965ZM17.6445 10.6195C17.7658 10.8595 18.069 11.0394 18.3722 11.0394L25.079 11.0398C25.3822 11.0398 25.6854 10.8598 25.8066 10.6198C25.9886 10.3798 25.9886 10.1398 25.8673 9.83982C25.152 8.18839 23.5577 7.05877 21.7181 7.02088C19.8848 7.06457 18.2973 8.19254 17.5839 9.83948C17.4626 10.1395 17.4626 10.3795 17.6445 10.6195Z" fill="#666666"/>
<path fill-rule="evenodd" clip-rule="evenodd" d="M5.76798 0.239746C7.70842 0.239746 9.28503 1.7397 9.28503 3.59965C9.28503 4.69454 8.73869 5.68547 7.90579 6.31543C9.28381 6.86153 10.4794 7.99351 11.0801 9.41983C11.3226 10.0198 11.262 10.7398 10.8981 11.2798C10.4737 11.8798 9.86728 12.2397 9.13961 12.2397L2.31156 12.2394C1.58389 12.2394 0.977507 11.8794 0.553035 11.2794C0.189203 10.7395 0.128564 10.0195 0.371119 9.4195C0.977507 7.97954 2.19028 6.83957 3.58497 6.29959C2.79667 5.69961 2.31156 4.73963 2.31156 3.65965C2.31156 1.7997 3.88817 0.239746 5.76798 0.239746ZM3.52434 3.65965C3.52434 2.45968 4.5552 1.43971 5.76798 1.43971C6.98075 1.43971 8.01161 2.45968 8.01161 3.65965C8.01161 4.85963 6.98075 5.8796 5.76798 5.8796C4.5552 5.8796 3.52434 4.85963 3.52434 3.65965ZM1.64453 10.6195C1.76581 10.8595 2.069 11.0394 2.3722 11.0394L9.07897 11.0398C9.38217 11.0398 9.68536 10.8598 9.80664 10.6198C9.98856 10.3798 9.98856 10.1398 9.86728 9.83982C9.15197 8.18839 7.55771 7.05877 5.7181 7.02088C3.88482 7.06457 2.29726 8.19254 1.58389 9.83948C1.46262 10.1395 1.46262 10.3795 1.64453 10.6195Z" fill="#666666"/>
<path fill-rule="evenodd" clip-rule="evenodd" d="M13.7911 0.239746C16.79 0.239746 19.2265 2.61468 19.2265 5.55959C19.2265 7.29317 18.3822 8.86214 17.095 9.85958C19.2247 10.7242 21.0724 12.5165 22.0007 14.7749C22.3755 15.7248 22.2818 16.8648 21.7195 17.7198C21.0635 18.6698 20.1264 19.2397 19.0018 19.2397L8.44936 19.2392C7.32479 19.2392 6.38765 18.6692 5.73164 17.7193C5.16936 16.8643 5.07564 15.7243 5.4505 14.7744C6.38765 12.4944 8.26193 10.6895 10.4174 9.8345C9.19908 8.88452 8.44936 7.36457 8.44936 5.65459C8.44936 2.70967 10.8859 0.239746 13.7911 0.239746ZM8.54308 17.3393C8.07451 17.3393 7.60593 17.0543 7.4185 16.6743C7.13736 16.2943 7.13736 15.9143 7.32479 15.4393C8.42727 12.8317 10.8808 11.0457 13.714 10.9765C16.557 11.0365 19.0209 12.8251 20.1264 15.4399C20.3138 15.9148 20.3138 16.2948 20.0327 16.6748C19.8452 17.0548 19.3767 17.3398 18.9081 17.3398L8.54308 17.3393ZM13.7911 2.13969C11.9168 2.13969 10.3237 3.75464 10.3237 5.65459C10.3237 7.55456 11.9168 9.16951 13.7911 9.16951C15.6654 9.16951 17.2585 7.55456 17.2585 5.65459C17.2585 3.75464 15.6654 2.13969 13.7911 2.13969Z" fill="#666666"/>
</svg>
