<svg width="24" height="26" viewBox="0 0 20 19" fill="none" xmlns="http://www.w3.org/2000/svg">
<path fill-rule="evenodd" clip-rule="evenodd" d="M10.7429 2.2354C10.2732 1.92153 9.7268 1.92153 9.2571 2.2354L9.2401 2.24654L3.06101 6.19667C2.37822 6.63225 2 7.38393 2 8.1372V16.5761C2 17.3728 2.62926 18 3.41791 18H16.5821C17.3707 18 18 17.3728 18 16.5761V8.1372C18 7.35819 17.5879 6.65983 16.9196 6.18424L10.7599 2.24654L10.7429 2.2354ZM11.845 0.566489C10.7073 -0.188821 9.2927 -0.188831 8.155 0.566469L1.98456 4.51106C1.98441 4.51116 1.98471 4.51097 1.98456 4.51106C0.69748 5.33237 0 6.73593 0 8.1372V16.5761C0 18.4726 1.51999 20 3.41791 20H16.5821C18.48 20 20 18.4726 20 16.5761V8.1372C20 6.5883 19.1651 5.31662 18.052 4.53556C18.0403 4.5273 18.0283 4.5193 18.0162 4.51157L11.845 0.566489Z" fill="#666666" stroke="#666666" stroke-width="0.3"/>
</svg>
