<svg width="21" height="21" viewBox="0 0 21 21" fill="none" xmlns="http://www.w3.org/2000/svg">
<g id="exercise">
<path id="Vector" d="M14.8001 9.42459C15.3362 9.98925 16.2686 10.0488 16.7546 9.58727L19.3026 7.16805C19.7891 6.70616 19.6482 5.89517 19.112 5.33052L15.44 1.46303C14.9041 0.898606 14.173 0.791178 13.6865 1.25306L11.1385 3.67229C10.6525 4.1338 10.5921 4.99268 11.128 5.55711L11.2719 5.70862L5.39196 11.2914L5.2481 11.1399C4.7122 10.5755 3.9811 10.4681 3.49463 10.93L0.946667 13.3492C0.460594 13.8107 0.400256 14.6696 0.936164 15.234L4.60824 19.1015C5.14436 19.6661 6.07671 19.7257 6.56279 19.2642L9.11075 16.8449C9.59722 16.3831 9.45631 15.5721 8.92018 15.0074L8.84804 14.9314L14.728 9.34861L14.8001 9.42459ZM15.4761 8.56647L12.02 4.92648L11.912 4.81273C11.8535 4.75108 11.9494 4.63272 12.0025 4.58229L14.5505 2.16306C14.6036 2.11263 14.5974 2.14576 14.656 2.20741L18.3281 6.0749C18.3868 6.13678 18.4919 6.20743 18.4386 6.25805L15.8906 8.67727C15.8375 8.72771 15.6428 8.7421 15.5841 8.68022L15.4761 8.56647ZM8.24673 15.9349L5.69877 18.3542C5.64565 18.4046 5.45098 18.419 5.39223 18.3571L1.72015 14.4896C1.66162 14.428 1.75757 14.3096 1.81069 14.2592L4.35865 11.84C4.41177 11.7895 4.40558 11.8227 4.46412 11.8843L4.57212 11.9981L8.02819 15.638L8.13619 15.7518C8.19495 15.8137 8.30004 15.8843 8.24673 15.9349ZM8.964 13.091L7.98402 14.0214L6.25598 12.2014L7.23597 11.271L8.964 13.091ZM12.492 9.74127L9.356 12.7188L7.62796 10.8988L10.7639 7.92128L12.492 9.74127ZM12.884 9.36908L11.1559 7.54909L12.1359 6.61862L13.8639 8.43861L12.884 9.36908Z" fill="#555555"/>
</g>
</svg>
