<svg width="15" height="16" viewBox="0 0 15 16" fill="none" xmlns="http://www.w3.org/2000/svg">
<g id="7787580_home_house_building_estate_property_icon 1">
<path id="Vector" d="M12.6375 5.42562L8.8875 2.46312C8.49152 2.15293 8.00301 1.98437 7.5 1.98438C6.99699 1.98438 6.50848 2.15293 6.1125 2.46312L2.3625 5.42562C2.09426 5.63455 1.87716 5.90187 1.72771 6.20727C1.57826 6.51267 1.50039 6.84811 1.5 7.18812V12.8506C1.50119 13.2481 1.6596 13.6289 1.94065 13.91C2.2217 14.191 2.60254 14.3494 3 14.3506H5.1375C5.53496 14.3494 5.9158 14.191 6.19685 13.91C6.4779 13.6289 6.63631 13.2481 6.6375 12.8506V10.0381H8.7V12.8506C8.70119 13.2481 8.8596 13.6289 9.14065 13.91C9.4217 14.191 9.80254 14.3494 10.2 14.3506H12C12.3975 14.3494 12.7783 14.191 13.0593 13.91C13.3404 13.6289 13.4988 13.2481 13.5 12.8506V7.18812C13.4996 6.84811 13.4217 6.51267 13.2723 6.20727C13.1228 5.90187 12.9057 5.63455 12.6375 5.42562ZM12 12.8506H10.2V10.0381C10.1988 9.64066 10.0404 9.25982 9.75935 8.97877C9.4783 8.69772 9.09746 8.53931 8.7 8.53812H6.6375C6.24004 8.53931 5.8592 8.69772 5.57815 8.97877C5.2971 9.25982 5.13869 9.64066 5.1375 10.0381V12.8506H3V7.18812C3.00243 7.07213 3.03061 6.95813 3.08249 6.85437C3.13437 6.7506 3.20867 6.65966 3.3 6.58812L7.05 3.62562C7.3125 3.40062 7.6875 3.40062 7.9875 3.62562L11.7375 6.58812C11.8288 6.65966 11.9031 6.7506 11.955 6.85437C12.0069 6.95813 12.0351 7.07213 12.0375 7.18812V12.8506H12Z" fill="#545454"/>
</g>
</svg>
