<svg width="16" height="13" viewBox="0 0 16 13" fill="none" xmlns="http://www.w3.org/2000/svg">
<g id="Group 514046">
<g id="Group 514045">
<path id="Vector" d="M9.13825 12.668C8.52903 12.668 8.52903 12.0964 8.52903 11.5251C8.52903 10.9538 8.33648 10.6344 7.99373 10.3129C7.65098 9.99144 7.18611 9.81083 6.70138 9.81083H3.04608C2.56136 9.81083 2.09649 9.99144 1.75374 10.3129C1.41099 10.6344 1.21843 10.9538 1.21843 11.5251C1.21843 12.0964 1.21885 12.668 0.609217 12.668C-0.000416806 12.668 7.77482e-10 12.0964 7.77372e-10 11.5251C7.77261e-10 10.9538 0.320926 10.0406 0.892177 9.50481C1.46343 8.96899 2.23821 8.66797 3.04608 8.66797H6.70138C7.50925 8.66797 8.28404 8.96899 8.85529 9.50481C9.42654 10.0406 9.74747 10.9538 9.74747 11.5251C9.74747 12.0964 9.74747 12.668 9.13825 12.668ZM4.87373 7.52511C4.39371 7.52511 3.91839 7.43643 3.47491 7.26413C3.03143 7.09182 2.62847 6.83928 2.28905 6.52091C1.94962 6.20253 1.68037 5.82457 1.49668 5.4086C1.31298 4.99262 1.21843 4.54679 1.21843 4.09654C1.21843 3.64629 1.31298 3.20046 1.49668 2.78448C1.68037 2.36851 1.94962 1.99055 2.28905 1.67217C2.62847 1.3538 3.03143 1.10125 3.47491 0.928953C3.91839 0.756651 4.39371 0.667969 4.87373 0.667969C5.84318 0.667969 6.77292 1.02919 7.45842 1.67217C8.14392 2.31516 8.52903 3.18723 8.52903 4.09654C8.52903 5.00585 8.14392 5.87792 7.45842 6.52091C6.77292 7.16389 5.84318 7.52511 4.87373 7.52511ZM4.87373 6.38225C5.52003 6.38225 6.13986 6.14144 6.59686 5.71278C7.05386 5.28413 7.3106 4.70275 7.3106 4.09654C7.3106 3.49033 7.05386 2.90895 6.59686 2.4803C6.13986 2.05164 5.52003 1.81083 4.87373 1.81083C4.22744 1.81083 3.60761 2.05164 3.15061 2.4803C2.69361 2.90895 2.43687 3.49033 2.43687 4.09654C2.43687 4.70275 2.69361 5.28413 3.15061 5.71278C3.60761 6.14144 4.22744 6.38225 4.87373 6.38225Z" fill="#555555"/>
</g>
<g id="Group 514044">
<g id="Group 39214">
<path id="Vector 296" d="M15.002 6.83789L9.54679 6.83789" stroke="#555555" stroke-width="0.942857" stroke-linecap="round"/>
</g>
<g id="Group 39214_2">
<path id="Vector 296_2" d="M12.2754 9.58203L12.2754 4.09632" stroke="#555555" stroke-width="0.942857" stroke-linecap="round"/>
</g>
</g>
</g>
</svg>
