<svg width="15" height="16" viewBox="0 0 15 16" fill="none" xmlns="http://www.w3.org/2000/svg">
<g id="9081701_zodiac_leo_icon 1" clip-path="url(#clip0_28_581)">
<path id="Vector" d="M8.125 11.1055C8.125 11.7685 8.38839 12.4044 8.85723 12.8732C9.32607 13.3421 9.96196 13.6055 10.625 13.6055C11.288 13.6055 11.9239 13.3421 12.3928 12.8732C12.8616 12.4044 13.125 11.7685 13.125 11.1055" stroke="#555555" stroke-width="2" stroke-linecap="round" stroke-linejoin="round"/>
<path id="Vector_2" d="M3.75 12.3555C4.78553 12.3555 5.625 11.516 5.625 10.4805C5.625 9.44493 4.78553 8.60547 3.75 8.60547C2.71447 8.60547 1.875 9.44493 1.875 10.4805C1.875 11.516 2.71447 12.3555 3.75 12.3555Z" stroke="#555555" stroke-width="2" stroke-linecap="round" stroke-linejoin="round"/>
<path id="Vector_3" d="M6.875 7.35547C8.25571 7.35547 9.375 6.23618 9.375 4.85547C9.375 3.47476 8.25571 2.35547 6.875 2.35547C5.49429 2.35547 4.375 3.47476 4.375 4.85547C4.375 6.23618 5.49429 7.35547 6.875 7.35547Z" stroke="#555555" stroke-width="2" stroke-linecap="round" stroke-linejoin="round"/>
<path id="Vector_4" d="M4.375 4.85547C4.375 6.73047 5.625 7.98047 5.625 10.4805" stroke="#555555" stroke-width="2" stroke-linecap="round" stroke-linejoin="round"/>
<path id="Vector_5" d="M9.375 4.85547C9.375 7.35547 8.125 8.60547 8.125 11.1055" stroke="#555555" stroke-width="2" stroke-linecap="round" stroke-linejoin="round"/>
</g>
<defs>
<clipPath id="clip0_28_581">
<rect width="15" height="15" fill="white" transform="translate(0 0.480469)"/>
</clipPath>
</defs>
</svg>
