<svg width="13" height="13" viewBox="0 0 13 13" fill="none" xmlns="http://www.w3.org/2000/svg">
<g clip-path="url(#clip0_9_250)">
<path d="M9.76634 5.73831C9.96893 6.08987 10.3022 6.34713 10.6937 6.45404C11.0851 6.56095 11.5029 6.50884 11.8561 6.30907C11.8976 6.68016 11.8223 7.05498 11.6408 7.38129C11.4593 7.7076 11.1805 7.96917 10.8433 8.12955L10.8427 11.3792H7.25305V10.3536C7.25313 10.0949 7.15541 9.84565 6.97947 9.65591C6.80353 9.46618 6.56237 9.34997 6.30435 9.33056L6.22743 9.328C5.96867 9.32791 5.71945 9.42564 5.52972 9.60158C5.33999 9.77752 5.22377 10.0187 5.20436 10.2767L5.2018 10.3536V11.3792H1.61211V8.13007C1.27425 7.96991 0.994831 7.70823 0.812888 7.38158C0.630945 7.05493 0.555559 6.67961 0.597258 6.30804C0.950399 6.50822 1.36836 6.56067 1.76001 6.45394C2.15166 6.34721 2.48523 6.08997 2.68799 5.73831H9.76634ZM9.2684 6.76393H3.18593L3.14696 6.80445C2.92594 7.01983 2.66748 7.19418 2.38492 7.31828L2.33569 7.33828L2.63774 7.48187L2.63723 10.3536L4.17669 10.3531V10.3162L4.18182 10.2018C4.25823 9.168 5.09462 8.35622 6.1582 8.30545L6.26486 8.30288L6.37922 8.30801C6.87773 8.34499 7.34559 8.56274 7.69488 8.92034C8.04417 9.27794 8.25086 9.75079 8.27611 10.25L8.27816 10.3531L9.81711 10.3536L9.81763 7.48187L10.1186 7.33828L10.0699 7.31777C9.78709 7.19392 9.52894 7.02002 9.30789 6.80445L9.2684 6.76393ZM8.80995 2.14862C8.84663 2.40303 8.93752 2.64659 9.07649 2.86282C9.21545 3.07906 9.39923 3.26293 9.6154 3.40198C9.83157 3.54104 10.0751 3.63205 10.3295 3.66884C10.5839 3.70564 10.8432 3.68737 11.0899 3.61526C11.046 4.04017 10.852 4.43548 10.5427 4.73016C10.2335 5.02484 9.82929 5.19956 9.40276 5.22293L9.3043 5.2255H3.15055C2.70644 5.22557 2.27808 5.06099 1.94826 4.76357C1.61845 4.46615 1.41062 4.05702 1.36494 3.61526C1.61165 3.68737 1.87098 3.70564 2.12537 3.66884C2.37976 3.63205 2.62328 3.54104 2.83945 3.40198C3.05562 3.26293 3.23941 3.07906 3.37837 2.86282C3.51733 2.64659 3.60822 2.40303 3.6449 2.14862H8.80995ZM8.07355 3.17425H4.38079C4.19603 3.53601 3.93541 3.85366 3.6167 4.10551L3.48952 4.19987H8.96482L8.95866 4.19577C8.62882 3.96258 8.35272 3.66148 8.14893 3.3127L8.07355 3.17425Z" fill="#BBBABC"/>
</g>
<defs>
<clipPath id="clip0_9_250">
<rect width="12.3075" height="12.3075" fill="white" transform="translate(0.0735474 0.610321)"/>
</clipPath>
</defs>
</svg>
