<svg width="11" height="11" viewBox="0 0 11 11" fill="none" xmlns="http://www.w3.org/2000/svg">
<path d="M2.13733 8.61416C1.71299 8.61416 1.30603 8.43672 1.00598 8.12086C0.705922 7.805 0.537354 7.3766 0.537354 6.92991V2.52495C0.537354 2.07826 0.705922 1.64986 1.00598 1.334C1.30603 1.01815 1.71299 0.840698 2.13733 0.840698H8.78338C8.99349 0.840698 9.20154 0.884263 9.39566 0.968904C9.58978 1.05355 9.76616 1.17761 9.91473 1.334C10.0633 1.4904 10.1812 1.67607 10.2616 1.88041C10.342 2.08476 10.3834 2.30377 10.3834 2.52495V6.92991C10.3834 7.15109 10.342 7.3701 10.2616 7.57445C10.1812 7.77879 10.0633 7.96446 9.91473 8.12086C9.76616 8.27725 9.58978 8.40132 9.39566 8.48596C9.20154 8.5706 8.99349 8.61416 8.78338 8.61416H5.95856L3.49115 10.5575C3.39973 10.6296 3.29106 10.6734 3.17732 10.6841C3.06357 10.6948 2.94924 10.672 2.84711 10.6183C2.74497 10.5645 2.65907 10.4818 2.59902 10.3796C2.53896 10.2773 2.50711 10.1595 2.50705 10.0393V8.61416H2.13782H2.13733ZM5.7134 7.83682H8.78338C9.01187 7.83682 9.231 7.74127 9.39257 7.57119C9.55414 7.40111 9.6449 7.17044 9.6449 6.92991V2.52495C9.6449 2.28442 9.55414 2.05375 9.39257 1.88367C9.231 1.71359 9.01187 1.61804 8.78338 1.61804H2.13733C1.90884 1.61804 1.68971 1.71359 1.52814 1.88367C1.36657 2.05375 1.2758 2.28442 1.2758 2.52495V6.92991C1.2758 7.43052 1.66177 7.83682 2.13733 7.83682H3.24451V9.78018L5.7134 7.83682Z" fill="#BDBDBD"/>
</svg>
