<?xml version="1.0" encoding="UTF-8"?>
<svg xmlns="http://www.w3.org/2000/svg" xmlns:xlink="http://www.w3.org/1999/xlink" width="15px" height="16px" viewBox="0 0 15 13" version="1.1">
<g id="surface1">
<path style=" stroke:none;fill-rule:nonzero;fill:rgb(74.117647%,74.117647%,74.117647%);fill-opacity:1;" d="M 14.636719 6.34375 C 14.613281 6.292969 14.109375 5.175781 12.984375 4.054688 C 11.859375 2.9375 10.152344 1.769531 7.523438 1.769531 C 4.898438 1.769531 3.105469 3.011719 2.0625 4.054688 C 1.023438 5.101562 0.433594 6.292969 0.410156 6.34375 C 0.390625 6.386719 0.378906 6.4375 0.378906 6.488281 C 0.378906 6.539062 0.390625 6.585938 0.410156 6.632812 C 0.433594 6.679688 0.9375 7.800781 2.0625 8.917969 C 3.191406 10.039062 4.898438 11.207031 7.523438 11.207031 C 10.152344 11.207031 11.941406 9.964844 12.984375 8.917969 C 14.023438 7.871094 14.613281 6.679688 14.636719 6.632812 C 14.65625 6.585938 14.667969 6.539062 14.667969 6.488281 C 14.667969 6.4375 14.65625 6.386719 14.636719 6.34375 Z M 7.523438 10.480469 C 5.621094 10.480469 3.964844 9.789062 2.597656 8.429688 C 2.019531 7.859375 1.53125 7.203125 1.148438 6.488281 C 1.53125 5.773438 2.019531 5.117188 2.597656 4.546875 C 3.964844 3.183594 5.621094 2.496094 7.523438 2.496094 C 9.425781 2.496094 11.082031 3.183594 12.449219 4.546875 C 13.027344 5.117188 13.515625 5.773438 13.898438 6.488281 C 13.511719 7.226562 11.578125 10.480469 7.523438 10.480469 Z M 7.523438 3.707031 C 6.972656 3.707031 6.433594 3.867188 5.976562 4.175781 C 5.519531 4.480469 5.160156 4.914062 4.953125 5.421875 C 4.742188 5.929688 4.683594 6.492188 4.792969 7.03125 C 4.898438 7.570312 5.164062 8.066406 5.554688 8.457031 C 5.945312 8.84375 6.441406 9.109375 6.980469 9.214844 C 7.519531 9.324219 8.082031 9.269531 8.589844 9.058594 C 9.097656 8.847656 9.53125 8.492188 9.839844 8.035156 C 10.144531 7.574219 10.308594 7.039062 10.308594 6.488281 C 10.308594 5.75 10.015625 5.042969 9.492188 4.519531 C 8.96875 4 8.261719 3.707031 7.523438 3.707031 Z M 7.523438 8.542969 C 7.117188 8.542969 6.71875 8.421875 6.378906 8.199219 C 6.042969 7.972656 5.777344 7.652344 5.621094 7.273438 C 5.464844 6.898438 5.425781 6.484375 5.503906 6.085938 C 5.585938 5.6875 5.78125 5.320312 6.070312 5.035156 C 6.355469 4.746094 6.722656 4.550781 7.121094 4.472656 C 7.519531 4.390625 7.933594 4.433594 8.3125 4.589844 C 8.6875 4.742188 9.007812 5.007812 9.234375 5.34375 C 9.460938 5.683594 9.582031 6.082031 9.582031 6.488281 C 9.582031 7.03125 9.363281 7.554688 8.976562 7.941406 C 8.589844 8.324219 8.070312 8.542969 7.523438 8.542969 Z M 7.523438 8.542969 "/>
</g>
</svg>
