<svg width="13" height="12" viewBox="0 0 13 12" fill="none" xmlns="http://www.w3.org/2000/svg">
<path fill-rule="evenodd" clip-rule="evenodd" d="M11.4938 6.47067C11.6433 6.21489 11.6433 5.89839 11.4938 5.64261L9.40608 2.07061C9.25895 1.81888 8.98928 1.66414 8.69771 1.66414L4.48973 1.66414C4.19816 1.66414 3.92849 1.81888 3.78136 2.07061L1.6936 5.64261C1.5441 5.89839 1.5441 6.21489 1.6936 6.47067L3.78136 10.0427C3.92849 10.2944 4.19816 10.4491 4.48973 10.4491L8.69771 10.4491C8.98928 10.4491 9.25895 10.2944 9.40608 10.0427L11.4938 6.47067ZM9.09928 11.149C9.39085 11.149 9.66053 10.9942 9.80766 10.7425L12.3045 6.47067C12.454 6.21489 12.454 5.89839 12.3045 5.64261L9.80766 1.37076C9.66053 1.11903 9.39085 0.964294 9.09928 0.964294L4.08816 0.964294C3.79659 0.964294 3.52692 1.11903 3.37978 1.37076L0.882986 5.64261C0.733489 5.89839 0.733489 6.21489 0.882986 6.47067L3.37979 10.7425C3.52692 10.9942 3.79659 11.149 4.08816 11.149L9.09928 11.149Z" fill="white"/>
<path fill-rule="evenodd" clip-rule="evenodd" d="M7.03108 3.41105C7.03108 3.21002 6.86812 3.04706 6.66709 3.04706C6.46606 3.04706 6.3031 3.21002 6.3031 3.41105V7.52714C6.3031 7.72817 6.46606 7.89113 6.66709 7.89113C6.86812 7.89113 7.03108 7.72817 7.03108 7.52714V3.41105ZM7.03108 8.70362C7.03108 8.50259 6.86812 8.33963 6.66709 8.33963C6.46606 8.33963 6.3031 8.50259 6.3031 8.70362C6.3031 8.90464 6.46606 9.06761 6.66709 9.06761C6.86812 9.06761 7.03108 8.90464 7.03108 8.70362Z" fill="white"/>
</svg>
