<svg width="13" height="13" viewBox="0 0 13 13" fill="none" xmlns="http://www.w3.org/2000/svg">
<g clip-path="url(#clip0_9_230)">
<path d="M1.09875 10.7146H11.355V11.7402H1.09875V10.7146ZM2.12438 6.61207H3.15V10.2018H2.12438V6.61207ZM4.68844 6.61207H5.71407V10.2018H4.68844V6.61207ZM6.73969 6.61207H7.76532V10.2018H6.73969V6.61207ZM9.30375 6.61207H10.3294V10.2018H9.30375V6.61207ZM1.09875 4.04801L6.22688 1.48395L11.355 4.04801V6.09926H1.09875V4.04801ZM2.12438 4.68185V5.07364H10.3294V4.68185L6.22688 2.6306L2.12438 4.68185ZM6.22688 4.56082C6.09087 4.56082 5.96044 4.50679 5.86427 4.41062C5.7681 4.31445 5.71407 4.18402 5.71407 4.04801C5.71407 3.912 5.7681 3.78157 5.86427 3.6854C5.96044 3.58923 6.09087 3.5352 6.22688 3.5352C6.36289 3.5352 6.49332 3.58923 6.58949 3.6854C6.68566 3.78157 6.73969 3.912 6.73969 4.04801C6.73969 4.18402 6.68566 4.31445 6.58949 4.41062C6.49332 4.50679 6.36289 4.56082 6.22688 4.56082Z" fill="#FE3C72"/>
</g>
<defs>
<clipPath id="clip0_9_230">
<rect width="12.3075" height="12.3075" fill="white" transform="translate(0.0735474 0.457611)"/>
</clipPath>
</defs>
</svg>
