<svg width="11" height="12" viewBox="0 0 11 12" fill="none" xmlns="http://www.w3.org/2000/svg">
<path d="M8.2571 7.73713C7.98357 7.73669 7.71276 7.7914 7.46085 7.89798C7.20894 8.00456 6.9811 8.16083 6.79094 8.35745L4.42765 6.83997C4.61213 6.36157 4.61213 5.83165 4.42765 5.35325L6.79094 3.83576C7.1234 4.17579 7.5637 4.38969 8.03648 4.44085C8.50927 4.49201 8.98513 4.37726 9.38263 4.11623C9.78014 3.8552 10.0746 3.46412 10.2155 3.00993C10.3565 2.55574 10.3352 2.06668 10.1553 1.62645C9.97545 1.18622 9.64817 0.822194 9.2295 0.596678C8.81082 0.371162 8.32679 0.298177 7.86024 0.390214C7.39369 0.482251 6.97363 0.733588 6.67195 1.10121C6.37028 1.46883 6.20575 1.92987 6.20652 2.40543C6.20735 2.65955 6.25424 2.91141 6.34494 3.14879L3.98165 4.66628C3.69713 4.37395 3.33188 4.17314 2.93262 4.08951C2.53337 4.00588 2.11824 4.04323 1.74032 4.1968C1.36241 4.35036 1.03888 4.61316 0.811107 4.95158C0.583335 5.29 0.46167 5.68867 0.46167 6.09661C0.46167 6.50455 0.583335 6.90322 0.811107 7.24164C1.03888 7.58006 1.36241 7.84285 1.74032 7.99642C2.11824 8.14998 2.53337 8.18734 2.93262 8.10371C3.33188 8.02008 3.69713 7.81926 3.98165 7.52694L6.34494 9.04442C6.25424 9.28181 6.20735 9.53367 6.20652 9.78779C6.20652 10.1934 6.32679 10.5898 6.55211 10.9271C6.77743 11.2643 7.09768 11.5271 7.47237 11.6823C7.84707 11.8376 8.25937 11.8782 8.65714 11.799C9.05491 11.7199 9.42029 11.5246 9.70707 11.2378C9.99385 10.951 10.1891 10.5856 10.2683 10.1878C10.3474 9.79006 10.3068 9.37774 10.1516 9.00303C9.99637 8.62833 9.73355 8.30806 9.39633 8.08273C9.05912 7.8574 8.66266 7.73713 8.2571 7.73713ZM8.2571 1.17504C8.50043 1.17504 8.73831 1.2472 8.94064 1.3824C9.14297 1.5176 9.30066 1.70976 9.39378 1.93458C9.48691 2.15941 9.51127 2.4068 9.4638 2.64547C9.41633 2.88414 9.29915 3.10338 9.12708 3.27545C8.95501 3.44752 8.73579 3.56471 8.49712 3.61218C8.25846 3.65966 8.01108 3.63529 7.78626 3.54217C7.56145 3.44904 7.36929 3.29134 7.2341 3.089C7.09891 2.88666 7.02675 2.64878 7.02675 2.40543C7.0281 2.07953 7.15816 1.76736 7.3886 1.5369C7.61904 1.30645 7.9312 1.17639 8.2571 1.17504ZM2.51549 7.327C2.27215 7.327 2.03428 7.25484 1.83195 7.11964C1.62962 6.98445 1.47192 6.79228 1.3788 6.56746C1.28568 6.34263 1.26132 6.09524 1.30879 5.85657C1.35626 5.6179 1.47344 5.39866 1.64551 5.22659C1.81757 5.05452 2.0368 4.93733 2.27546 4.88986C2.51413 4.84238 2.76151 4.86675 2.98632 4.95987C3.21114 5.053 3.40329 5.2107 3.53849 5.41304C3.67368 5.61538 3.74584 5.85326 3.74584 6.09661C3.74449 6.42251 3.61443 6.73468 3.38399 6.96514C3.15354 7.19559 2.84138 7.32565 2.51549 7.327ZM8.2571 11.0182C8.01376 11.0182 7.77588 10.946 7.57355 10.8108C7.37122 10.6756 7.21353 10.4835 7.12041 10.2586C7.02728 10.0338 7.00292 9.78642 7.05039 9.54775C7.09787 9.30907 7.21504 9.08984 7.38711 8.91777C7.55918 8.74569 7.7784 8.62851 8.01707 8.58103C8.25573 8.53356 8.50311 8.55793 8.72793 8.65105C8.95274 8.74418 9.1449 8.90188 9.28009 9.10422C9.41528 9.30655 9.48744 9.54444 9.48744 9.78779C9.48609 10.1137 9.35603 10.4259 9.12559 10.6563C8.89515 10.8868 8.58299 11.0168 8.2571 11.0182Z" fill="white"/>
</svg>
