<svg width="8" height="8" viewBox="0 0 8 8" fill="none" xmlns="http://www.w3.org/2000/svg">
<g clip-path="url(#clip0_185_1249)">
<path d="M6.19595 5.05249L4.38444 6.92837L2.57292 5.05249C2.21466 4.68148 1.97068 4.20879 1.87185 3.69419C1.77301 3.1796 1.82375 2.64621 2.01765 2.16147C2.21155 1.67674 2.5399 1.26243 2.96119 0.970939C3.38247 0.679447 3.87776 0.523865 4.38444 0.523865C4.89111 0.523865 5.3864 0.679447 5.80768 0.970939C6.22897 1.26243 6.55732 1.67674 6.75122 2.16147C6.94512 2.64621 6.99586 3.1796 6.89702 3.69419C6.79819 4.20879 6.55421 4.68148 6.19595 5.05249Z" fill="#FFAD32"/>
<rect opacity="0.3" x="2.46265" y="1.17212" width="3.84271" height="3.84271" rx="1.92135" fill="white"/>
</g>
<defs>
<clipPath id="clip0_185_1249">
<rect width="7.12596" height="7.12596" fill="white" transform="translate(0.876465 0.162842)"/>
</clipPath>
</defs>
</svg>
