<svg width="1em" height="1em" viewBox="0 0 10 9" fill="none" xmlns="http://www.w3.org/2000/svg">
  <path
    d="M8.78822 9.00684L5.89056 6.10918C5.62978 6.31781 5.32988 6.48297 4.99086 6.60467C4.65184 6.72637 4.29109 6.78722 3.9086 6.78722C2.96109 6.78722 2.15927 6.45898 1.50313 5.8025C0.847001 5.14602 0.518761 4.34419 0.518414 3.39703C0.518414 2.44951 0.846654 1.64769 1.50313 0.991556C2.15961 0.335424 2.96144 0.00718365 3.9086 0.00683594C4.85612 0.00683594 5.65794 0.335076 6.31407 0.991556C6.97021 1.64804 7.29845 2.44986 7.2988 3.39703C7.2988 3.77951 7.23795 4.14026 7.11625 4.47928C6.99455 4.8183 6.82938 5.1182 6.62076 5.37898L9.51841 8.27664L8.78822 9.00684ZM3.9086 5.74408C4.56056 5.74408 5.11482 5.51581 5.57136 5.05926C6.02791 4.60272 6.25601 4.04864 6.25566 3.39703C6.25566 2.74507 6.02739 2.19081 5.57084 1.73427C5.1143 1.27772 4.56022 1.04962 3.9086 1.04997C3.25664 1.04997 2.70239 1.27824 2.24585 1.73479C1.7893 2.19134 1.5612 2.74541 1.56155 3.39703C1.56155 4.04899 1.78982 4.60324 2.24637 5.05978C2.70291 5.51633 3.25699 5.74443 3.9086 5.74408Z"
    fill="#D9D9D9"
  />
  <path
    d="M8.78822 9.00684L5.89056 6.10918C5.62978 6.31781 5.32988 6.48297 4.99086 6.60467C4.65184 6.72637 4.29109 6.78722 3.9086 6.78722C2.96109 6.78722 2.15927 6.45898 1.50313 5.8025C0.847001 5.14602 0.518761 4.34419 0.518414 3.39703C0.518414 2.44951 0.846654 1.64769 1.50313 0.991556C2.15961 0.335424 2.96144 0.00718365 3.9086 0.00683594C4.85612 0.00683594 5.65794 0.335076 6.31407 0.991556C6.97021 1.64804 7.29845 2.44986 7.2988 3.39703C7.2988 3.77951 7.23795 4.14026 7.11625 4.47928C6.99455 4.8183 6.82938 5.1182 6.62076 5.37898L9.51841 8.27664L8.78822 9.00684ZM3.9086 5.74408C4.56056 5.74408 5.11482 5.51581 5.57136 5.05926C6.02791 4.60272 6.25601 4.04864 6.25566 3.39703C6.25566 2.74507 6.02739 2.19081 5.57084 1.73427C5.1143 1.27772 4.56022 1.04962 3.9086 1.04997C3.25664 1.04997 2.70239 1.27824 2.24585 1.73479C1.7893 2.19134 1.5612 2.74541 1.56155 3.39703C1.56155 4.04899 1.78982 4.60324 2.24637 5.05978C2.70291 5.51633 3.25699 5.74443 3.9086 5.74408Z"
    stroke="#D9D9D9"
  />
</svg>
