<svg width="14" height="13" viewBox="0 0 14 13" fill="none" xmlns="http://www.w3.org/2000/svg">
<path d="M11.6831 8.66009C11.6969 8.64444 11.7083 8.62671 11.7165 8.6075C11.9535 8.05415 12.082 7.46217 12.082 6.81275C12.082 6.40207 12.0246 6.00615 11.9234 5.63351C11.8962 5.53366 11.7946 5.47538 11.6929 5.49458C11.2925 5.57018 10.8762 5.61016 10.444 5.61016C9.42618 5.61119 8.42301 5.38122 7.51907 4.93963C6.72071 4.54962 6.02041 4.00463 5.46338 3.34186C5.36475 3.22451 5.17272 3.24664 5.1032 3.38326C4.46288 4.64176 3.38191 5.65671 2.03936 6.25371C1.97708 6.28141 1.9314 6.33794 1.92452 6.40575C1.911 6.5391 1.911 6.67796 1.911 6.81275C1.911 7.44359 2.04263 8.06825 2.29838 8.65107C2.55412 9.23389 2.92898 9.76346 3.40153 10.2095C4.35591 11.1104 5.65031 11.6165 7 11.6165C7.67135 11.6165 8.31934 11.4897 8.91196 11.2613C9.00754 11.2245 9.11689 11.2619 9.16629 11.3517C9.44464 11.8572 9.59847 12.153 9.63703 12.242C9.64518 12.2608 9.6359 12.2739 9.61636 12.28C8.48269 12.6372 7.60375 12.8125 7 12.8125C5.306 12.8125 3.689 12.1848 2.499 11.0549C1.81109 10.4075 1.29097 9.61968 0.978247 8.75293C0.949014 8.67191 0.872884 8.61664 0.78675 8.61664H0.2C0.0895431 8.61664 0 8.5271 0 8.41664V5.81016C0 5.6997 0.0895431 5.61016 0.2 5.61016H0.601846C0.695913 5.61016 0.776902 5.5445 0.799488 5.45318C1.04733 4.45119 1.56399 3.52514 2.30103 2.76463C3.07642 1.96456 4.0668 1.37756 5.16707 1.06591C6.26734 0.754265 7.43648 0.729593 8.5504 0.994517C9.66433 1.25944 10.6815 1.80408 11.494 2.57064C12.3357 3.36203 12.9221 4.36133 13.187 5.45226C13.2093 5.54402 13.2905 5.61016 13.3849 5.61016H13.8C13.9105 5.61016 14 5.6997 14 5.81016V8.58605C14 8.60295 13.9863 8.61664 13.9694 8.61664V8.61664C13.9621 8.61664 13.9549 8.61929 13.9494 8.62412L11.5317 10.7203C11.4898 10.7567 11.4347 10.774 11.3795 10.7681L7.93475 10.4C7.8331 10.3891 7.756 10.3033 7.756 10.2011V9.47741C7.756 9.36695 7.84554 9.27741 7.956 9.27741H11.0469C11.1042 9.27741 11.1587 9.25283 11.1967 9.20992L11.6831 8.66009ZM5.089 6.66077C5.299 6.66077 5.502 6.74007 5.649 6.88543C5.79673 7.02602 5.87963 7.21603 5.87963 7.41405C5.87963 7.61207 5.79673 7.80207 5.649 7.94266C5.502 8.08142 5.299 8.16071 5.089 8.16071C4.648 8.16071 4.291 7.83033 4.291 7.41405C4.291 6.99776 4.648 6.66077 5.089 6.66077ZM8.904 6.66077C9.345 6.66077 9.695 6.99776 9.695 7.41405C9.695 7.83033 9.345 8.16071 8.904 8.16071C8.463 8.16071 8.106 7.83033 8.106 7.41405C8.106 7.21427 8.19007 7.02267 8.33973 6.8814C8.48938 6.74014 8.69236 6.66077 8.904 6.66077Z" fill="white"/>
<path d="M1.18248 10.225C1.07686 10.0733 0.836091 10.1272 0.810181 10.3102L0.48816 12.5845C0.471111 12.7049 0.564574 12.8125 0.686184 12.8125H3.19685C3.42699 12.8125 3.50551 12.4018 3.30528 12.2883C2.4187 11.7859 1.78756 11.0938 1.18248 10.225Z" fill="white"/>
<path d="M10.2319 12.8125C10.0024 12.8125 9.94689 12.465 10.1595 12.3786C11.778 11.7213 11.2676 11.3098 12.9429 9.68947C13.0584 9.57773 13.2513 9.64427 13.2741 9.80338L13.6713 12.5842C13.6885 12.7047 13.595 12.8125 13.4733 12.8125H10.2319Z" fill="white"/>
</svg>
