<svg width="20" height="20" viewBox="0 0 20 20" fill="none" xmlns="http://www.w3.org/2000/svg">
<path d="M10.0114 0C10.7954 0.00867695 11.5763 0.0956516 12.3415 0.259529C12.6757 0.331068 12.9255 0.598473 12.9634 0.925089L13.1452 2.49109C13.2275 3.21012 13.8597 3.75472 14.6135 3.75548C14.816 3.75578 15.0165 3.71527 15.2037 3.63573L16.6999 3.00468C17.011 2.87343 17.3745 2.94499 17.6068 3.18321C18.688 4.29195 19.4932 5.62171 19.9618 7.07241C20.0629 7.38523 19.9466 7.72518 19.672 7.91951L18.3459 8.85807C17.9677 9.12495 17.7442 9.54874 17.7442 9.99951C17.7442 10.4502 17.9677 10.874 18.3467 11.1415L19.674 12.0803C19.9487 12.2746 20.0651 12.6146 19.9639 12.9275C19.4956 14.378 18.6908 15.7076 17.6103 16.8166C17.3781 17.0547 17.0149 17.1265 16.7037 16.9955L15.2015 16.3636C14.7718 16.183 14.2782 16.2095 13.8721 16.4349C13.466 16.6602 13.1956 17.0577 13.1441 17.5054L12.9634 19.0712C12.9263 19.3941 12.6818 19.6597 12.3527 19.7349C10.8054 20.0884 9.19346 20.0884 7.64631 19.7349C7.31718 19.6597 7.07272 19.3941 7.03549 19.0712L6.85515 17.5077C6.80219 17.0609 6.53149 16.6647 6.12567 16.44C5.71985 16.2154 5.22711 16.1891 4.79877 16.3687L3.29627 17.0007C2.98505 17.1316 2.62168 17.0598 2.38962 16.8215C1.30847 15.7113 0.50369 14.38 0.0358349 12.928C-0.0649248 12.6153 0.0515048 12.2755 0.326001 12.0814L1.65408 11.1419C2.03236 10.875 2.25577 10.4512 2.25577 10.0005C2.25577 9.54977 2.03236 9.12597 1.65359 8.85879L0.326343 7.92089C0.05143 7.72663 -0.0651064 7.38646 0.0360165 7.07343C0.504672 5.62273 1.30988 4.29297 2.39106 3.18423C2.62335 2.94602 2.98689 2.87446 3.29805 3.00571L4.79387 3.63665C5.22429 3.81802 5.71909 3.79063 6.1271 3.56174C6.53334 3.33549 6.8038 2.93767 6.85601 2.48989L7.03769 0.925089C7.07563 0.598309 7.32568 0.330811 7.65996 0.259426C8.42609 0.0958156 9.20788 0.00887182 10.0114 0ZM10.0116 1.53836C9.52662 1.54384 9.04296 1.58403 8.56474 1.65849L8.44831 2.6607C8.33957 3.59353 7.77663 4.42157 6.93319 4.89132C6.0846 5.36737 5.04997 5.42466 4.14974 5.04532L3.19022 4.64059C2.5793 5.35256 2.09305 6.15525 1.75059 7.01713L2.60276 7.61929C3.39192 8.17602 3.85802 9.06023 3.85802 10.0005C3.85802 10.9407 3.39192 11.825 2.60359 12.3811L1.75007 12.9849C2.09225 13.8482 2.57857 14.6524 3.18991 15.3658L4.15674 14.9591C5.05195 14.5838 6.07955 14.6387 6.92583 15.1071C7.77212 15.5755 8.33669 16.4018 8.44735 17.336L8.56378 18.3452C9.51402 18.5004 10.4849 18.5004 11.4351 18.3452L11.5515 17.3361C11.6592 16.4022 12.2231 15.5731 13.0704 15.1029C13.9177 14.6327 14.9473 14.5775 15.8442 14.9544L16.8103 15.3608C17.4211 14.6486 17.9072 13.8457 18.2495 12.9836L17.3973 12.3806C16.6081 11.8239 16.142 10.9397 16.142 9.99951C16.142 9.0592 16.6081 8.17499 17.3963 7.61896L18.2474 7.01652C17.905 6.15449 17.4186 5.35164 16.8076 4.63956L15.85 5.04347C15.4598 5.20925 15.0377 5.29458 14.6114 5.29394C13.0415 5.29236 11.724 4.1575 11.5527 2.66035L11.4363 1.65816C10.9604 1.5838 10.4819 1.54372 10.0116 1.53836ZM9.998 6.15381C12.2103 6.15381 14.0036 7.87579 14.0036 10C14.0036 12.1241 12.2103 13.8462 9.998 13.8462C7.78581 13.8462 5.99244 12.1241 5.99244 10C5.99244 7.87579 7.78581 6.15381 9.998 6.15381ZM9.998 7.69228C8.6707 7.69228 7.59468 8.72546 7.59468 10C7.59468 11.2745 8.6707 12.3077 9.998 12.3077C11.3254 12.3077 12.4014 11.2745 12.4014 10C12.4014 8.72546 11.3254 7.69228 9.998 7.69228Z" fill="#666666"/>
</svg>
