<svg width="20" height="21" viewBox="0 0 20 21" fill="none" xmlns="http://www.w3.org/2000/svg">
  <path d="M14.4363 19.1379L19.8882 3.14579C20.4334 1.60108 18.8886 0.0563882 17.344 0.601574L1.35182 6.05345C-0.465473 6.6895 -0.465473 9.23366 1.44268 9.77894L6.80368 11.2328C7.98492 11.5962 8.98445 12.5048 9.257 13.686L10.7108 19.047C11.2561 20.9552 13.8003 20.9552 14.4363 19.1379Z" fill="#FE3C72"/>
  <path d="M14.4363 19.1379L19.8882 3.14579C20.4334 1.60108 18.8886 0.0563882 17.344 0.601574L1.35182 6.05345C-0.465473 6.6895 -0.465473 9.23366 1.44268 9.77894L6.80368 11.2328C7.98492 11.5962 8.98445 12.5048 9.257 13.686L10.7108 19.047C11.2561 20.9552 13.8003 20.9552 14.4363 19.1379Z" fill="#FE3C72"/>
  <defs>
    <linearGradient id="paint0_linear_11_31" x1="20.1695" y1="-1.20992" x2="-5.58897" y2="46.014" gradientUnits="userSpaceOnUse">
      <stop stop-color="#FE3C72"/>
      <stop offset="1" stop-color="#FFB5E9"/>
    </linearGradient>
  </defs>
</svg>
