<svg width="20" height="20" viewBox="0 0 20 20" fill="none" xmlns="http://www.w3.org/2000/svg">
<path d="M6.80712 12.3191H5.91199C5.41966 12.3191 5.01685 12.7637 5.01685 13.307C5.01685 13.8504 5.41966 14.295 5.91199 14.295H6.80712C7.29945 14.295 7.70226 13.8504 7.70226 13.307C7.70226 12.7637 7.29945 12.3191 6.80712 12.3191Z" fill="#FE3C72"/>
<path d="M10.3879 11.3312H9.4928C9.00047 11.3312 8.59766 11.7758 8.59766 12.3192V13.3071C8.59766 13.8505 9.00047 14.2951 9.4928 14.2951H10.3879C10.8803 14.2951 11.2831 13.8505 11.2831 13.3071V12.3192C11.2831 11.7758 10.8803 11.3312 10.3879 11.3312Z" fill="#FE3C72"/>
<path d="M13.968 9.35651H13.0729C12.5805 9.35651 12.1777 9.80109 12.1777 10.3445V13.3083C12.1777 13.8517 12.5805 14.2963 13.0729 14.2963H13.968C14.4603 14.2963 14.8632 13.8517 14.8632 13.3083V10.3445C14.8632 9.80109 14.4603 9.35651 13.968 9.35651Z" fill="#FE3C72"/>
<path d="M14.4158 4.4151H11.4618C11.059 4.4151 10.88 4.95848 11.1486 5.25486L11.9989 6.19342C10.3429 8.26812 7.97081 9.84884 5.46442 9.84884C5.19587 9.84884 5.01685 10.0464 5.01685 10.3428C5.01685 10.6392 5.19587 10.8368 5.46442 10.8368C8.46313 10.8368 11.2381 9.89824 13.2521 7.57655L14.0578 8.46571C14.3263 8.76209 14.8186 8.5645 14.8186 8.11992V4.90908C14.8634 4.61269 14.6844 4.4151 14.4158 4.4151Z" fill="#FE3C72"/>
<rect x="1" y="0.994873" width="18" height="18" rx="3" stroke="#FE3C72" stroke-width="2"/>
</svg>
