<svg width="22" height="17" viewBox="0 0 22 17" fill="none" xmlns="http://www.w3.org/2000/svg">
<path d="M10.2727 5.2323H21.2727M1.27271 7.2323L4.07971 4.0753C4.45498 3.65298 4.91546 3.31496 5.43083 3.08347C5.94619 2.85199 6.50474 2.73231 7.06971 2.7323H7.27271M1.27271 15.7323H6.77271L10.7727 12.7323C10.7727 12.7323 11.5827 12.1853 12.7727 11.2323C15.2727 9.2323 12.7727 6.0663 10.2727 7.7323C8.23671 9.0893 6.27271 10.2323 6.27271 10.2323" stroke="white" stroke-width="1.25" stroke-linecap="round" stroke-linejoin="round"/>
<path d="M7.27271 9.7323V3.2323C7.27271 2.70187 7.48342 2.19316 7.85849 1.81809C8.23356 1.44301 8.74227 1.2323 9.27271 1.2323H19.2727C19.8031 1.2323 20.3118 1.44301 20.6869 1.81809C21.062 2.19316 21.2727 2.70187 21.2727 3.2323V9.2323C21.2727 9.76273 21.062 10.2714 20.6869 10.6465C20.3118 11.0216 19.8031 11.2323 19.2727 11.2323H12.7727" stroke="white" stroke-width="1.25"/>
</svg>
